<?xml version="1.0" encoding="UTF-8" standalone="no"?>
<!-- Created with Inkscape (http://www.inkscape.org/) -->

<svg
   xmlns:dc="http://purl.org/dc/elements/1.1/"
   xmlns:cc="http://creativecommons.org/ns#"
   xmlns:rdf="http://www.w3.org/1999/02/22-rdf-syntax-ns#"
   xmlns:svg="http://www.w3.org/2000/svg"
   xmlns="http://www.w3.org/2000/svg"
   xmlns:sodipodi="http://sodipodi.sourceforge.net/DTD/sodipodi-0.dtd"
   xmlns:inkscape="http://www.inkscape.org/namespaces/inkscape"
   width="44"
   height="44"
   viewBox="0 0 11.641666 11.641667"
   version="1.1"
   id="svg965"
   inkscape:version="0.92.3 (2405546, 2018-03-11)"
   sodipodi:docname="favicon.svg">
  <defs
     id="defs959" />
  <sodipodi:namedview
     id="base"
     pagecolor="#ffffff"
     bordercolor="#666666"
     borderopacity="1.0"
     inkscape:pageopacity="0.0"
     inkscape:pageshadow="2"
     inkscape:zoom="7.9195959"
     inkscape:cx="17.348878"
     inkscape:cy="38.488862"
     inkscape:document-units="px"
     inkscape:current-layer="layer1"
     showgrid="false"
     units="px"
     inkscape:window-width="1920"
     inkscape:window-height="1025"
     inkscape:window-x="0"
     inkscape:window-y="27"
     inkscape:window-maximized="1" />
  <metadata
     id="metadata962">
    <rdf:RDF>
      <cc:Work
         rdf:about="">
        <dc:format>image/svg+xml</dc:format>
        <dc:type
           rdf:resource="http://purl.org/dc/dcmitype/StillImage" />
        <dc:title></dc:title>
      </cc:Work>
    </rdf:RDF>
  </metadata>
  <g
     inkscape:label="Layer 1"
     inkscape:groupmode="layer"
     id="layer1"
     transform="translate(0,-285.35831)">
    <g
       transform="matrix(0.05540265,0,0,0.05540265,-17.755239,216.96688)"
       id="g3208"
       inkscape:export-filename="/home/rsk/Dropbox/desarrollo reyesoft/smsc/logotipo/avatar.png"
       inkscape:export-xdpi="460.79999"
       inkscape:export-ydpi="460.79999">
      <path
         style="fill:#da4c3c;fill-opacity:1;fill-rule:nonzero;stroke:none"
         d="m 423.66657,1247.0127 c -43.14337,1.093 -77.78442,36.4151 -77.78442,79.8176 0,35.9666 23.77049,66.3728 56.46487,76.3613 v 28.8133 c 0,0 27.02975,-19.6248 46.96692,-28.8714 30.93252,-14.3425 56.2325,-40.4205 56.2325,-76.3032 0,-44.0915 -35.72614,-79.8176 -79.81762,-79.8176 -0.689,0 -1.37743,-0.017 -2.06225,0 z m 2.75935,25.1827 c 18.48004,0 26.62589,2.8658 38.9503,9.9045 v 21.9876 h -15.85897 v -6.5934 c -9.01699,-3.0776 -14.96802,-4.1825 -20.24486,-4.1825 -41.14183,0 -44.64303,70.2035 -4.82158,70.2035 10.55813,0 20.67752,-3.5211 31.4565,-8.3652 l 9.67222,16.9337 c -12.98245,8.5843 -28.15301,13.4191 -44.87562,13.4191 -33.87781,0 -47.95447,-27.9409 -47.95447,-55.884 0,-29.9212 19.7942,-57.4233 53.67648,-57.4233 z"
         id="path3122"
         inkscape:export-filename="/home/rsk/Dropbox/desarrollo reyesoft/smsc/logotipo/path3265-8.png"
         inkscape:export-xdpi="270"
         inkscape:export-ydpi="270"
         inkscape:connector-curvature="0" />
      <rect
         y="1239.505"
         x="325.71429"
         height="200"
         width="200"
         id="rect3206"
         style="color:#000000;display:inline;overflow:visible;visibility:visible;opacity:0.8;fill:none;stroke:none;stroke-width:5.5;marker:none;enable-background:accumulate" />
    </g>
  </g>
</svg>
