<?xml version="1.0" encoding="UTF-8" standalone="no"?>
<svg
   xmlns:dc="http://purl.org/dc/elements/1.1/"
   xmlns:cc="http://creativecommons.org/ns#"
   xmlns:rdf="http://www.w3.org/1999/02/22-rdf-syntax-ns#"
   xmlns:svg="http://www.w3.org/2000/svg"
   xmlns="http://www.w3.org/2000/svg"
   xmlns:sodipodi="http://sodipodi.sourceforge.net/DTD/sodipodi-0.dtd"
   xmlns:inkscape="http://www.inkscape.org/namespaces/inkscape"
   version="1.1"
   id="Capa_1"
   x="0px"
   y="0px"
   viewBox="0 0 39.853966 43.599999"
   enable-background="new 0 0 167 51.8"
   xml:space="preserve"
   sodipodi:docname="favicon.svg"
   inkscape:version="0.92.3 (2405546, 2018-03-11)"
   inkscape:export-filename="/home/maxi/repos/dev.saldo.com.ar/img/favicon.png"
   inkscape:export-xdpi="300"
   inkscape:export-ydpi="300"
   width="39.853966"
   height="43.599998"><metadata
   id="metadata27"><rdf:RDF><cc:Work
       rdf:about=""><dc:format>image/svg+xml</dc:format><dc:type
         rdf:resource="http://purl.org/dc/dcmitype/StillImage" /><dc:title></dc:title></cc:Work></rdf:RDF></metadata><defs
   id="defs25" /><sodipodi:namedview
   pagecolor="#ffffff"
   bordercolor="#666666"
   borderopacity="1"
   objecttolerance="10"
   gridtolerance="10"
   guidetolerance="10"
   inkscape:pageopacity="0"
   inkscape:pageshadow="2"
   inkscape:window-width="1863"
   inkscape:window-height="1025"
   id="namedview23"
   showgrid="false"
   inkscape:zoom="2.0479042"
   inkscape:cx="-96.982718"
   inkscape:cy="21.7"
   inkscape:window-x="57"
   inkscape:window-y="27"
   inkscape:window-maximized="1"
   inkscape:current-layer="g20"
   fit-margin-top="0"
   fit-margin-left="0"
   fit-margin-right="0"
   fit-margin-bottom="0" />
<g
   id="g20"
   transform="translate(-123.59529,-4)">

  
  
  
  <path
   d="m 163.2,22.8 c 0,0 0,0 0,0 -0.1,-0.4 -0.1,-0.7 -0.2,-1 0,-0.1 0,-0.1 -0.1,-0.2 -0.1,-0.3 -0.1,-0.5 -0.2,-0.8 0,-0.1 0,-0.1 -0.1,-0.2 -0.1,-0.3 -0.2,-0.6 -0.3,-0.9 0,0 0,-0.1 0,-0.1 -0.1,-0.3 -0.2,-0.6 -0.3,-0.9 0,0 0,0 0,0 -1.1,-2.6 -2.7,-5 -4.7,-7 0,0 -0.1,-0.1 -0.1,-0.1 -0.2,-0.2 -0.4,-0.4 -0.6,-0.6 -0.1,-0.1 -0.2,-0.2 -0.3,-0.2 -0.2,-0.1 -0.3,-0.3 -0.5,-0.4 -0.1,-0.1 -0.2,-0.2 -0.4,-0.3 C 155.2,10 155.1,9.9 154.9,9.8 154.8,9.7 154.7,9.6 154.5,9.5 154.3,9.4 154.1,9.3 154,9.1 153.9,9.1 153.9,9 153.8,9 151.6,7.6 149.1,6.7 146.5,6.3 l 6.7,5.6 -5.7,3.3 c 0.7,0.3 1.4,0.6 2,1 0.1,0.1 0.2,0.1 0.3,0.2 0.1,0 0.1,0.1 0.2,0.1 0,0 0.1,0.1 0.1,0.1 0.1,0 0.1,0.1 0.2,0.1 0.1,0 0.1,0.1 0.2,0.1 0.1,0.1 0.2,0.2 0.3,0.2 0,0 0.1,0.1 0.1,0.1 0.1,0.1 0.3,0.2 0.4,0.3 0,0 0,0 0,0 1.3,1.3 2.3,2.9 2.9,4.6 0,0 0,0 0,0 0.1,0.2 0.1,0.3 0.2,0.5 0,0 0,0.1 0,0.1 0,0.2 0.1,0.3 0.1,0.5 0,0 0,0.1 0,0.1 0,0.2 0.1,0.4 0.1,0.6 0,0 0,0 0,0.1 0,0.2 0.1,0.4 0.1,0.5 0,0 0,0 0,0.1 0.3,2.8 -0.4,5.6 -2.1,7.9 -1.1,1.6 -2.6,2.8 -4.3,3.6 -0.1,0 -0.1,0 0,0 l 0.2,-1.8 -10.2,5.6 8.8,7.8 c 0,0 0.2,-2 0.2,-2.4 0.5,-0.1 0.9,-0.2 1.1,-0.3 0.1,0 0.3,-0.1 0.4,-0.1 0.2,-0.1 0.4,-0.1 0.6,-0.2 0.1,0 0.2,-0.1 0.3,-0.1 0.2,-0.1 0.5,-0.2 0.7,-0.2 0,0 0.1,0 0.1,-0.1 8.8,-3 14.2,-12 12.7,-21.4 z"
   id="path16"
   style="fill:#18bc9c;fill-opacity:1"
   inkscape:connector-curvature="0" />
  <path
   d="m 133.7,39.6 5.4,-3 c -0.7,-0.3 -1.3,-0.6 -1.9,-1 0,0 0,0 0,0 -0.2,-0.1 -0.3,-0.2 -0.4,-0.3 0,0 0,0 0,0 -0.9,-0.6 -1.7,-1.4 -2.3,-2.2 0,0 0,-0.1 -0.1,-0.1 -0.1,-0.1 -0.1,-0.2 -0.2,-0.3 0,-0.1 -0.1,-0.1 -0.1,-0.2 -0.1,-0.1 -0.1,-0.2 -0.2,-0.2 -0.1,-0.1 -0.1,-0.2 -0.2,-0.3 0,-0.1 -0.1,-0.1 -0.1,-0.2 -0.1,-0.1 -0.1,-0.2 -0.2,-0.3 0,-0.1 -0.1,-0.1 -0.1,-0.2 -0.1,-0.1 -0.1,-0.2 -0.2,-0.4 0,-0.1 -0.1,-0.1 -0.1,-0.2 -0.1,-0.1 -0.1,-0.3 -0.2,-0.4 0,-0.1 0,-0.1 -0.1,-0.2 -0.1,-0.1 -0.1,-0.3 -0.2,-0.4 0,-0.1 0,-0.1 -0.1,-0.2 0,-0.1 -0.1,-0.3 -0.1,-0.4 0,0 0,-0.1 0,-0.1 0,-0.2 -0.1,-0.3 -0.1,-0.5 0,0 0,-0.1 0,-0.1 0,-0.2 -0.1,-0.4 -0.1,-0.6 0,-0.2 -0.1,-0.4 -0.1,-0.6 -0.5,-4.9 2.1,-9.5 6.4,-11.6 l -0.2,1.8 10.2,-5.9 -8.8,-7.5 -0.2,2.4 c 0,0 0,0 -0.1,0 -0.1,0 -0.2,0 -0.3,0.1 -0.2,0.1 -0.5,0.1 -0.7,0.2 0,0 -0.1,0 -0.1,0 -4.3,1.2 -8.1,3.8 -10.8,7.5 -2.9,4 -4.2,8.9 -3.7,13.7 0,0 0,0.1 0,0.1 0,0.3 0.1,0.7 0.1,1 0.1,0.3 0.1,0.7 0.2,1 0,0.1 0,0.1 0.1,0.2 0.1,0.3 0.1,0.6 0.2,0.8 0,0.1 0,0.1 0.1,0.2 0.1,0.3 0.2,0.6 0.3,0.9 0,0 0,0.1 0,0.1 0.1,0.3 0.2,0.6 0.3,0.9 0,0 0,0 0,0 1.1,2.6 2.7,5 4.7,7 0,0 0.1,0.1 0.1,0.1 0.2,0.2 0.4,0.4 0.6,0.6 0.1,0.1 0.2,0.2 0.3,0.2 0.2,0.1 0.3,0.3 0.5,0.4 0.1,0.1 0.2,0.2 0.4,0.3 0.2,0.1 0.4,0.3 0.5,0.4 0.1,0.1 0.1,0.1 0.2,0.2 0.2,0.2 0.5,0.3 0.7,0.5 0,0 0.1,0.1 0.1,0.1 v 0 c 2.3,1.4 4.9,2.3 7.5,2.7 z"
   id="path18"
   style="fill:#18bc9c;fill-opacity:1"
   inkscape:connector-curvature="0" />
</g>
</svg>