<?xml version="1.0" encoding="UTF-8" standalone="no"?>
<svg
   xmlns:dc="http://purl.org/dc/elements/1.1/"
   xmlns:cc="http://creativecommons.org/ns#"
   xmlns:rdf="http://www.w3.org/1999/02/22-rdf-syntax-ns#"
   xmlns:svg="http://www.w3.org/2000/svg"
   xmlns="http://www.w3.org/2000/svg"
   xmlns:sodipodi="http://sodipodi.sourceforge.net/DTD/sodipodi-0.dtd"
   xmlns:inkscape="http://www.inkscape.org/namespaces/inkscape"
   version="1.1"
   id="Capa_1"
   x="0px"
   y="0px"
   viewBox="0 0 167 51.8"
   enable-background="new 0 0 167 51.8"
   xml:space="preserve"
   sodipodi:docname="logo.svg"
   inkscape:version="0.92.3 (2405546, 2018-03-11)"><metadata
   id="metadata27"><rdf:RDF><cc:Work
       rdf:about=""><dc:format>image/svg+xml</dc:format><dc:type
         rdf:resource="http://purl.org/dc/dcmitype/StillImage" /></cc:Work></rdf:RDF></metadata><defs
   id="defs25" /><sodipodi:namedview
   pagecolor="#ffffff"
   bordercolor="#666666"
   borderopacity="1"
   objecttolerance="10"
   gridtolerance="10"
   guidetolerance="10"
   inkscape:pageopacity="0"
   inkscape:pageshadow="2"
   inkscape:window-width="1863"
   inkscape:window-height="1025"
   id="namedview23"
   showgrid="false"
   inkscape:zoom="2.0479042"
   inkscape:cx="35.157895"
   inkscape:cy="25.9"
   inkscape:window-x="57"
   inkscape:window-y="27"
   inkscape:window-maximized="1"
   inkscape:current-layer="g20" />
<g
   id="g20">
<g
   id="g4"
   style="fill:#18bc9c;fill-opacity:1">
<path
   fill="#FFFFFF"
   d="M48.2,6.4l16.9,39h-8.8l-1.6-4.1h-13l-1.5,4.1h-8.9L48.2,6.4z M51.8,34.1l-3.6-10l-3.7,10H51.8z"
   id="path2"
   style="fill:#18bc9c;fill-opacity:1" />
</g>
  <g
   id="g8"
   style="fill:#18bc9c;fill-opacity:1">
<path
   fill="#FFFFFF"
   d="M74.9,7v30.7h12.5v7.7H67.1V7H74.9z"
   id="path6"
   style="fill:#18bc9c;fill-opacity:1" />
</g>
  <g
   id="g12"
   style="fill:#18bc9c;fill-opacity:1">
<path
   fill="#FFFFFF"
   d="M102.2,45.4H90.6V7h11.7C128.4,7,128.4,45.4,102.2,45.4z M98.4,14.7v23h3.8c15.3,0,15.3-23,0-23H98.4z"
   id="path10"
   style="fill:#18bc9c;fill-opacity:1" />
</g>
  <path
   fill="#FFFFFF"
   d="M32.6,34c-0.6-7.1-7.4-9.9-12.4-11.4c-6.4-1.9-6.6-3.9-6.7-5c-0.1-1.5,1.1-2.9,2.3-3.6                                 c0.5-0.3,1.3-0.4,2.3-0.4c2.3,0,5.1,0.9,7.3,2.2l0.5,0.3l3.7-7.6l-0.4-0.2C26,6.3,22.6,5.3,19.1,5.3c-3,0-5.6,0.8-7,1.5                                 c-4,2.1-6.6,6-6.9,10.4c-0.2,3.2,0.8,6,3,8.3c2.3,2.3,5.4,4,9.4,5c4.4,1.1,5.8,2.7,6.1,3.8c0.3,1.1-0.2,2.1-0.7,2.7                                 c-1,1.1-2.8,1.6-4.9,1.5c-3.8-0.2-8.8-2.6-10.8-4.1L6.6,34l-3.3,7.9l0.3,0.2c4.2,2.9,8.8,4.5,13.8,4.8c0.3,0,0.6,0,0.9,0                                 c0,0,0,0,0,0c4.2,0,8.1-1.5,10.7-4.1C31.5,40.4,32.9,37.1,32.6,34z"
   id="path14"
   style="fill:#18bc9c;fill-opacity:1" />
  <path
   fill="#FFFFFF"
   d="M163.2,22.8C163.2,22.8,163.2,22.8,163.2,22.8c-0.1-0.4-0.1-0.7-0.2-1c0-0.1,0-0.1-0.1-0.2                                 c-0.1-0.3-0.1-0.5-0.2-0.8c0-0.1,0-0.1-0.1-0.2c-0.1-0.3-0.2-0.6-0.3-0.9c0,0,0-0.1,0-0.1c-0.1-0.3-0.2-0.6-0.3-0.9c0,0,0,0,0,0                                 c-1.1-2.6-2.7-5-4.7-7c0,0-0.1-0.1-0.1-0.1c-0.2-0.2-0.4-0.4-0.6-0.6c-0.1-0.1-0.2-0.2-0.3-0.2c-0.2-0.1-0.3-0.3-0.5-0.4                                 c-0.1-0.1-0.2-0.2-0.4-0.3c-0.2-0.1-0.3-0.2-0.5-0.3c-0.1-0.1-0.2-0.2-0.4-0.3c-0.2-0.1-0.4-0.2-0.5-0.4c-0.1,0-0.1-0.1-0.2-0.1                                 c-2.2-1.4-4.7-2.3-7.3-2.7l6.7,5.6l-5.7,3.3c0.7,0.3,1.4,0.6,2,1c0.1,0.1,0.2,0.1,0.3,0.2c0.1,0,0.1,0.1,0.2,0.1                                 c0,0,0.1,0.1,0.1,0.1c0.1,0,0.1,0.1,0.2,0.1c0.1,0,0.1,0.1,0.2,0.1c0.1,0.1,0.2,0.2,0.3,0.2c0,0,0.1,0.1,0.1,0.1                                 c0.1,0.1,0.3,0.2,0.4,0.3c0,0,0,0,0,0c1.3,1.3,2.3,2.9,2.9,4.6c0,0,0,0,0,0c0.1,0.2,0.1,0.3,0.2,0.5c0,0,0,0.1,0,0.1                                 c0,0.2,0.1,0.3,0.1,0.5c0,0,0,0.1,0,0.1c0,0.2,0.1,0.4,0.1,0.6c0,0,0,0,0,0.1c0,0.2,0.1,0.4,0.1,0.5c0,0,0,0,0,0.1                                 c0.3,2.8-0.4,5.6-2.1,7.9c-1.1,1.6-2.6,2.8-4.3,3.6c-0.1,0-0.1,0,0,0l0.2-1.8l-10.2,5.6l8.8,7.8c0,0,0.2-2,0.2-2.4                                 c0.5-0.1,0.9-0.2,1.1-0.3c0.1,0,0.3-0.1,0.4-0.1c0.2-0.1,0.4-0.1,0.6-0.2c0.1,0,0.2-0.1,0.3-0.1c0.2-0.1,0.5-0.2,0.7-0.2                                 c0,0,0.1,0,0.1-0.1C159.3,41.2,164.7,32.2,163.2,22.8z"
   id="path16"
   style="fill:#18bc9c;fill-opacity:1" />
  <path
   fill="#FFFFFF"
   d="M133.7,39.6l5.4-3c-0.7-0.3-1.3-0.6-1.9-1c0,0,0,0,0,0c-0.2-0.1-0.3-0.2-0.4-0.3c0,0,0,0,0,0                                 c-0.9-0.6-1.7-1.4-2.3-2.2c0,0,0-0.1-0.1-0.1c-0.1-0.1-0.1-0.2-0.2-0.3c0-0.1-0.1-0.1-0.1-0.2c-0.1-0.1-0.1-0.2-0.2-0.2                                 c-0.1-0.1-0.1-0.2-0.2-0.3c0-0.1-0.1-0.1-0.1-0.2c-0.1-0.1-0.1-0.2-0.2-0.3c0-0.1-0.1-0.1-0.1-0.2c-0.1-0.1-0.1-0.2-0.2-0.4                                 c0-0.1-0.1-0.1-0.1-0.2c-0.1-0.1-0.1-0.3-0.2-0.4c0-0.1,0-0.1-0.1-0.2c-0.1-0.1-0.1-0.3-0.2-0.4c0-0.1,0-0.1-0.1-0.2                                 c0-0.1-0.1-0.3-0.1-0.4c0,0,0-0.1,0-0.1c0-0.2-0.1-0.3-0.1-0.5c0,0,0-0.1,0-0.1c0-0.2-0.1-0.4-0.1-0.6c0-0.2-0.1-0.4-0.1-0.6                                 c-0.5-4.9,2.1-9.5,6.4-11.6l-0.2,1.8l10.2-5.9L139.6,4l-0.2,2.4c0,0,0,0-0.1,0c-0.1,0-0.2,0-0.3,0.1c-0.2,0.1-0.5,0.1-0.7,0.2                                 c0,0-0.1,0-0.1,0c-4.3,1.2-8.1,3.8-10.8,7.5c-2.9,4-4.2,8.9-3.7,13.7c0,0,0,0.1,0,0.1c0,0.3,0.1,0.7,0.1,1c0.1,0.3,0.1,0.7,0.2,1                                 c0,0.1,0,0.1,0.1,0.2c0.1,0.3,0.1,0.6,0.2,0.8c0,0.1,0,0.1,0.1,0.2c0.1,0.3,0.2,0.6,0.3,0.9c0,0,0,0.1,0,0.1                                 c0.1,0.3,0.2,0.6,0.3,0.9c0,0,0,0,0,0c1.1,2.6,2.7,5,4.7,7c0,0,0.1,0.1,0.1,0.1c0.2,0.2,0.4,0.4,0.6,0.6c0.1,0.1,0.2,0.2,0.3,0.2                                 c0.2,0.1,0.3,0.3,0.5,0.4c0.1,0.1,0.2,0.2,0.4,0.3c0.2,0.1,0.4,0.3,0.5,0.4c0.1,0.1,0.1,0.1,0.2,0.2c0.2,0.2,0.5,0.3,0.7,0.5                                 c0,0,0.1,0.1,0.1,0.1l0,0c2.3,1.4,4.9,2.3,7.5,2.7L133.7,39.6z"
   id="path18"
   style="fill:#18bc9c;fill-opacity:1" />
</g>
</svg>