<?xml version="1.0" encoding="UTF-8" standalone="no"?>
<!-- Created with Inkscape (http://www.inkscape.org/) -->

<svg
   xmlns:dc="http://purl.org/dc/elements/1.1/"
   xmlns:cc="http://creativecommons.org/ns#"
   xmlns:rdf="http://www.w3.org/1999/02/22-rdf-syntax-ns#"
   xmlns:svg="http://www.w3.org/2000/svg"
   xmlns="http://www.w3.org/2000/svg"
   xmlns:sodipodi="http://sodipodi.sourceforge.net/DTD/sodipodi-0.dtd"
   xmlns:inkscape="http://www.inkscape.org/namespaces/inkscape"
   width="162.68965mm"
   height="56.619598mm"
   viewBox="0 0 162.68965 56.619598"
   version="1.1"
   id="svg986"
   inkscape:version="0.92.3 (2405546, 2018-03-11)"
   sodipodi:docname="logo-smsc.svg">
  <defs
     id="defs980" />
  <sodipodi:namedview
     id="base"
     pagecolor="#ffffff"
     bordercolor="#666666"
     borderopacity="1.0"
     inkscape:pageopacity="0.0"
     inkscape:pageshadow="2"
     inkscape:zoom="0.35"
     inkscape:cx="-238.26927"
     inkscape:cy="129.85481"
     inkscape:document-units="mm"
     inkscape:current-layer="layer1"
     showgrid="false"
     fit-margin-top="0"
     fit-margin-left="0"
     fit-margin-right="0"
     fit-margin-bottom="0"
     inkscape:window-width="1920"
     inkscape:window-height="1025"
     inkscape:window-x="0"
     inkscape:window-y="27"
     inkscape:window-maximized="1" />
  <metadata
     id="metadata983">
    <rdf:RDF>
      <cc:Work
         rdf:about="">
        <dc:format>image/svg+xml</dc:format>
        <dc:type
           rdf:resource="http://purl.org/dc/dcmitype/StillImage" />
        <dc:title></dc:title>
      </cc:Work>
    </rdf:RDF>
  </metadata>
  <g
     inkscape:label="Layer 1"
     inkscape:groupmode="layer"
     id="layer1"
     transform="translate(-26.00041,-126.57115)">
    <g
       transform="matrix(0.26458333,0,0,0.26458333,7.9383086,-81.22378)"
       id="g4111"
       inkscape:export-xdpi="120"
       inkscape:export-ydpi="120">
      <path
         inkscape:export-ydpi="270"
         inkscape:export-xdpi="270"
         inkscape:export-filename="/home/rsk/Dropbox/desarrollo reyesoft/smsc/logotipo/path3265-8.png"
         inkscape:connector-curvature="0"
         d="m 118.06647,913.31392 c 10.17642,0 21.54055,-3.54891 21.54055,-13.02219 0,-22.01089 -64.85918,-15.85373 -64.85918,-53.4903 0,-24.61912 22.72351,-34.32519 44.02652,-34.32519 17.27899,0 41.89812,6.62749 41.89812,25.327 v 13.49254 h -25.56456 c 0,-11.59693 -7.09783,-17.279 -17.27899,-17.279 -18.69951,0 -17.75409,12.78465 -17.75409,12.78465 0,22.48598 64.85919,14.20042 64.85919,53.01996 0,26.51473 -23.91124,35.03308 -47.1051,35.03308 -17.279,0 -47.57544,-4.73189 -49.2335,-27.45541 V 895.3223 h 25.56455 c 0,15.38814 12.30482,17.99162 23.90649,17.99162"
         style="fill:#0080a7;fill-opacity:1;fill-rule:nonzero;stroke:none"
         id="path3177-9" />
      <path
         inkscape:export-ydpi="270"
         inkscape:export-xdpi="270"
         inkscape:export-filename="/home/rsk/Dropbox/desarrollo reyesoft/smsc/logotipo/path3265-8.png"
         inkscape:connector-curvature="0"
         d="m 211.55879,830.70537 c 0,0 11.12659,-17.99163 42.84354,-17.99163 0,0 21.54055,-0.23754 33.37977,18.93706 12.06727,-20.12003 44.49686,-18.93706 44.49686,-18.93706 0,0 43.08109,-0.23754 43.08109,41.66058 v 56.81117 h 11.12659 v 21.303 h -36.68639 v -76.69366 c 0,-28.40558 -56.57837,-24.85666 -56.57837,-1.18297 v 56.57363 h 11.36413 v 21.303 h -36.92393 v -76.69366 c 0,-28.87592 -56.10329,-24.61912 -56.10329,0 v 55.39066 h 11.36413 v 21.303 h -36.92868 v -89.23601 c 0,-7.81522 -11.12659,-7.57767 -11.12659,-7.57767 v -21.54055 c 13.49253,-5.68207 36.69114,-4.26155 36.69114,13.25499 z"
         style="fill:#0080a7;fill-opacity:1;fill-rule:nonzero;stroke:none"
         id="path3181-6" />
      <path
         inkscape:export-ydpi="270"
         inkscape:export-xdpi="270"
         inkscape:export-filename="/home/rsk/Dropbox/desarrollo reyesoft/smsc/logotipo/path3265-8.png"
         inkscape:connector-curvature="0"
         d="m 447.73613,913.31392 c 10.17641,0 21.54055,-3.54891 21.54055,-13.02219 0,-22.01089 -64.85918,-15.85373 -64.85918,-53.4903 0,-24.61912 22.72351,-34.32519 44.02652,-34.32519 17.27899,0 41.89811,6.62749 41.89811,25.327 v 13.49254 h -25.56455 c 0,-11.59693 -7.10258,-17.279 -17.27899,-17.279 -18.69951,0 -17.75409,12.78465 -17.75409,12.78465 0,22.48598 64.85918,14.20042 64.85918,53.01996 0,26.51473 -23.90652,35.03308 -47.10509,35.03308 -17.279,0 -47.57544,-4.73189 -49.2335,-27.45541 V 895.3223 h 25.56455 c 0,15.38814 12.30481,17.99162 23.90649,17.99162"
         style="fill:#0080a7;fill-opacity:1;fill-rule:nonzero;stroke:none"
         id="path3185-0" />
      <path
         inkscape:connector-curvature="0"
         inkscape:export-ydpi="270"
         inkscape:export-xdpi="270"
         inkscape:export-filename="/home/rsk/Dropbox/desarrollo reyesoft/smsc/logotipo/path3265-8.png"
         id="path3189-3"
         d="m 595.0625,785.375 c -46.41753,1.17596 -83.6875,39.17855 -83.6875,85.875 0,38.69602 25.57444,71.40973 60.75,82.15625 v 31 c 0,0 29.08105,-21.11413 50.53125,-31.0625 33.28,-15.4309 60.5,-43.488 60.5,-82.09375 0,-47.43766 -38.4374,-85.875 -85.875,-85.875 -0.74129,0 -1.48196,-0.0187 -2.21875,0 z m 2.96875,27.09375 c 19.8825,0 28.64655,3.08332 41.90625,10.65625 v 23.65625 H 622.875 v -7.09375 c -9.7013,-3.31138 -16.10395,-4.5 -21.78125,-4.5 -44.2641,0 -48.031,75.53125 -5.1875,75.53125 11.3594,0 22.24675,-3.78827 33.84375,-9 l 10.40625,18.21875 c -13.9677,9.23573 -30.28955,14.4375 -48.28125,14.4375 -36.4488,0 -51.59375,-30.06136 -51.59375,-60.125 0,-32.19205 21.2964,-61.78125 57.75,-61.78125 z"
         style="fill:#da4c3c;fill-opacity:1;fill-rule:nonzero;stroke:none" />
      <path
         inkscape:export-ydpi="270"
         inkscape:export-xdpi="270"
         inkscape:export-filename="/home/rsk/Dropbox/desarrollo reyesoft/smsc/logotipo/path3265-8.png"
         inkscape:connector-curvature="0"
         d="m 68.26621,965.53383 c 0.32762,-0.062 0.65088,-0.10452 0.96443,-0.13758 0.31812,-0.0266 0.63662,-0.043 0.96444,-0.043 0.33256,0 0.63661,0.0152 0.92167,0.043 0.28505,0.0342 0.59386,0.076 0.92167,0.13758 0.0905,0.44659 0.18054,1.04045 0.27099,1.77684 0.0901,0.73163 0.13759,1.354 0.13759,1.86235 0.26605,-0.53686 0.60336,-1.0547 1.00719,-1.55355 0.40382,-0.48934 0.88366,-0.93117 1.43477,-1.32074 0.55585,-0.38958 1.19247,-0.70314 1.91461,-0.94543 0.71738,-0.23755 1.51078,-0.35613 2.38019,-0.35613 1.79584,0 3.17835,0.36601 4.15703,1.09746 0.97394,0.73639 1.71508,1.76258 2.22342,3.07858 0.2995,-0.50835 0.66513,-1.0167 1.09746,-1.52979 0.43708,-0.50835 0.92167,-0.95493 1.45852,-1.3445 0.5416,-0.38958 1.15447,-0.70314 1.84335,-0.94543 0.68888,-0.23755 1.46802,-0.35613 2.33744,-0.35613 2.66525,0 4.60361,0.74589 5.81984,2.24242 1.21148,1.50128 1.81959,3.7152 1.81959,6.65125 v 14.68976 c -0.33256,0.0619 -0.70313,0.10946 -1.12121,0.13759 -0.42283,0.0266 -0.79815,0.0429 -1.12596,0.0429 -0.33256,0 -0.69838,-0.0152 -1.09746,-0.0429 -0.40857,-0.0266 -0.77439,-0.076 -1.1022,-0.13759 v -13.38801 c 0,-2.06664 -0.3185,-3.61543 -0.94543,-4.65113 -0.63187,-1.03094 -1.66281,-1.54879 -3.09758,-1.54879 -1.52979,0 -2.76502,0.55586 -3.71045,1.66281 -0.94068,1.10696 -1.41577,2.74127 -1.41577,4.89817 v 13.02695 c -0.328,0.0619 -0.69363,0.10946 -1.1022,0.13759 -0.39908,0.0266 -0.7649,0.0429 -1.09746,0.0429 -0.328,0 -0.69838,-0.0152 -1.10221,-0.0429 -0.40382,-0.0266 -0.76964,-0.076 -1.09745,-0.13759 v -13.70157 c 0,-2.00963 -0.2995,-3.51091 -0.89792,-4.51335 -0.59861,-1.00719 -1.56304,-1.50603 -2.87429,-1.50603 -0.75064,0 -1.45852,0.16609 -2.11415,0.49409 -0.66037,0.328 -1.23998,0.8219 -1.72932,1.48228 -0.4941,0.66037 -0.88367,1.48703 -1.16872,2.48946 -0.28506,1.00719 -0.42758,2.16641 -0.42758,3.48241 v 11.77271 c -0.33256,0.0619 -0.69838,0.10946 -1.10221,0.13759 -0.39907,0.0266 -0.76964,0.0429 -1.09746,0.0429 -0.33256,0 -0.70788,-0.0152 -1.12596,-0.0429 -0.41808,-0.0266 -0.7934,-0.076 -1.12121,-0.13759 v -23.04658 z"
         style="fill:#0080a7;fill-opacity:1;fill-rule:nonzero;stroke:none"
         id="path3193-5" />
      <path
         inkscape:export-ydpi="270"
         inkscape:export-xdpi="270"
         inkscape:export-filename="/home/rsk/Dropbox/desarrollo reyesoft/smsc/logotipo/path3265-8.png"
         inkscape:connector-curvature="0"
         d="m 121.42821,974.83463 c 0,-0.8409 -0.11403,-1.63905 -0.33751,-2.40395 -0.22348,-0.76489 -0.5511,-1.43002 -0.98343,-2.00012 -0.43708,-0.56536 -0.99294,-1.0262 -1.66757,-1.36826 -0.66987,-0.34206 -1.47277,-0.51785 -2.3992,-0.51785 -1.82909,0 -3.2306,0.55586 -4.20454,1.66282 -0.97393,1.10695 -1.56779,2.65099 -1.77208,4.62736 h 11.36414 z m -11.41165,3.32563 c 0.0616,2.51322 0.71264,4.35657 1.95737,5.52054 1.23998,1.16872 3.07383,1.75308 5.50153,1.75308 2.12365,0 4.14753,-0.37057 6.06689,-1.12122 0.23755,0.45134 0.43233,0.99769 0.58436,1.64381 0.14747,0.64137 0.23755,1.27799 0.26605,1.90511 -0.98818,0.42283 -2.07139,0.73639 -3.25436,0.94543 -1.18297,0.20904 -2.49422,0.31356 -3.92899,0.31356 -2.09989,0 -3.90048,-0.29 -5.39226,-0.87417 -1.50128,-0.58436 -2.73651,-1.41101 -3.71045,-2.47046 -0.97393,-1.0642 -1.68656,-2.32319 -2.13315,-3.77696 -0.44658,-1.44902 -0.67462,-3.04532 -0.67462,-4.78415 0,-1.70557 0.21854,-3.30187 0.65087,-4.78415 0.43233,-1.48228 1.10221,-2.76977 2.00012,-3.86247 0.89792,-1.09271 2.02864,-1.96212 3.39214,-2.60824 1.36351,-0.64612 2.96931,-0.96443 4.82691,-0.96443 1.59155,0 2.98356,0.26605 4.18078,0.80765 1.19723,0.5416 2.19967,1.27799 3.01207,2.22342 0.80765,0.94542 1.42052,2.06663 1.84334,3.37313 0.41808,1.30174 0.62712,2.71276 0.62712,4.24255 0,0.42283 -0.019,0.85991 -0.0429,1.3255 -0.0342,0.46558 -0.0616,0.86466 -0.0901,1.19247 h -15.6827 z"
         style="fill:#0080a7;fill-opacity:1;fill-rule:nonzero;stroke:none"
         id="path3197-1" />
      <path
         inkscape:export-ydpi="270"
         inkscape:export-xdpi="270"
         inkscape:export-filename="/home/rsk/Dropbox/desarrollo reyesoft/smsc/logotipo/path3265-8.png"
         inkscape:connector-curvature="0"
         d="m 131.4825,965.53383 c 0.328,-0.062 0.65087,-0.10452 0.96443,-0.13758 0.3185,-0.0266 0.63662,-0.043 0.96443,-0.043 0.33256,0 0.63662,0.0152 0.92168,0.043 0.28505,0.0342 0.59386,0.076 0.92167,0.13758 0.0905,0.44659 0.18053,1.0547 0.27061,1.81959 0.0905,0.7649 0.13758,1.39677 0.13758,1.90986 0.29456,-0.51309 0.67463,-1.02144 1.14497,-1.52979 0.46084,-0.50834 0.99294,-0.96443 1.59155,-1.36825 0.59861,-0.40383 1.28749,-0.73164 2.06664,-0.98819 0.77914,-0.25161 1.62955,-0.38007 2.56073,-0.38007 2.63674,0 4.58461,0.75539 5.8436,2.26618 1.25423,1.51078 1.8861,3.74845 1.8861,6.71776 v 14.59949 c -0.33256,0.062 -0.70788,0.10946 -1.12596,0.13759 -0.41808,0.0266 -0.78865,0.0429 -1.12121,0.0429 -0.32762,0 -0.69838,-0.0152 -1.10221,-0.0429 -0.40383,-0.0266 -0.76964,-0.076 -1.09746,-0.13759 V 975.1924 c 0,-2.12365 -0.33256,-3.69145 -0.98818,-4.69389 -0.66038,-1.00243 -1.71032,-1.50603 -3.14984,-1.50603 -0.83616,0 -1.62956,0.15203 -2.3802,0.45134 -0.74589,0.29911 -1.40626,0.76489 -1.97637,1.39201 -0.56536,0.63187 -1.02619,1.44427 -1.36826,2.45146 -0.347,1.00244 -0.51785,2.20441 -0.51785,3.61068 v 11.68244 c -0.33256,0.062 -0.69838,0.10946 -1.1022,0.13759 -0.39908,0.0266 -0.76965,0.0429 -1.09746,0.0429 -0.33256,0 -0.70788,-0.0152 -1.12596,-0.0429 -0.41808,-0.0266 -0.7934,-0.076 -1.12121,-0.13759 v -23.04658 z"
         style="fill:#0080a7;fill-opacity:1;fill-rule:nonzero;stroke:none"
         id="path3201-7" />
      <path
         inkscape:export-ydpi="270"
         inkscape:export-xdpi="270"
         inkscape:export-filename="/home/rsk/Dropbox/desarrollo reyesoft/smsc/logotipo/path3265-8.png"
         inkscape:connector-curvature="0"
         d="m 156.71213,984.40244 c 0.8124,0.33256 1.70082,0.59386 2.67475,0.78865 0.97394,0.19497 1.93837,0.28999 2.89805,0.28999 0.68888,0 1.3445,-0.0715 1.97637,-0.22348 0.62712,-0.15203 1.17347,-0.37513 1.64381,-0.67463 0.46084,-0.29911 0.83616,-0.66512 1.12121,-1.10221 0.28505,-0.43233 0.42758,-0.92167 0.42758,-1.45852 0,-0.59861 -0.11402,-1.0927 -0.34206,-1.48228 -0.22349,-0.38957 -0.5226,-0.72213 -0.89792,-0.98818 -0.37057,-0.27099 -0.80766,-0.49885 -1.30175,-0.69838 -0.49409,-0.19498 -1.02619,-0.38008 -1.59155,-0.56061 l -1.57254,-0.58436 c -1.91936,-0.71738 -3.31612,-1.52504 -4.18079,-2.42771 -0.86941,-0.89316 -1.30174,-2.10939 -1.30174,-3.63918 0,-2.03338 0.72688,-3.64868 2.17591,-4.85066 1.45377,-1.19723 3.58692,-1.79584 6.4042,-1.79584 1.16872,0 2.31368,0.11402 3.43489,0.33751 1.12597,0.22348 2.1094,0.48934 2.94556,0.78389 -0.0619,0.59862 -0.17598,1.20198 -0.33751,1.80059 -0.16647,0.59861 -0.37057,1.14972 -0.60811,1.66281 -0.65562,-0.2421 -1.44427,-0.47509 -2.35644,-0.69838 -0.91692,-0.22348 -1.89561,-0.3375 -2.94556,-0.3375 -1.10695,0 -2.08564,0.19498 -2.9408,0.58436 -0.85041,0.38957 -1.28274,1.07845 -1.28274,2.06664 0,0.50834 0.10452,0.94542 0.31812,1.30174 0.20448,0.36107 0.49409,0.66988 0.85041,0.92167 0.36107,0.25655 0.7744,0.47034 1.23523,0.65088 0.46559,0.18053 0.96918,0.36106 1.50604,0.53685 l 1.97637,0.67462 c 0.72213,0.24211 1.40151,0.52735 2.04763,0.85516 0.64137,0.33257 1.19248,0.74114 1.66281,1.23524 0.46084,0.49884 0.83616,1.09745 1.12121,1.79583 0.28506,0.70789 0.42758,1.55355 0.42758,2.54173 0,1.10696 -0.22348,2.1189 -0.67462,3.03107 -0.45134,0.91217 -1.08796,1.69607 -1.90986,2.33744 -0.82191,0.64612 -1.81959,1.14496 -2.98831,1.50603 -1.16872,0.35613 -2.45621,0.53685 -3.86723,0.53685 -1.43477,0 -2.69375,-0.095 -3.77221,-0.28961 -1.0737,-0.19498 -2.07614,-0.46084 -3.00731,-0.78865 0.057,-0.59861 0.18509,-1.20673 0.38482,-1.81959 0.19004,-0.61287 0.40858,-1.22098 0.64612,-1.81959"
         style="fill:#0080a7;fill-opacity:1;fill-rule:nonzero;stroke:none"
         id="path3205-1" />
      <path
         inkscape:export-ydpi="270"
         inkscape:export-xdpi="270"
         inkscape:export-filename="/home/rsk/Dropbox/desarrollo reyesoft/smsc/logotipo/path3265-8.png"
         inkscape:connector-curvature="0"
         d="m 189.91661,977.75503 c -0.45133,-0.0616 -1.02144,-0.11859 -1.70557,-0.18054 -0.68888,-0.062 -1.27324,-0.0905 -1.75308,-0.0905 -1.8576,0 -3.27336,0.347 -4.2473,1.03094 -0.97393,0.68888 -1.45852,1.74358 -1.45852,3.14984 0,0.89317 0.16153,1.60105 0.49409,2.1094 0.32763,0.51309 0.73639,0.89792 1.23524,1.16872 0.49409,0.27061 1.04044,0.43708 1.63905,0.49409 0.59862,0.057 1.16872,0.0905 1.70557,0.0905 0.68888,0 1.40152,-0.038 2.13315,-0.11402 0.73639,-0.0715 1.38726,-0.18548 1.95737,-0.33751 v -7.32112 z m 0,-4.36132 c 0,-1.76733 -0.45133,-2.99306 -1.34925,-3.68194 -0.89792,-0.68888 -2.19966,-1.03095 -3.90999,-1.03095 -1.04994,0 -2.02863,0.081 -2.9408,0.24705 -0.91692,0.16153 -1.80534,0.38007 -2.67,0.65087 -0.57486,-0.98818 -0.85516,-2.17116 -0.85516,-3.54892 1.01669,-0.328 2.1379,-0.58435 3.36838,-0.76489 1.22573,-0.18053 2.4087,-0.27061 3.54892,-0.27061 2.99306,0 5.27349,0.68413 6.82703,2.04288 1.55829,1.36351 2.33744,3.54417 2.33744,6.53723 v 14.42371 c -1.04995,0.24211 -2.32319,0.48459 -3.81972,0.74114 -1.49653,0.25161 -3.02632,0.38007 -4.57986,0.38007 -1.46802,0 -2.79827,-0.13302 -3.97649,-0.40382 -1.18773,-0.271 -2.19017,-0.70314 -3.01207,-1.30175 -0.8219,-0.59861 -1.46327,-1.36351 -1.90986,-2.28993 -0.44658,-0.92642 -0.67463,-2.05238 -0.67463,-3.36838 0,-1.29224 0.26605,-2.42296 0.78865,-3.39214 0.5226,-0.97393 1.23523,-1.78158 2.13315,-2.4277 0.89792,-0.64613 1.93362,-1.12122 3.10234,-1.43953 1.16872,-0.31355 2.39445,-0.47033 3.68194,-0.47033 0.95968,0 1.74358,0.019 2.35644,0.0665 0.61287,0.0475 1.13071,0.1 1.55354,0.15697 v -0.85516 z"
         style="fill:#0080a7;fill-opacity:1;fill-rule:nonzero;stroke:none"
         id="path3209-7" />
      <path
         inkscape:export-ydpi="270"
         inkscape:export-xdpi="270"
         inkscape:export-filename="/home/rsk/Dropbox/desarrollo reyesoft/smsc/logotipo/path3265-8.png"
         inkscape:connector-curvature="0"
         d="m 200.81466,960.41283 c -0.0619,-0.41808 -0.10451,-0.81716 -0.13758,-1.19248 -0.0304,-0.37057 -0.0429,-0.72688 -0.0429,-1.0547 0,-0.33256 0.0152,-0.67937 0.0429,-1.05469 0.0342,-0.37513 0.076,-0.7554 0.13758,-1.14497 0.38958,-0.0616 0.81241,-0.11402 1.25899,-0.15659 0.44659,-0.0475 0.83616,-0.0715 1.16872,-0.0715 0.328,0 0.71263,0.0228 1.14497,0.0715 0.43233,0.0426 0.82665,0.095 1.19247,0.15659 0.057,0.38957 0.10452,0.76965 0.13302,1.14497 0.0266,0.37513 0.0426,0.72213 0.0426,1.05469 0,0.32763 -0.0152,0.68413 -0.0426,1.0547 -0.0266,0.37551 -0.076,0.7744 -0.13302,1.19248 -0.36563,0.0616 -0.76014,0.11402 -1.19247,0.15659 -0.43234,0.0475 -0.81716,0.0665 -1.14497,0.0665 -0.33256,0 -0.72213,-0.019 -1.16872,-0.0665 -0.44658,-0.043 -0.86941,-0.095 -1.25899,-0.15659 m 1.07846,8.62762 h -2.9218 c -0.0616,-0.24211 -0.10452,-0.51785 -0.13303,-0.83616 -0.0342,-0.30862 -0.0426,-0.62237 -0.0426,-0.91692 0,-0.29912 0.008,-0.60812 0.0426,-0.92168 0.0266,-0.31356 0.0715,-0.58911 0.13303,-0.8314 h 7.28312 v 24.35307 c 0,1.3445 -0.18054,2.46571 -0.54161,3.36838 -0.36106,0.89792 -0.85991,1.62481 -1.50603,2.17591 -0.64612,0.55586 -1.39676,0.95018 -2.27092,1.19248 -0.86942,0.2421 -1.81009,0.35612 -2.82679,0.35612 -1.62005,0 -2.98356,-0.19003 -4.09051,-0.58436 0.0266,-0.56535 0.10452,-1.14971 0.22804,-1.74832 0.11858,-0.60337 0.28011,-1.14022 0.49409,-1.62006 0.71739,0.24211 1.55354,0.36107 2.51322,0.36107 0.38958,0 0.7934,-0.0266 1.21148,-0.0905 0.42283,-0.057 0.8124,-0.21854 1.16872,-0.47034 0.36107,-0.25654 0.66037,-0.63662 0.90267,-1.14496 0.23298,-0.5131 0.35613,-1.21148 0.35613,-2.11415 v -20.5286 z"
         style="fill:#0080a7;fill-opacity:1;fill-rule:nonzero;stroke:none"
         id="path3213-1" />
      <path
         inkscape:export-ydpi="270"
         inkscape:export-xdpi="270"
         inkscape:export-filename="/home/rsk/Dropbox/desarrollo reyesoft/smsc/logotipo/path3265-8.png"
         inkscape:connector-curvature="0"
         d="m 228.07578,974.83463 c 0,-0.8409 -0.11402,-1.63905 -0.3375,-2.40395 -0.22349,-0.76489 -0.55111,-1.43002 -0.98344,-2.00012 -0.43708,-0.56536 -0.99294,-1.0262 -1.66756,-1.36826 -0.66988,-0.34206 -1.47278,-0.51785 -2.3992,-0.51785 -1.8291,0 -3.23061,0.55586 -4.20454,1.66282 -0.97394,1.10695 -1.5678,2.65099 -1.77209,4.62736 h 11.36414 z m -11.41164,3.32563 c 0.0616,2.51322 0.71263,4.35657 1.95736,5.52054 1.23999,1.16872 3.07383,1.75308 5.50154,1.75308 2.12365,0 4.14753,-0.37057 6.06689,-1.12122 0.23754,0.45134 0.43233,0.99769 0.58436,1.64381 0.14708,0.64137 0.23754,1.27799 0.26605,1.90511 -0.98819,0.42283 -2.07139,0.73639 -3.25437,0.94543 -1.18297,0.20904 -2.49421,0.31356 -3.92898,0.31356 -2.0999,0 -3.90049,-0.29 -5.39227,-0.87417 -1.50128,-0.58436 -2.73651,-1.41101 -3.71044,-2.47046 -0.97394,-1.0642 -1.68657,-2.32319 -2.13315,-3.77696 -0.44659,-1.44902 -0.67463,-3.04532 -0.67463,-4.78415 0,-1.70557 0.21854,-3.30187 0.65087,-4.78415 0.43233,-1.48228 1.10221,-2.76977 2.00013,-3.86247 0.89792,-1.09271 2.02863,-1.96212 3.39213,-2.60824 1.36351,-0.64612 2.96931,-0.96443 4.82691,-0.96443 1.59155,0 2.98356,0.26605 4.18079,0.80765 1.19722,0.5416 2.19966,1.27799 3.01206,2.22342 0.80765,0.94542 1.42052,2.06663 1.84335,3.37313 0.41808,1.30174 0.62712,2.71276 0.62712,4.24255 0,0.42283 -0.019,0.85991 -0.0426,1.3255 -0.0342,0.46558 -0.0619,0.86466 -0.0905,1.19247 h -15.68269 z"
         style="fill:#0080a7;fill-opacity:1;fill-rule:nonzero;stroke:none"
         id="path3217-2" />
      <path
         inkscape:export-ydpi="270"
         inkscape:export-xdpi="270"
         inkscape:export-filename="/home/rsk/Dropbox/desarrollo reyesoft/smsc/logotipo/path3265-8.png"
         inkscape:connector-curvature="0"
         d="m 237.64788,984.40244 c 0.8124,0.33256 1.70082,0.59386 2.67475,0.78865 0.97393,0.19497 1.93836,0.28999 2.89804,0.28999 0.68888,0 1.34451,-0.0715 1.97637,-0.22348 0.62712,-0.15203 1.17347,-0.37513 1.64381,-0.67463 0.46084,-0.29911 0.83616,-0.66512 1.12121,-1.10221 0.28506,-0.43233 0.42758,-0.92167 0.42758,-1.45852 0,-0.59861 -0.11402,-1.0927 -0.34206,-1.48228 -0.22348,-0.38957 -0.5226,-0.72213 -0.89792,-0.98818 -0.37057,-0.27099 -0.80765,-0.49885 -1.30174,-0.69838 -0.4941,-0.19498 -1.0262,-0.38008 -1.59155,-0.56061 l -1.57255,-0.58436 c -1.91936,-0.71738 -3.31137,-1.52504 -4.18078,-2.42771 -0.86942,-0.89316 -1.30175,-2.10939 -1.30175,-3.63918 0,-2.03338 0.72689,-3.64868 2.17591,-4.85066 1.45377,-1.19723 3.58692,-1.79584 6.4042,-1.79584 1.16872,0 2.31369,0.11402 3.4349,0.33751 1.12596,0.22348 2.1094,0.48934 2.94555,0.78389 -0.0616,0.59862 -0.17559,1.20198 -0.33712,1.80059 -0.16647,0.59861 -0.37057,1.14972 -0.60812,1.66281 -0.65562,-0.2421 -1.44427,-0.47509 -2.35644,-0.69838 -0.91692,-0.22348 -1.8956,-0.3375 -2.94555,-0.3375 -1.10696,0 -2.08564,0.19498 -2.9408,0.58436 -0.85041,0.38957 -1.28274,1.07845 -1.28274,2.06664 0,0.50834 0.10452,0.94542 0.3185,1.30174 0.20447,0.36107 0.49409,0.66988 0.85041,0.92167 0.36106,0.25655 0.77439,0.47034 1.23523,0.65088 0.46558,0.18053 0.96918,0.36106 1.50603,0.53685 l 1.97637,0.67462 c 0.72214,0.24211 1.40151,0.52735 2.04764,0.85516 0.64137,0.33257 1.19247,0.74114 1.66281,1.23524 0.46083,0.49884 0.83616,1.09745 1.12121,1.79583 0.28505,0.70789 0.42758,1.55355 0.42758,2.54173 0,1.10696 -0.22348,2.1189 -0.67463,3.03107 -0.45133,0.91217 -1.08795,1.69607 -1.90986,2.33744 -0.8219,0.64612 -1.81959,1.14496 -2.98831,1.50603 -1.16872,0.35613 -2.45621,0.53685 -3.86722,0.53685 -1.43477,0 -2.69376,-0.095 -3.77221,-0.28961 -1.0737,-0.19498 -2.07614,-0.46084 -3.00732,-0.78865 0.057,-0.59861 0.1851,-1.20673 0.38483,-1.81959 0.19003,-0.61287 0.40857,-1.22098 0.64612,-1.81959"
         style="fill:#0080a7;fill-opacity:1;fill-rule:nonzero;stroke:none"
         id="path3221-3" />
      <path
         inkscape:export-ydpi="270"
         inkscape:export-xdpi="270"
         inkscape:export-filename="/home/rsk/Dropbox/desarrollo reyesoft/smsc/logotipo/path3265-8.png"
         inkscape:connector-curvature="0"
         d="m 284.50878,984.58347 c 0.2421,0.41807 0.44658,0.94067 0.62711,1.57254 0.1851,0.62712 0.28506,1.27324 0.31356,1.93361 -1.76733,0.68888 -3.78646,1.03095 -6.06213,1.03095 -3.83397,0 -6.72252,-1.08321 -8.67038,-3.25436 -1.94787,-2.17116 -2.9218,-5.10246 -2.9218,-8.7844 0,-1.71032 0.2421,-3.29712 0.72213,-4.76515 0.47509,-1.46327 1.18773,-2.74126 2.13315,-3.81496 0.94543,-1.07846 2.11415,-1.93362 3.52517,-2.56549 1.41101,-0.62711 3.04057,-0.94067 4.89817,-0.94067 1.25423,0 2.36594,0.076 3.32562,0.22348 0.95493,0.14709 1.8671,0.38957 2.73651,0.71738 0,0.5131 -0.0665,1.10221 -0.19953,1.77684 -0.13303,0.67462 -0.32306,1.26373 -0.56536,1.77208 -1.46327,-0.50835 -3.14034,-0.76489 -5.02644,-0.76489 -2.30894,0 -4.02876,0.76489 -5.16897,2.29468 -1.14022,1.52978 -1.70557,3.54891 -1.70557,6.06689 0,2.87429 0.64137,4.97893 1.93361,6.30918 1.28274,1.335 3.05007,2.00488 5.29724,2.00488 0.89792,0 1.72933,-0.0616 2.49422,-0.18054 0.7649,-0.12352 1.53454,-0.33256 2.31369,-0.63186"
         style="fill:#0080a7;fill-opacity:1;fill-rule:nonzero;stroke:none"
         id="path3225-5" />
      <path
         inkscape:export-ydpi="270"
         inkscape:export-xdpi="270"
         inkscape:export-filename="/home/rsk/Dropbox/desarrollo reyesoft/smsc/logotipo/path3265-8.png"
         inkscape:connector-curvature="0"
         d="m 299.23605,985.5707 c 2.06664,0 3.59167,-0.74589 4.58461,-2.24717 0.98343,-1.49653 1.47753,-3.57742 1.47753,-6.24267 0,-2.66525 -0.4941,-4.74139 -1.47753,-6.22367 -0.99294,-1.48228 -2.51797,-2.22342 -4.58461,-2.22342 -2.06664,0 -3.58692,0.74114 -4.56561,2.22342 -0.96918,1.48228 -1.45852,3.55842 -1.45852,6.22367 0,2.66525 0.48934,4.74614 1.45852,6.24267 0.97869,1.50128 2.49897,2.24717 4.56561,2.24717 m 0,3.54892 c -1.79584,0 -3.37313,-0.309 -4.71764,-0.91692 -1.34925,-0.61762 -2.47046,-1.46328 -3.36838,-2.54173 -0.90267,-1.07845 -1.56779,-2.35169 -2.00013,-3.81497 -0.43708,-1.47278 -0.65562,-3.05957 -0.65562,-4.76514 0,-1.70557 0.21854,-3.29237 0.65562,-4.76515 0.43234,-1.46327 1.09746,-2.73651 2.00013,-3.81497 0.89792,-1.07845 2.01913,-1.93361 3.36838,-2.56548 1.34451,-0.62711 2.9218,-0.94067 4.71764,-0.94067 1.79584,0 3.36838,0.31356 4.71288,0.94067 1.34926,0.63187 2.47522,1.48703 3.37314,2.56548 0.89792,1.07846 1.56304,2.3517 2.00012,3.81497 0.43233,1.47278 0.65088,3.05958 0.65088,4.76515 0,1.70557 -0.21855,3.29236 -0.65088,4.76514 -0.43708,1.46328 -1.1022,2.73652 -2.00012,3.81497 -0.89792,1.07845 -2.02388,1.92411 -3.37314,2.54173 -1.3445,0.60811 -2.91704,0.91692 -4.71288,0.91692"
         style="fill:#0080a7;fill-opacity:1;fill-rule:nonzero;stroke:none"
         id="path3229-8" />
      <path
         inkscape:export-ydpi="270"
         inkscape:export-xdpi="270"
         inkscape:export-filename="/home/rsk/Dropbox/desarrollo reyesoft/smsc/logotipo/path3265-8.png"
         inkscape:connector-curvature="0"
         d="m 315.66653,965.53383 c 0.32801,-0.062 0.65088,-0.10452 0.96444,-0.13758 0.3185,-0.0266 0.63662,-0.043 0.96443,-0.043 0.33256,0 0.63662,0.0152 0.92167,0.043 0.28505,0.0342 0.59386,0.076 0.92167,0.13758 0.0901,0.44659 0.18054,1.04045 0.27061,1.77684 0.0905,0.73163 0.13797,1.354 0.13797,1.86235 0.26605,-0.53686 0.60336,-1.0547 1.00719,-1.55355 0.40382,-0.48934 0.88367,-0.93117 1.43477,-1.32074 0.55585,-0.38958 1.19247,-0.70314 1.91461,-0.94543 0.71738,-0.23755 1.51078,-0.35613 2.3802,-0.35613 1.79583,0 3.17834,0.36601 4.15703,1.09746 0.97393,0.73639 1.71507,1.76258 2.22341,3.07858 0.29912,-0.50835 0.66513,-1.0167 1.09746,-1.52979 0.43708,-0.50835 0.92167,-0.95493 1.45852,-1.3445 0.54161,-0.38958 1.15447,-0.70314 1.84335,-0.94543 0.68888,-0.23755 1.46803,-0.35613 2.33744,-0.35613 2.66525,0 4.60361,0.74589 5.81984,2.24242 1.21148,1.50128 1.81959,3.7152 1.81959,6.65125 v 14.68976 c -0.33256,0.0619 -0.70313,0.10946 -1.12121,0.13759 -0.42283,0.0266 -0.79815,0.0429 -1.12596,0.0429 -0.33256,0 -0.69838,-0.0152 -1.09745,-0.0429 -0.40858,-0.0266 -0.7744,-0.076 -1.10221,-0.13759 v -13.38801 c 0,-2.06664 -0.3185,-3.61543 -0.94543,-4.65113 -0.63187,-1.03094 -1.66281,-1.54879 -3.09758,-1.54879 -1.52979,0 -2.76502,0.55586 -3.71045,1.66281 -0.94067,1.10696 -1.41576,2.74127 -1.41576,4.89817 v 13.02695 c -0.32763,0.0619 -0.69363,0.10946 -1.10221,0.13759 -0.39908,0.0266 -0.76489,0.0429 -1.09746,0.0429 -0.32762,0 -0.69838,-0.0152 -1.1022,-0.0429 -0.40383,-0.0266 -0.76965,-0.076 -1.09746,-0.13759 v -13.70157 c 0,-2.00963 -0.29912,-3.51091 -0.89792,-4.51335 -0.59861,-1.00719 -1.56304,-1.50603 -2.87429,-1.50603 -0.75064,0 -1.45852,0.16609 -2.11415,0.49409 -0.66037,0.328 -1.23998,0.8219 -1.72932,1.48228 -0.49409,0.66037 -0.88367,1.48703 -1.16872,2.48946 -0.28505,1.00719 -0.42758,2.16641 -0.42758,3.48241 v 11.77271 c -0.33256,0.0619 -0.69838,0.10946 -1.10221,0.13759 -0.40382,0.0266 -0.76964,0.0429 -1.09745,0.0429 -0.33257,0 -0.70789,-0.0152 -1.12596,-0.0429 -0.41808,-0.0266 -0.7934,-0.076 -1.12122,-0.13759 v -23.04658 z"
         style="fill:#0080a7;fill-opacity:1;fill-rule:nonzero;stroke:none"
         id="path3233-5" />
      <path
         inkscape:export-ydpi="270"
         inkscape:export-xdpi="270"
         inkscape:export-filename="/home/rsk/Dropbox/desarrollo reyesoft/smsc/logotipo/path3265-8.png"
         inkscape:connector-curvature="0"
         d="m 358.37846,984.80961 c 0.57011,0.20904 1.15447,0.35612 1.75308,0.44658 0.59861,0.0905 1.37776,0.13759 2.33744,0.13759 1.0737,0 2.06189,-0.1756 2.96456,-0.5226 0.89792,-0.34206 1.66756,-0.87416 2.31368,-1.59155 0.64612,-0.72214 1.15447,-1.6248 1.52504,-2.71751 0.37513,-1.09271 0.5606,-2.3897 0.5606,-3.88623 0,-2.39445 -0.43708,-4.29956 -1.32074,-5.70582 -0.88367,-1.40627 -2.33269,-2.11415 -4.33757,-2.11415 -0.75064,0 -1.46802,0.13759 -2.1569,0.40858 -0.68888,0.26605 -1.30175,0.66987 -1.84335,1.21148 -0.53685,0.53685 -0.96918,1.22098 -1.30174,2.04288 -0.32763,0.82665 -0.4941,1.80534 -0.4941,2.94555 v 9.34501 z m -4.44683,-19.27437 c 0.29911,-0.062 0.60811,-0.10946 0.92167,-0.13759 0.31356,-0.0304 0.63662,-0.0429 0.96443,-0.0429 0.29912,0 0.61287,0.0152 0.94543,0.0429 0.32762,0.0266 0.64137,0.076 0.94068,0.13759 0.0266,0.057 0.0665,0.24704 0.11402,0.5606 0.0426,0.31356 0.0901,0.65088 0.13302,1.00719 0.0475,0.36563 0.0901,0.70789 0.13759,1.0357 0.0429,0.33256 0.0665,0.5416 0.0665,0.62711 0.29912,-0.47508 0.65562,-0.94067 1.07845,-1.38726 0.41808,-0.45133 0.92168,-0.85516 1.50604,-1.21622 0.5796,-0.35613 1.23998,-0.64137 1.97637,-0.85516 0.73163,-0.20448 1.54879,-0.31356 2.44671,-0.31356 1.34925,0 2.59873,0.22804 3.7532,0.67462 1.15447,0.45134 2.1379,1.14497 2.96456,2.0904 0.8219,0.94067 1.46802,2.1379 1.92886,3.59167 0.46559,1.45377 0.69838,3.16885 0.69838,5.14522 0,3.95274 -1.06895,7.04557 -3.2116,9.27849 -2.14265,2.23292 -5.17372,3.34463 -9.09796,3.34463 -0.65562,0 -1.33025,-0.0426 -2.02388,-0.13303 -0.68888,-0.0901 -1.28749,-0.20904 -1.79584,-0.35612 V 999.186 c -0.35612,0.057 -0.74114,0.10452 -1.14496,0.13302 -0.40383,0.0304 -0.7744,0.043 -1.10221,0.043 -0.33256,0 -0.69838,-0.0152 -1.09746,-0.043 -0.40382,-0.0266 -0.77439,-0.076 -1.1022,-0.13302 v -33.65057 z"
         style="fill:#0080a7;fill-opacity:1;fill-rule:nonzero;stroke:none"
         id="path3237-2" />
      <path
         inkscape:export-ydpi="270"
         inkscape:export-xdpi="270"
         inkscape:export-filename="/home/rsk/Dropbox/desarrollo reyesoft/smsc/logotipo/path3265-8.png"
         inkscape:connector-curvature="0"
         d="m 392.52503,977.75503 c -0.45134,-0.0616 -1.02145,-0.11859 -1.70558,-0.18054 -0.68887,-0.062 -1.27323,-0.0905 -1.75307,-0.0905 -1.8576,0 -3.27337,0.347 -4.2473,1.03094 -0.97393,0.68888 -1.45853,1.74358 -1.45853,3.14984 0,0.89317 0.16153,1.60105 0.4941,2.1094 0.32762,0.51309 0.73639,0.89792 1.23523,1.16872 0.49409,0.27061 1.04044,0.43708 1.63906,0.49409 0.59861,0.057 1.16872,0.0905 1.70557,0.0905 0.68888,0 1.40151,-0.038 2.13315,-0.11402 0.73639,-0.0715 1.38726,-0.18548 1.95737,-0.33751 v -7.32112 z m 0,-4.36132 c 0,-1.76733 -0.45134,-2.99306 -1.34926,-3.68194 -0.89792,-0.68888 -2.19966,-1.03095 -3.90998,-1.03095 -1.04995,0 -2.02863,0.081 -2.9408,0.24705 -0.91693,0.16153 -1.80534,0.38007 -2.67001,0.65087 -0.57485,-0.98818 -0.85516,-2.17116 -0.85516,-3.54892 1.01669,-0.328 2.1379,-0.58435 3.36839,-0.76489 1.22573,-0.18053 2.4087,-0.27061 3.54891,-0.27061 2.99306,0 5.27349,0.68413 6.82703,2.04288 1.5583,1.36351 2.33744,3.54417 2.33744,6.53723 v 14.42371 c -1.04994,0.24211 -2.32318,0.48459 -3.81971,0.74114 -1.49653,0.25161 -3.02632,0.38007 -4.57986,0.38007 -1.46803,0 -2.79828,-0.13302 -3.9765,-0.40382 -1.18772,-0.271 -2.19016,-0.70314 -3.01207,-1.30175 -0.8219,-0.59861 -1.46327,-1.36351 -1.90986,-2.28993 -0.44658,-0.92642 -0.67462,-2.05238 -0.67462,-3.36838 0,-1.29224 0.26605,-2.42296 0.78865,-3.39214 0.52259,-0.97393 1.23523,-1.78158 2.13315,-2.4277 0.89792,-0.64613 1.93361,-1.12122 3.10233,-1.43953 1.16872,-0.31355 2.39445,-0.47033 3.68194,-0.47033 0.95968,0 1.74358,0.019 2.35644,0.0665 0.61287,0.0475 1.13072,0.1 1.55355,0.15697 v -0.85516 z"
         style="fill:#0080a7;fill-opacity:1;fill-rule:nonzero;stroke:none"
         id="path3241-1" />
      <path
         inkscape:export-ydpi="270"
         inkscape:export-xdpi="270"
         inkscape:export-filename="/home/rsk/Dropbox/desarrollo reyesoft/smsc/logotipo/path3265-8.png"
         inkscape:connector-curvature="0"
         d="m 403.47967,965.53383 c 0.328,-0.062 0.64612,-0.10452 0.94068,-0.13758 0.29911,-0.0266 0.61761,-0.043 0.94542,-0.043 0.32763,0 0.65563,0.0152 0.98819,0.043 0.328,0.0342 0.63187,0.076 0.89792,0.13758 0.0901,0.44659 0.18053,1.04045 0.27061,1.77684 0.0905,0.73163 0.13759,1.354 0.13759,1.86235 0.62236,-1.0167 1.45852,-1.90036 2.48946,-2.651 1.03095,-0.74589 2.3612,-1.12596 3.9765,-1.12596 0.24249,0 0.48459,0.008 0.74114,0.0228 0.25161,0.0152 0.47034,0.038 0.65087,0.0665 0.062,0.27555 0.10946,0.55586 0.13759,0.85991 0.0228,0.29456 0.043,0.61287 0.043,0.94068 0,0.35613 -0.019,0.73639 -0.0665,1.12121 -0.0426,0.38957 -0.1,0.76489 -0.15659,1.12596 -0.2421,-0.062 -0.48934,-0.0905 -0.74114,-0.0905 h -0.60811 c -0.80765,0 -1.58205,0.10946 -2.31368,0.3375 -0.73639,0.22348 -1.39202,0.62237 -1.97638,1.19247 -0.58436,0.56536 -1.04994,1.34451 -1.39201,2.33269 -0.347,0.98819 -0.51784,2.26143 -0.51784,3.81972 v 11.4544 c -0.33257,0.062 -0.69839,0.10946 -1.10221,0.13759 -0.39908,0.0266 -0.76965,0.0429 -1.09746,0.0429 -0.33256,0 -0.69838,-0.0152 -1.1022,-0.0429 -0.40858,-0.0266 -0.78865,-0.076 -1.14497,-0.13759 v -23.04658 z"
         style="fill:#0080a7;fill-opacity:1;fill-rule:nonzero;stroke:none"
         id="path3245-6" />
      <path
         inkscape:export-ydpi="270"
         inkscape:export-xdpi="270"
         inkscape:export-filename="/home/rsk/Dropbox/desarrollo reyesoft/smsc/logotipo/path3265-8.png"
         inkscape:connector-curvature="0"
         d="m 422.49939,969.08415 h -3.50616 l -0.17597,-0.63186 7.72495,-8.62287 h 0.36107 v 5.70582 h 5.8436 c 0.11402,0.50834 0.17559,1.07845 0.17559,1.70557 0,0.33256 -0.0152,0.64612 -0.0426,0.94067 -0.0342,0.30406 -0.076,0.60337 -0.13302,0.90267 h -5.8436 v 10.51373 c 0,1.25423 0.0525,2.26142 0.15697,3.00731 0.10452,0.75064 0.28505,1.3255 0.53685,1.72933 0.25655,0.40858 0.59861,0.67463 1.03566,0.8124 0.43712,0.13303 0.98347,0.19954 1.63909,0.19954 0.50835,0 0.98819,-0.0342 1.43948,-0.10946 0.45138,-0.076 0.8552,-0.16153 1.21152,-0.25161 0.20904,0.59861 0.3375,1.21623 0.38482,1.84335 0.0429,0.63187 0.0619,1.18297 0.0619,1.66281 -0.59861,0.15203 -1.22576,0.26605 -1.88139,0.3375 -0.66037,0.076 -1.3635,0.10946 -2.11414,0.10946 -2.15691,0 -3.83873,-0.52259 -5.05492,-1.56779 -1.21151,-1.04995 -1.81963,-2.78877 -1.81963,-5.21173 v -13.07446 z"
         style="fill:#0080a7;fill-opacity:1;fill-rule:nonzero;stroke:none"
         id="path3249-7" />
      <path
         inkscape:export-ydpi="270"
         inkscape:export-xdpi="270"
         inkscape:export-filename="/home/rsk/Dropbox/desarrollo reyesoft/smsc/logotipo/path3265-8.png"
         inkscape:connector-curvature="0"
         d="m 438.86952,960.45794 c -0.0616,-0.36107 -0.0996,-0.75064 -0.11402,-1.16872 -0.0152,-0.41808 -0.0228,-0.7934 -0.0228,-1.12121 0,-0.33256 0.008,-0.70788 0.0228,-1.12596 0.0152,-0.41808 0.0524,-0.7934 0.11402,-1.12121 0.38958,-0.0619 0.81241,-0.10452 1.25899,-0.13759 0.44658,-0.0304 0.83616,-0.043 1.16872,-0.043 0.328,0 0.71738,0.0152 1.16872,0.043 0.44658,0.0342 0.85041,0.076 1.21148,0.13759 0.0616,0.328 0.0999,0.70313 0.11402,1.12121 0.0152,0.41808 0.0228,0.7934 0.0228,1.12596 0,0.32762 -0.008,0.70313 -0.0228,1.12121 -0.0152,0.41808 -0.0524,0.80765 -0.11402,1.16872 -0.36107,0.0616 -0.7554,0.10452 -1.19248,0.13759 -0.43233,0.0266 -0.81715,0.038 -1.14496,0.038 -0.36107,0 -0.7649,-0.008 -1.21148,-0.038 -0.44658,-0.0342 -0.86941,-0.076 -1.25899,-0.13759 m 0.98819,8.58011 h -2.9218 c -0.0616,-0.2421 -0.1,-0.51785 -0.13303,-0.8314 -0.0266,-0.31356 -0.0426,-0.62237 -0.0426,-0.92168 0,-0.29455 0.0152,-0.60336 0.0426,-0.91692 0.0342,-0.3185 0.0715,-0.59386 0.13303,-0.83616 h 7.28312 v 23.05133 c -0.33256,0.057 -0.69838,0.10452 -1.10221,0.13303 -0.40858,0.0342 -0.77439,0.0475 -1.10221,0.0475 -0.29949,0 -0.65087,-0.0152 -1.05469,-0.0475 -0.40383,-0.0266 -0.76965,-0.076 -1.10221,-0.13303 z"
         style="fill:#0080a7;fill-opacity:1;fill-rule:nonzero;stroke:none"
         id="path3253-6" />
      <path
         inkscape:export-ydpi="270"
         inkscape:export-xdpi="270"
         inkscape:export-filename="/home/rsk/Dropbox/desarrollo reyesoft/smsc/logotipo/path3265-8.png"
         inkscape:connector-curvature="0"
         d="m 466.04417,969.44188 c -0.59861,-0.23755 -1.24473,-0.41808 -1.93365,-0.53685 -0.68413,-0.12353 -1.43477,-0.18054 -2.24717,-0.18054 -1.22573,0 -2.28993,0.2231 -3.18785,0.66988 -0.89792,0.45133 -1.63902,1.0642 -2.22338,1.84334 -0.5844,0.7839 -1.02148,1.70082 -1.30175,2.76502 -0.28505,1.0642 -0.42758,2.22342 -0.42758,3.48241 0.0342,2.84578 0.70314,4.88392 2.01913,6.10965 1.32071,1.23048 3.11659,1.83859 5.39227,1.83859 0.7791,0 1.49653,-0.0342 2.1569,-0.10946 0.66034,-0.0711 1.2447,-0.18509 1.75308,-0.3375 V 969.4415 Z m 0,-13.79184 c 0.32762,-0.0616 0.70313,-0.10452 1.12121,-0.13759 0.41808,-0.0228 0.7839,-0.0426 1.07845,-0.0426 0.33257,0 0.69835,0.019 1.10221,0.0426 0.40858,0.0342 0.76965,0.076 1.09746,0.13759 v 32.30131 c -1.1355,0.33257 -2.40395,0.60812 -3.81497,0.83616 -1.41101,0.21854 -2.97881,0.33256 -4.71764,0.33256 -1.6153,0 -3.14984,-0.2041 -4.60361,-0.60811 -1.45377,-0.39908 -2.71755,-1.06895 -3.796,-1.99538 -1.07845,-0.93117 -1.93358,-2.1284 -2.56544,-3.59642 -0.62712,-1.46803 -0.94068,-3.27812 -0.94068,-5.43502 0,-1.8576 0.27555,-3.55367 0.8314,-5.07871 0.55111,-1.52503 1.33976,-2.83628 2.35645,-3.92898 1.0214,-1.09271 2.23767,-1.94312 3.66294,-2.54173 1.42051,-0.59861 3.00256,-0.89317 4.74139,-0.89317 0.77439,0 1.56304,0.057 2.36119,0.18054 0.78865,0.11402 1.48703,0.26605 2.08564,0.44658 z"
         style="fill:#0080a7;fill-opacity:1;fill-rule:nonzero;stroke:none"
         id="path3257-6" />
      <path
         inkscape:export-ydpi="270"
         inkscape:export-xdpi="270"
         inkscape:export-filename="/home/rsk/Dropbox/desarrollo reyesoft/smsc/logotipo/path3265-8.png"
         inkscape:connector-curvature="0"
         d="m 486.86114,985.5707 c 2.06663,0 3.59167,-0.74589 4.58461,-2.24717 0.98343,-1.49653 1.47752,-3.57742 1.47752,-6.24267 0,-2.66525 -0.49409,-4.74139 -1.47752,-6.22367 -0.99294,-1.48228 -2.51798,-2.22342 -4.58461,-2.22342 -2.06664,0 -3.58693,0.74114 -4.56561,2.22342 -0.96918,1.48228 -1.45853,3.55842 -1.45853,6.22367 0,2.66525 0.48935,4.74614 1.45853,6.24267 0.97868,1.50128 2.49897,2.24717 4.56561,2.24717 m 0,3.54892 c -1.79584,0 -3.37314,-0.309 -4.71764,-0.91692 -1.34925,-0.61762 -2.47046,-1.46328 -3.36838,-2.54173 -0.90267,-1.07845 -1.5678,-2.35169 -2.00013,-3.81497 -0.43708,-1.47278 -0.65562,-3.05957 -0.65562,-4.76514 0,-1.70557 0.21854,-3.29237 0.65562,-4.76515 0.43233,-1.46327 1.09746,-2.73651 2.00013,-3.81497 0.89792,-1.07845 2.01913,-1.93361 3.36838,-2.56548 1.3445,-0.62711 2.9218,-0.94067 4.71764,-0.94067 1.79583,0 3.36838,0.31356 4.71288,0.94067 1.34925,0.63187 2.47522,1.48703 3.37313,2.56548 0.89792,1.07846 1.56305,2.3517 2.00013,3.81497 0.43233,1.47278 0.65087,3.05958 0.65087,4.76515 0,1.70557 -0.21854,3.29236 -0.65087,4.76514 -0.43708,1.46328 -1.10221,2.73652 -2.00013,3.81497 -0.89791,1.07845 -2.02388,1.92411 -3.37313,2.54173 -1.3445,0.60811 -2.91705,0.91692 -4.71288,0.91692"
         style="fill:#0080a7;fill-opacity:1;fill-rule:nonzero;stroke:none"
         id="path3261-7" />
      <path
         inkscape:export-ydpi="270"
         inkscape:export-xdpi="270"
         inkscape:connector-curvature="0"
         d="m 502.655,984.40244 c 0.81241,0.33256 1.70082,0.59386 2.67475,0.78865 0.97394,0.19497 1.93837,0.28999 2.89805,0.28999 0.68888,0 1.3445,-0.0715 1.97637,-0.22348 0.62712,-0.15203 1.17347,-0.37513 1.64381,-0.67463 0.46084,-0.29911 0.83616,-0.66512 1.12121,-1.10221 0.28505,-0.43233 0.42758,-0.92167 0.42758,-1.45852 0,-0.59861 -0.11402,-1.0927 -0.34206,-1.48228 -0.22349,-0.38957 -0.5226,-0.72213 -0.89792,-0.98818 -0.37057,-0.27099 -0.80765,-0.49885 -1.30175,-0.69838 -0.49409,-0.19498 -1.02619,-0.38008 -1.59155,-0.56061 l -1.57254,-0.58436 c -1.91936,-0.71738 -3.31612,-1.52504 -4.18079,-2.42771 -0.86941,-0.89316 -1.30174,-2.10939 -1.30174,-3.63918 0,-2.03338 0.72689,-3.64868 2.17591,-4.85066 1.45377,-1.19723 3.58692,-1.79584 6.4042,-1.79584 1.16872,0 2.31368,0.11402 3.4349,0.33751 1.12596,0.22348 2.10939,0.48934 2.94555,0.78389 -0.062,0.59862 -0.17597,1.20198 -0.33751,1.80059 -0.16647,0.59861 -0.37056,1.14972 -0.60811,1.66281 -0.65562,-0.2421 -1.44427,-0.47509 -2.35644,-0.69838 -0.91692,-0.22348 -1.89561,-0.3375 -2.94556,-0.3375 -1.10695,0 -2.08564,0.19498 -2.9408,0.58436 -0.85041,0.38957 -1.28274,1.07845 -1.28274,2.06664 0,0.50834 0.10452,0.94542 0.31812,1.30174 0.20448,0.36107 0.49409,0.66988 0.85041,0.92167 0.36107,0.25655 0.7744,0.47034 1.23523,0.65088 0.46559,0.18053 0.96919,0.36106 1.50604,0.53685 l 1.97637,0.67462 c 0.72213,0.24211 1.40151,0.52735 2.04763,0.85516 0.64137,0.33257 1.19248,0.74114 1.66281,1.23524 0.46084,0.49884 0.83616,1.09745 1.12121,1.79583 0.28506,0.70789 0.42758,1.55355 0.42758,2.54173 0,1.10696 -0.22348,2.1189 -0.67462,3.03107 -0.45134,0.91217 -1.08796,1.69607 -1.90986,2.33744 -0.8219,0.64612 -1.81959,1.14496 -2.98831,1.50603 -1.16872,0.35613 -2.45621,0.53685 -3.86723,0.53685 -1.43477,0 -2.69375,-0.095 -3.77221,-0.28961 -1.0737,-0.19498 -2.07614,-0.46084 -3.00731,-0.78865 0.057,-0.59861 0.18509,-1.20673 0.38482,-1.81959 0.19004,-0.61287 0.40858,-1.22098 0.64612,-1.81959"
         style="fill:#0080a7;fill-opacity:1;fill-rule:nonzero;stroke:none"
         id="path3265-8" />
    </g>
  </g>
</svg>
