<?xml version="1.0" encoding="utf-8"?>
<!-- Generator: Adobe Illustrator 18.0.0, SVG Export Plug-In . SVG Version: 6.00 Build 0)  -->
<!DOCTYPE svg PUBLIC "-//W3C//DTD SVG 1.1//EN" "http://www.w3.org/Graphics/SVG/1.1/DTD/svg11.dtd">
<svg version="1.1" id="Capa_1" xmlns="http://www.w3.org/2000/svg" xmlns:xlink="http://www.w3.org/1999/xlink" x="0px" y="0px"
	 viewBox="0 0 1403 231.5" enable-background="new 0 0 1403 231.5" xml:space="preserve">
<rect x="-704.2" y="3058.3" fill="#424A60" width="1403" height="231.5"/>
<rect x="707.8" y="3058.3" fill="#424A60" width="1403" height="231.5"/>
<rect x="-778.1" y="813.2" fill="#424A60" width="1403" height="231.5"/>
<g>
	<g>
		<path fill="#424A60" d="M400.2,547.2h-11.2l-9.3-64.3l-27.1,66.6l-2.9,0l-26.5-66.9l-10.1,64.6l-10.5,0l16.9-87.5h3.6l29.1,70.8
			l28.5-70.8h3.6L400.2,547.2z"/>
		<path fill="#424A60" d="M500.5,462.1l-0.2,58c0,5.1-1.4,9.9-4.3,14.5c-2.8,4.6-6.5,8.1-11,10.5c-6.3,2.8-12.8,4.3-19.6,4.3
			c-6.7,0-12.8-1.5-18.2-4.5c-5.4-3-8.9-6.5-10.7-10.5c-1.8-4-2.9-7.1-3.4-9.1c-0.5-2.1-0.7-3.9-0.7-5.6v-57.5h10.2v57.5
			c0.5,4,1.7,7.6,3.5,10.8c1.8,3.2,4.3,5.6,7.6,7.2c4.3,1.8,8.6,2.8,13,2.8c3.4,0,6.6-0.6,9.5-1.7c2.9-1.1,5.4-2.8,7.4-5.1
			c2-2.3,3.6-4.6,4.7-6.8c1.1-2.3,1.7-4.6,1.7-7.1v-0.9v-56.6H500.5z"/>
		<path fill="#424A60" d="M599.9,547.2h-42v-85.1h10.6V538h31.4V547.2z"/>
		<path fill="#424A60" d="M725.1,471.1h-24.5v76.1H690v-76.1h-24.5v-9h59.6V471.1z"/>
		<path fill="#424A60" d="M815.3,547.2h-10v-85.1h10V547.2z"/>
		<path fill="#424A60" d="M963.8,549h-2.1l-62.1-68.3v66.5h-9.5V460l2.4,0l61.5,68.4v-66.3h9.8V549z"/>
		<path fill="#424A60" d="M1062.7,547.2h-46.2v-85.1h46.2v9.2h-36v25.2h36v8.7h-36V538h36V547.2z"/>
		<path fill="#424A60" d="M1189.4,547.2l-12.7,0l-21.3-36.8l-20.2,36.8l-11.8,0l26.7-44.7l-25.4-40.4l12.8,0l18.6,32.1l18.5-32.1
			l11.6,0l-24.4,40.4L1189.4,547.2z"/>
		<path fill="#424A60" d="M1317.6,504c0,12.6-4.4,23.3-13.3,32.2c-8.9,8.9-19.6,13.3-32.1,13.3c-12.7,0-23.7-4.3-32.8-12.8
			c-9.2-8.6-13.7-19.1-13.7-31.5c0-12.6,4.4-23.3,13.3-32.2c8.9-8.9,19.6-13.3,32.1-13.3c12.7,0,23.7,4.3,32.8,12.8
			C1313,481.1,1317.6,491.6,1317.6,504z M1307,503.8c0-9.8-3.5-18-10.6-24.8c-7.1-6.8-15.5-10.1-25.4-10.1c-9.7,0-18,3.5-24.7,10.6
			c-6.7,7.1-10.1,15.6-10.1,25.5c0,9.8,3.5,18,10.5,24.7c7,6.7,15.5,10.1,25.5,10.1c9.7,0,18-3.5,24.7-10.6
			C1303.6,522.1,1307,513.6,1307,503.8z"/>
	</g>
	<g>
		<g>
			<polygon fill="none" stroke="#424A60" stroke-width="18" stroke-miterlimit="10" points="237.9,560.6 204.3,447.8 109.9,473.7 
				108.8,562.4 			"/>
			<g>
				<circle fill="#FFC145" cx="108.8" cy="562.4" r="23.4"/>
			</g>
			<g>
				<circle fill="#5CCC5C" cx="109.9" cy="473.7" r="22.5"/>
			</g>
			<g>
				<circle fill="#1FAFFF" cx="237.9" cy="560.6" r="25.2"/>
			</g>
			<g>
				<circle fill="#FF6666" cx="204.3" cy="447.8" r="22.1"/>
			</g>
		</g>
	</g>
</g>
<rect x="781.8" y="813.2" fill="#424A60" width="1403" height="231.5"/>
<g>
	<g>
		<g>
			<g>
				<path fill="#EDEDED" d="M1227.7,996.8h-159.2l4.9-109.8l113.2-29.4L1227.7,996.8z M1090.9,975.4h108.2l-27.1-92l-77.9,20.2
					L1090.9,975.4z"/>
			</g>
			<g>
				<circle fill="#FFC145" cx="1082.3" cy="985.6" r="23.4"/>
			</g>
			<g>
				<circle fill="#5CCC5C" cx="1083.4" cy="896.9" r="22.5"/>
			</g>
			<g>
				<circle fill="#1FAFFF" cx="1211.4" cy="983.8" r="25.2"/>
			</g>
			<g>
				<circle fill="#FF6666" cx="1177.7" cy="871" r="22.1"/>
			</g>
		</g>
	</g>
	<g>
		<path fill="#EDEDED" d="M1316.3,887.3l20.8,60.2h0.3l21-60.2h21.4V969h-16.4v-24.3l1.6-36.1l-0.3-0.1l-21.9,60.5h-11l-21.8-60.2
			l-0.3,0.1l1.6,35.8V969h-16.4v-81.7H1316.3z"/>
		<path fill="#EDEDED" d="M1459.8,887.3v54.2c0,9.2-3,16.2-9.1,21.2c-6.1,5-14,7.5-23.8,7.5c-9.8,0-17.6-2.5-23.6-7.5
			c-6-5-9-12-9-21.2v-54.2h16.4v54.1c0,5.4,1.4,9.4,4.3,12.1c2.9,2.7,6.8,4,11.9,4c5.1,0,9.1-1.3,12.1-4c2.9-2.7,4.4-6.7,4.4-12.1
			v-54.1H1459.8z"/>
		<path fill="#EDEDED" d="M1490.5,956.4h36.4V969h-52.7v-81.7h16.4V956.4z"/>
		<path fill="#EDEDED" d="M1580.7,900h-23.1V969h-16.4V900h-23v-12.6h62.5V900z"/>
		<path fill="#EDEDED" d="M1607.3,969h-16.4v-81.7h16.4V969z"/>
		<path fill="#EDEDED" d="M1689.6,969h-16.3l-33-55.8l-0.3,0.1V969h-16.4v-81.7h16.4l33,55.8l0.3-0.1v-55.7h16.3V969z"/>
		<path fill="#EDEDED" d="M1755.1,933.1h-33.8v23.3h39.5V969h-55.9v-81.7h55.8V900h-39.4v20.5h33.8V933.1z"/>
		<path fill="#EDEDED" d="M1799.7,916.3l15.3-28.9h19.1l-24.2,40.5l25.6,41.2h-19.8l-15.8-29.5l-15.8,29.5H1765l24.9-41.2
			l-24.2-40.5h19L1799.7,916.3z"/>
		<path fill="#EDEDED" d="M1907.6,935.5c0,10-3.2,18.3-9.5,24.9c-6.3,6.5-14.6,9.8-24.7,9.8c-10.1,0-18.2-3.3-24.5-9.8
			c-6.3-6.5-9.4-14.8-9.4-24.9v-14.7c0-10,3.1-18.3,9.4-24.8c6.3-6.6,14.4-9.8,24.5-9.8c10.1,0,18.4,3.3,24.7,9.8
			c6.4,6.6,9.5,14.8,9.5,24.8V935.5z M1891.2,920.8c0-6.4-1.6-11.6-4.8-15.7c-3.2-4.1-7.6-6.1-13.1-6.1c-5.6,0-9.9,2-13,6.1
			c-3.1,4.1-4.6,9.3-4.6,15.7v14.8c0,6.5,1.6,11.8,4.7,15.8c3.1,4.1,7.4,6.1,13,6.1c5.6,0,10-2,13.1-6.1c3.1-4.1,4.7-9.4,4.7-15.8
			V920.8z"/>
	</g>
</g>
<g>
	<g>
		<g>
			<g>
				<path fill="#EDEDED" d="M-398.2,996.8h-159.2l4.9-109.8l113.2-29.4L-398.2,996.8z M-535.1,975.4h108.2l-27.1-92l-77.9,20.2
					L-535.1,975.4z"/>
			</g>
			<g>
				<circle fill="#FFC145" cx="-543.7" cy="985.6" r="23.4"/>
			</g>
			<g>
				<circle fill="#5CCC5C" cx="-542.6" cy="896.9" r="22.5"/>
			</g>
			<g>
				<circle fill="#1FAFFF" cx="-414.6" cy="983.8" r="25.2"/>
			</g>
			<g>
				<circle fill="#FF6666" cx="-448.2" cy="871" r="22.1"/>
			</g>
		</g>
	</g>
	<g>
		<path fill="#EDEDED" d="M-298.8,888.1l20.8,60.3h0.3l21-60.3h21.5v81.8h-16.4v-24.4l1.6-36.1l-0.3-0.1l-21.9,60.6h-11l-21.8-60.3
			l-0.3,0.1l1.6,35.9v24.4h-16.4v-81.8H-298.8z"/>
		<path fill="#EDEDED" d="M-140.1,888.1v54.3c0,9.2-3,16.3-9.1,21.2c-6.1,5-14,7.5-23.8,7.5c-9.8,0-17.7-2.5-23.7-7.5
			s-9-12.1-9-21.2v-54.3h16.5v54.2c0,5.4,1.4,9.4,4.3,12.1c2.9,2.7,6.9,4,11.9,4c5.1,0,9.2-1.3,12.1-4c2.9-2.7,4.4-6.7,4.4-12.1
			v-54.2H-140.1z"/>
		<path fill="#EDEDED" d="M-94.3,957.2h36.4v12.6h-52.8v-81.8h16.4V957.2z"/>
		<path fill="#EDEDED" d="M11.2,900.7H-12v69.1h-16.4v-69.1h-23v-12.6h62.6V900.7z"/>
		<path fill="#EDEDED" d="M52.8,969.8H36.4v-81.8h16.4V969.8z"/>
		<path fill="#EDEDED" d="M150.4,969.8H134L101,914l-0.3,0.1v55.8H84.2v-81.8h16.4l33,55.8l0.3-0.1v-55.8h16.3V969.8z"/>
		<path fill="#EDEDED" d="M231,933.9h-33.9v23.3h39.6v12.6h-56v-81.8h55.9v12.6h-39.5v20.6H231V933.9z"/>
		<path fill="#EDEDED" d="M290.7,917l15.3-29h19.1l-24.3,40.6l25.7,41.2h-19.8l-15.8-29.5l-15.8,29.5H256l24.9-41.2l-24.3-40.6h19
			L290.7,917z"/>
		<path fill="#EDEDED" d="M413.9,936.3c0,10-3.2,18.3-9.5,24.9c-6.3,6.6-14.6,9.8-24.7,9.8c-10.1,0-18.3-3.3-24.5-9.8
			c-6.3-6.6-9.4-14.8-9.4-24.9v-14.7c0-10,3.1-18.3,9.4-24.9c6.3-6.6,14.4-9.9,24.5-9.9c10.1,0,18.4,3.3,24.8,9.9
			c6.4,6.6,9.5,14.9,9.5,24.9V936.3z M397.5,921.5c0-6.4-1.6-11.6-4.8-15.7c-3.2-4.1-7.6-6.1-13.1-6.1c-5.6,0-9.9,2-13,6.1
			c-3.1,4.1-4.6,9.3-4.6,15.7v14.9c0,6.5,1.6,11.8,4.7,15.9c3.1,4.1,7.4,6.1,13,6.1c5.6,0,10-2,13.1-6.1c3.1-4.1,4.7-9.4,4.7-15.9
			V921.5z"/>
	</g>
</g>
<g>
	<g>
		<g>
			<g>
				<path fill="#424A60" d="M-398.2,1380.1h-159.2l4.9-109.8l113.2-29.4L-398.2,1380.1z M-535.1,1358.7h108.2l-27.1-92l-77.9,20.2
					L-535.1,1358.7z"/>
			</g>
			<g>
				<circle fill="#FFC145" cx="-543.7" cy="1368.9" r="23.4"/>
			</g>
			<g>
				<circle fill="#5CCC5C" cx="-542.6" cy="1280.2" r="22.5"/>
			</g>
			<g>
				<circle fill="#1FAFFF" cx="-414.6" cy="1367.1" r="25.2"/>
			</g>
			<g>
				<circle fill="#FF6666" cx="-448.2" cy="1254.3" r="22.1"/>
			</g>
		</g>
	</g>
	<g>
		<path fill="#424A60" d="M-298.8,1271.4l20.8,60.3h0.3l21-60.3h21.5v81.8h-16.4v-24.4l1.6-36.1l-0.3-0.1l-21.9,60.6h-11l-21.8-60.3
			l-0.3,0.1l1.6,35.9v24.4h-16.4v-81.8H-298.8z"/>
		<path fill="#424A60" d="M-140.1,1271.4v54.3c0,9.2-3,16.3-9.1,21.2c-6.1,5-14,7.5-23.8,7.5c-9.8,0-17.7-2.5-23.7-7.5
			s-9-12.1-9-21.2v-54.3h16.5v54.2c0,5.4,1.4,9.4,4.3,12.1c2.9,2.7,6.9,4,11.9,4c5.1,0,9.2-1.3,12.1-4c2.9-2.7,4.4-6.7,4.4-12.1
			v-54.2H-140.1z"/>
		<path fill="#424A60" d="M-94.3,1340.5h36.4v12.6h-52.8v-81.8h16.4V1340.5z"/>
		<path fill="#424A60" d="M11.2,1284H-12v69.1h-16.4V1284h-23v-12.6h62.6V1284z"/>
		<path fill="#424A60" d="M52.8,1353.1H36.4v-81.8h16.4V1353.1z"/>
		<path fill="#424A60" d="M150.4,1353.1H134l-33-55.9l-0.3,0.1v55.8H84.2v-81.8h16.4l33,55.8l0.3-0.1v-55.8h16.3V1353.1z"/>
		<path fill="#424A60" d="M231,1317.2h-33.9v23.3h39.6v12.6h-56v-81.8h55.9v12.6h-39.5v20.6H231V1317.2z"/>
		<path fill="#424A60" d="M290.7,1300.3l15.3-29h19.1l-24.3,40.6l25.7,41.2h-19.8l-15.8-29.5l-15.8,29.5H256l24.9-41.2l-24.3-40.6
			h19L290.7,1300.3z"/>
		<path fill="#424A60" d="M413.9,1319.6c0,10-3.2,18.3-9.5,24.9c-6.3,6.6-14.6,9.8-24.7,9.8c-10.1,0-18.3-3.3-24.5-9.8
			c-6.3-6.6-9.4-14.8-9.4-24.9v-14.7c0-10,3.1-18.3,9.4-24.9c6.3-6.6,14.4-9.9,24.5-9.9c10.1,0,18.4,3.3,24.8,9.9
			c6.4,6.6,9.5,14.9,9.5,24.9V1319.6z M397.5,1304.8c0-6.4-1.6-11.6-4.8-15.7c-3.2-4.1-7.6-6.1-13.1-6.1c-5.6,0-9.9,2-13,6.1
			c-3.1,4.1-4.6,9.3-4.6,15.7v14.9c0,6.5,1.6,11.8,4.7,15.9c3.1,4.1,7.4,6.1,13,6.1c5.6,0,10-2,13.1-6.1c3.1-4.1,4.7-9.4,4.7-15.9
			V1304.8z"/>
	</g>
</g>
<g>
	<g>
		<g>
			<g>
				<path fill="#636D82" d="M-398.2,1788.9h-159.2l4.9-109.8l113.2-29.4L-398.2,1788.9z M-535.1,1767.5h108.2l-27.1-92l-77.9,20.2
					L-535.1,1767.5z"/>
			</g>
			<g>
				<circle fill="#FFC145" cx="-543.7" cy="1777.7" r="23.4"/>
			</g>
			<g>
				<circle fill="#5CCC5C" cx="-542.6" cy="1688.9" r="22.5"/>
			</g>
			<g>
				<circle fill="#1FAFFF" cx="-414.6" cy="1775.9" r="25.2"/>
			</g>
			<g>
				<circle fill="#FF6666" cx="-448.2" cy="1663.1" r="22.1"/>
			</g>
		</g>
	</g>
	<g>
		<path fill="#636D82" d="M-298.8,1680.1l20.8,60.3h0.3l21-60.3h21.5v81.8h-16.4v-24.4l1.6-36.1l-0.3-0.1l-21.9,60.6h-11l-21.8-60.3
			l-0.3,0.1l1.6,35.9v24.4h-16.4v-81.8H-298.8z"/>
		<path fill="#636D82" d="M-140.1,1680.1v54.3c0,9.2-3,16.3-9.1,21.2c-6.1,5-14,7.5-23.8,7.5c-9.8,0-17.7-2.5-23.7-7.5
			s-9-12.1-9-21.2v-54.3h16.5v54.2c0,5.4,1.4,9.4,4.3,12.1c2.9,2.7,6.9,4,11.9,4c5.1,0,9.2-1.3,12.1-4c2.9-2.7,4.4-6.7,4.4-12.1
			v-54.2H-140.1z"/>
		<path fill="#636D82" d="M-94.3,1749.3h36.4v12.6h-52.8v-81.8h16.4V1749.3z"/>
		<path fill="#636D82" d="M11.2,1692.8H-12v69.1h-16.4v-69.1h-23v-12.6h62.6V1692.8z"/>
		<path fill="#636D82" d="M52.8,1761.9H36.4v-81.8h16.4V1761.9z"/>
		<path fill="#636D82" d="M150.4,1761.9H134l-33-55.9l-0.3,0.1v55.8H84.2v-81.8h16.4l33,55.8l0.3-0.1v-55.8h16.3V1761.9z"/>
		<path fill="#636D82" d="M231,1725.9h-33.9v23.3h39.6v12.6h-56v-81.8h55.9v12.6h-39.5v20.6H231V1725.9z"/>
		<path fill="#636D82" d="M290.7,1709.1l15.3-29h19.1l-24.3,40.6l25.7,41.2h-19.8l-15.8-29.5l-15.8,29.5H256l24.9-41.2l-24.3-40.6
			h19L290.7,1709.1z"/>
		<path fill="#636D82" d="M413.9,1728.4c0,10-3.2,18.3-9.5,24.9c-6.3,6.6-14.6,9.8-24.7,9.8c-10.1,0-18.3-3.3-24.5-9.8
			c-6.3-6.6-9.4-14.8-9.4-24.9v-14.7c0-10,3.1-18.3,9.4-24.9c6.3-6.6,14.4-9.9,24.5-9.9c10.1,0,18.4,3.3,24.8,9.9
			c6.4,6.6,9.5,14.9,9.5,24.9V1728.4z M397.5,1713.6c0-6.4-1.6-11.6-4.8-15.7c-3.2-4.1-7.6-6.1-13.1-6.1c-5.6,0-9.9,2-13,6.1
			c-3.1,4.1-4.6,9.3-4.6,15.7v14.9c0,6.5,1.6,11.8,4.7,15.9c3.1,4.1,7.4,6.1,13,6.1c5.6,0,10-2,13.1-6.1c3.1-4.1,4.7-9.4,4.7-15.9
			V1713.6z"/>
	</g>
</g>
<g>
	<g>
		<g>
			<polygon fill="none" stroke="#636D82" stroke-width="18" stroke-miterlimit="10" points="-414.6,2211.9 -448.2,2099.1 
				-542.6,2124.9 -543.7,2213.7 			"/>
			<g>
				<circle fill="#FFC145" cx="-543.7" cy="2213.7" r="23.4"/>
			</g>
			<g>
				<circle fill="#5CCC5C" cx="-542.6" cy="2124.9" r="22.5"/>
			</g>
			<g>
				<circle fill="#1FAFFF" cx="-414.6" cy="2211.9" r="25.2"/>
			</g>
			<g>
				<circle fill="#FF6666" cx="-448.2" cy="2099.1" r="22.1"/>
			</g>
		</g>
	</g>
	<g>
		<path fill="#636D82" d="M-298.8,2116.1l20.8,60.3h0.3l21-60.3h21.5v81.8h-16.4v-24.4l1.6-36.1l-0.3-0.1l-21.9,60.6h-11l-21.8-60.3
			l-0.3,0.1l1.6,35.9v24.4h-16.4v-81.8H-298.8z"/>
		<path fill="#636D82" d="M-140.1,2116.1v54.3c0,9.2-3,16.3-9.1,21.2c-6.1,5-14,7.5-23.8,7.5c-9.8,0-17.7-2.5-23.7-7.5
			s-9-12.1-9-21.2v-54.3h16.5v54.2c0,5.4,1.4,9.4,4.3,12.1c2.9,2.7,6.9,4,11.9,4c5.1,0,9.2-1.3,12.1-4c2.9-2.7,4.4-6.7,4.4-12.1
			v-54.2H-140.1z"/>
		<path fill="#636D82" d="M-94.3,2185.3h36.4v12.6h-52.8v-81.8h16.4V2185.3z"/>
		<path fill="#636D82" d="M11.2,2128.8H-12v69.1h-16.4v-69.1h-23v-12.6h62.6V2128.8z"/>
		<path fill="#636D82" d="M52.8,2197.9H36.4v-81.8h16.4V2197.9z"/>
		<path fill="#636D82" d="M150.4,2197.9H134l-33-55.9l-0.3,0.1v55.8H84.2v-81.8h16.4l33,55.8l0.3-0.1v-55.8h16.3V2197.9z"/>
		<path fill="#636D82" d="M231,2161.9h-33.9v23.3h39.6v12.6h-56v-81.8h55.9v12.6h-39.5v20.6H231V2161.9z"/>
		<path fill="#636D82" d="M290.7,2145.1l15.3-29h19.1l-24.3,40.6l25.7,41.2h-19.8l-15.8-29.5l-15.8,29.5H256l24.9-41.2l-24.3-40.6
			h19L290.7,2145.1z"/>
		<path fill="#636D82" d="M413.9,2164.4c0,10-3.2,18.3-9.5,24.9c-6.3,6.6-14.6,9.8-24.7,9.8c-10.1,0-18.3-3.3-24.5-9.8
			c-6.3-6.6-9.4-14.8-9.4-24.9v-14.7c0-10,3.1-18.3,9.4-24.9c6.3-6.6,14.4-9.9,24.5-9.9c10.1,0,18.4,3.3,24.8,9.9
			c6.4,6.6,9.5,14.9,9.5,24.9V2164.4z M397.5,2149.6c0-6.4-1.6-11.6-4.8-15.7c-3.2-4.1-7.6-6.1-13.1-6.1c-5.6,0-9.9,2-13,6.1
			c-3.1,4.1-4.6,9.3-4.6,15.7v14.9c0,6.5,1.6,11.8,4.7,15.9c3.1,4.1,7.4,6.1,13,6.1c5.6,0,10-2,13.1-6.1c3.1-4.1,4.7-9.4,4.7-15.9
			V2149.6z"/>
	</g>
</g>
<g>
	<g>
		<g>
			<g>
				<path fill="#424A60" d="M1227.7,1380.1h-159.2l4.9-109.8l113.2-29.4L1227.7,1380.1z M1090.9,1358.7h108.2l-27.1-92l-77.9,20.2
					L1090.9,1358.7z"/>
			</g>
			<g>
				<circle fill="#FFC145" cx="1082.3" cy="1368.9" r="23.4"/>
			</g>
			<g>
				<circle fill="#5CCC5C" cx="1083.4" cy="1280.2" r="22.5"/>
			</g>
			<g>
				<circle fill="#1FAFFF" cx="1211.4" cy="1367.1" r="25.2"/>
			</g>
			<g>
				<circle fill="#FF6666" cx="1177.7" cy="1254.3" r="22.1"/>
			</g>
		</g>
	</g>
	<g>
		<path fill="#424A60" d="M1316.3,1270.6l20.8,60.2h0.3l21-60.2h21.4v81.7h-16.4V1328l1.6-36.1l-0.3-0.1l-21.9,60.5h-11l-21.8-60.2
			l-0.3,0.1l1.6,35.8v24.3h-16.4v-81.7H1316.3z"/>
		<path fill="#424A60" d="M1459.8,1270.6v54.2c0,9.2-3,16.2-9.1,21.2c-6.1,5-14,7.5-23.8,7.5c-9.8,0-17.6-2.5-23.6-7.5
			c-6-5-9-12-9-21.2v-54.2h16.4v54.1c0,5.4,1.4,9.4,4.3,12.1c2.9,2.7,6.8,4,11.9,4c5.1,0,9.1-1.3,12.1-4c2.9-2.7,4.4-6.7,4.4-12.1
			v-54.1H1459.8z"/>
		<path fill="#424A60" d="M1490.5,1339.7h36.4v12.6h-52.7v-81.7h16.4V1339.7z"/>
		<path fill="#424A60" d="M1580.7,1283.3h-23.1v69.1h-16.4v-69.1h-23v-12.6h62.5V1283.3z"/>
		<path fill="#424A60" d="M1607.3,1352.3h-16.4v-81.7h16.4V1352.3z"/>
		<path fill="#424A60" d="M1689.6,1352.3h-16.3l-33-55.8l-0.3,0.1v55.8h-16.4v-81.7h16.4l33,55.8l0.3-0.1v-55.7h16.3V1352.3z"/>
		<path fill="#424A60" d="M1755.1,1316.4h-33.8v23.3h39.5v12.6h-55.9v-81.7h55.8v12.6h-39.4v20.5h33.8V1316.4z"/>
		<path fill="#424A60" d="M1799.7,1299.6l15.3-28.9h19.1l-24.2,40.5l25.6,41.2h-19.8l-15.8-29.5l-15.8,29.5H1765l24.9-41.2
			l-24.2-40.5h19L1799.7,1299.6z"/>
		<path fill="#424A60" d="M1907.6,1318.8c0,10-3.2,18.3-9.5,24.9c-6.3,6.5-14.6,9.8-24.7,9.8c-10.1,0-18.2-3.3-24.5-9.8
			c-6.3-6.5-9.4-14.8-9.4-24.9v-14.7c0-10,3.1-18.3,9.4-24.8c6.3-6.6,14.4-9.8,24.5-9.8c10.1,0,18.4,3.3,24.7,9.8
			c6.4,6.6,9.5,14.8,9.5,24.8V1318.8z M1891.2,1304.1c0-6.4-1.6-11.6-4.8-15.7c-3.2-4.1-7.6-6.1-13.1-6.1c-5.6,0-9.9,2-13,6.1
			c-3.1,4.1-4.6,9.3-4.6,15.7v14.8c0,6.5,1.6,11.8,4.7,15.8c3.1,4.1,7.4,6.1,13,6.1c5.6,0,10-2,13.1-6.1c3.1-4.1,4.7-9.4,4.7-15.8
			V1304.1z"/>
	</g>
</g>
<g>
	<g>
		<g>
			<g>
				<path fill="#636D82" d="M1227.7,1788.9h-159.2l4.9-109.8l113.2-29.4L1227.7,1788.9z M1090.9,1767.5h108.2l-27.1-92l-77.9,20.2
					L1090.9,1767.5z"/>
			</g>
			<g>
				<circle fill="#FFC145" cx="1082.3" cy="1777.7" r="23.4"/>
			</g>
			<g>
				<circle fill="#5CCC5C" cx="1083.4" cy="1688.9" r="22.5"/>
			</g>
			<g>
				<circle fill="#1FAFFF" cx="1211.4" cy="1775.9" r="25.2"/>
			</g>
			<g>
				<circle fill="#FF6666" cx="1177.7" cy="1663.1" r="22.1"/>
			</g>
		</g>
	</g>
	<g>
		<path fill="#636D82" d="M1316.3,1679.4l20.8,60.2h0.3l21-60.2h21.4v81.7h-16.4v-24.3l1.6-36.1l-0.3-0.1l-21.9,60.5h-11l-21.8-60.2
			l-0.3,0.1l1.6,35.8v24.3h-16.4v-81.7H1316.3z"/>
		<path fill="#636D82" d="M1459.8,1679.4v54.2c0,9.2-3,16.2-9.1,21.2c-6.1,5-14,7.5-23.8,7.5c-9.8,0-17.6-2.5-23.6-7.5
			c-6-5-9-12-9-21.2v-54.2h16.4v54.1c0,5.4,1.4,9.4,4.3,12.1c2.9,2.7,6.8,4,11.9,4c5.1,0,9.1-1.3,12.1-4c2.9-2.7,4.4-6.7,4.4-12.1
			v-54.1H1459.8z"/>
		<path fill="#636D82" d="M1490.5,1748.5h36.4v12.6h-52.7v-81.7h16.4V1748.5z"/>
		<path fill="#636D82" d="M1580.7,1692h-23.1v69.1h-16.4V1692h-23v-12.6h62.5V1692z"/>
		<path fill="#636D82" d="M1607.3,1761.1h-16.4v-81.7h16.4V1761.1z"/>
		<path fill="#636D82" d="M1689.6,1761.1h-16.3l-33-55.8l-0.3,0.1v55.8h-16.4v-81.7h16.4l33,55.8l0.3-0.1v-55.7h16.3V1761.1z"/>
		<path fill="#636D82" d="M1755.1,1725.2h-33.8v23.3h39.5v12.6h-55.9v-81.7h55.8v12.6h-39.4v20.5h33.8V1725.2z"/>
		<path fill="#636D82" d="M1799.7,1708.3l15.3-28.9h19.1l-24.2,40.5l25.6,41.2h-19.8l-15.8-29.5l-15.8,29.5H1765l24.9-41.2
			l-24.2-40.5h19L1799.7,1708.3z"/>
		<path fill="#636D82" d="M1907.6,1727.6c0,10-3.2,18.3-9.5,24.9c-6.3,6.5-14.6,9.8-24.7,9.8c-10.1,0-18.2-3.3-24.5-9.8
			c-6.3-6.5-9.4-14.8-9.4-24.9v-14.7c0-10,3.1-18.3,9.4-24.8c6.3-6.6,14.4-9.8,24.5-9.8c10.1,0,18.4,3.3,24.7,9.8
			c6.4,6.6,9.5,14.8,9.5,24.8V1727.6z M1891.2,1712.8c0-6.4-1.6-11.6-4.8-15.7c-3.2-4.1-7.6-6.1-13.1-6.1c-5.6,0-9.9,2-13,6.1
			c-3.1,4.1-4.6,9.3-4.6,15.7v14.8c0,6.5,1.6,11.8,4.7,15.8c3.1,4.1,7.4,6.1,13,6.1c5.6,0,10-2,13.1-6.1c3.1-4.1,4.7-9.4,4.7-15.8
			V1712.8z"/>
	</g>
</g>
<g>
	<g>
		<path fill="#636D82" d="M1316.3,2115.4l20.8,60.2h0.3l21-60.2h21.4v81.7h-16.4v-24.3l1.6-36.1l-0.3-0.1l-21.9,60.5h-11l-21.8-60.2
			l-0.3,0.1l1.6,35.8v24.3h-16.4v-81.7H1316.3z"/>
		<path fill="#636D82" d="M1459.8,2115.4v54.2c0,9.2-3,16.2-9.1,21.2c-6.1,5-14,7.5-23.8,7.5c-9.8,0-17.6-2.5-23.6-7.5
			c-6-5-9-12-9-21.2v-54.2h16.4v54.1c0,5.4,1.4,9.4,4.3,12.1c2.9,2.7,6.8,4,11.9,4c5.1,0,9.1-1.3,12.1-4c2.9-2.7,4.4-6.7,4.4-12.1
			v-54.1H1459.8z"/>
		<path fill="#636D82" d="M1490.5,2184.5h36.4v12.6h-52.7v-81.7h16.4V2184.5z"/>
		<path fill="#636D82" d="M1580.7,2128h-23.1v69.1h-16.4V2128h-23v-12.6h62.5V2128z"/>
		<path fill="#636D82" d="M1607.3,2197.1h-16.4v-81.7h16.4V2197.1z"/>
		<path fill="#636D82" d="M1689.6,2197.1h-16.3l-33-55.8l-0.3,0.1v55.8h-16.4v-81.7h16.4l33,55.8l0.3-0.1v-55.7h16.3V2197.1z"/>
		<path fill="#636D82" d="M1755.1,2161.2h-33.8v23.3h39.5v12.6h-55.9v-81.7h55.8v12.6h-39.4v20.5h33.8V2161.2z"/>
		<path fill="#636D82" d="M1799.7,2144.3l15.3-28.9h19.1l-24.2,40.5l25.6,41.2h-19.8l-15.8-29.5l-15.8,29.5H1765l24.9-41.2
			l-24.2-40.5h19L1799.7,2144.3z"/>
		<path fill="#636D82" d="M1907.6,2163.6c0,10-3.2,18.3-9.5,24.9c-6.3,6.5-14.6,9.8-24.7,9.8c-10.1,0-18.2-3.3-24.5-9.8
			c-6.3-6.5-9.4-14.8-9.4-24.9v-14.7c0-10,3.1-18.3,9.4-24.8c6.3-6.6,14.4-9.8,24.5-9.8c10.1,0,18.4,3.3,24.7,9.8
			c6.4,6.6,9.5,14.8,9.5,24.8V2163.6z M1891.2,2148.8c0-6.4-1.6-11.6-4.8-15.7c-3.2-4.1-7.6-6.1-13.1-6.1c-5.6,0-9.9,2-13,6.1
			c-3.1,4.1-4.6,9.3-4.6,15.7v14.8c0,6.5,1.6,11.8,4.7,15.8c3.1,4.1,7.4,6.1,13,6.1c5.6,0,10-2,13.1-6.1c3.1-4.1,4.7-9.4,4.7-15.8
			V2148.8z"/>
	</g>
	<g>
		<g>
			<polygon fill="none" stroke="#636D82" stroke-width="18" stroke-miterlimit="10" points="1211.7,2211.9 1178.1,2099.1 
				1083.8,2124.9 1082.7,2213.7 			"/>
			<g>
				<circle fill="#FFC145" cx="1082.7" cy="2213.7" r="23.4"/>
			</g>
			<g>
				<circle fill="#5CCC5C" cx="1083.8" cy="2124.9" r="22.5"/>
			</g>
			<g>
				<circle fill="#1FAFFF" cx="1211.7" cy="2211.9" r="25.2"/>
			</g>
			<g>
				<circle fill="#FF6666" cx="1178.1" cy="2099.1" r="22.1"/>
			</g>
		</g>
	</g>
</g>
<g>
	<g>
		<path fill="#424A60" d="M402,2853.9h-11.2l-9.3-64.3l-27.1,66.6l-2.9,0l-26.5-66.9l-10.1,64.6l-10.5,0l16.9-87.5h3.6l29.1,70.8
			l28.5-70.8h3.6L402,2853.9z"/>
		<path fill="#424A60" d="M502.3,2768.8l-0.2,58c0,5.1-1.4,9.9-4.3,14.5c-2.8,4.6-6.5,8.1-11,10.5c-6.3,2.8-12.8,4.3-19.6,4.3
			c-6.7,0-12.8-1.5-18.2-4.5c-5.4-3-8.9-6.5-10.7-10.5c-1.8-4-2.9-7.1-3.4-9.1c-0.5-2.1-0.7-3.9-0.7-5.6v-57.5h10.2v57.5
			c0.5,4,1.7,7.6,3.5,10.8c1.8,3.2,4.3,5.6,7.6,7.2c4.3,1.8,8.6,2.8,13,2.8c3.4,0,6.6-0.6,9.5-1.7c2.9-1.1,5.4-2.8,7.4-5.1
			c2-2.3,3.6-4.6,4.7-6.8c1.1-2.3,1.7-4.6,1.7-7.1v-0.9v-56.6H502.3z"/>
		<path fill="#424A60" d="M601.7,2853.9h-42v-85.1h10.6v75.9h31.4V2853.9z"/>
		<path fill="#424A60" d="M726.9,2777.7h-24.5v76.1h-10.6v-76.1h-24.5v-9h59.6V2777.7z"/>
		<path fill="#424A60" d="M817.1,2853.9h-10v-85.1h10V2853.9z"/>
		<path fill="#424A60" d="M965.7,2855.7h-2.1l-62.1-68.3v66.5H892v-87.2l2.4,0l61.5,68.4v-66.3h9.8V2855.7z"/>
		<path fill="#424A60" d="M1064.6,2853.9h-46.2v-85.1h46.2v9.2h-36v25.2h36v8.7h-36v32.8h36V2853.9z"/>
		<path fill="#424A60" d="M1191.2,2853.9l-12.7,0l-21.3-36.8l-20.2,36.8l-11.8,0l26.7-44.7l-25.4-40.4l12.8,0l18.6,32.1l18.5-32.1
			l11.6,0l-24.4,40.4L1191.2,2853.9z"/>
		<path fill="#424A60" d="M1319.4,2810.7c0,12.6-4.4,23.3-13.3,32.2c-8.9,8.9-19.6,13.3-32.1,13.3c-12.7,0-23.7-4.3-32.8-12.8
			c-9.2-8.6-13.7-19.1-13.7-31.5c0-12.6,4.4-23.3,13.3-32.2c8.9-8.9,19.6-13.3,32.1-13.3c12.7,0,23.7,4.3,32.8,12.8
			C1314.8,2787.8,1319.4,2798.2,1319.4,2810.7z M1308.8,2810.5c0-9.8-3.5-18-10.6-24.8c-7.1-6.8-15.5-10.1-25.4-10.1
			c-9.7,0-18,3.5-24.7,10.6c-6.7,7.1-10.1,15.6-10.1,25.5c0,9.8,3.5,18,10.5,24.7c7,6.7,15.5,10.1,25.5,10.1c9.7,0,18-3.5,24.7-10.6
			C1305.5,2828.7,1308.8,2820.3,1308.8,2810.5z"/>
	</g>
	<g>
		<g>
			<polygon fill="none" stroke="#424A60" stroke-width="18" stroke-miterlimit="10" points="239.7,2867.3 206.1,2754.5 
				111.7,2780.3 110.6,2869.1 			"/>
			<g>
				<circle fill="#FFC145" cx="110.6" cy="2869.1" r="23.4"/>
			</g>
			<g>
				<circle fill="#5CCC5C" cx="111.7" cy="2780.3" r="22.5"/>
			</g>
			<g>
				<circle fill="#1FAFFF" cx="239.7" cy="2867.3" r="25.2"/>
			</g>
			<g>
				<circle fill="#FF6666" cx="206.1" cy="2754.5" r="22.1"/>
			</g>
		</g>
	</g>
</g>
<g>
	<g>
		<path fill="#424A60" d="M-170.1,5148.9c-0.8,0-1.5-0.5-1.8-1.3l-21.6-54.5l-8.1,51.8c-0.2,1-1,1.7-2,1.7c0,0-14.7,0-14.7,0
			c-0.6,0-1.2-0.3-1.5-0.7c-0.4-0.5-0.5-1.1-0.4-1.7l17.7-91.5c0.2-0.9,1-1.6,2-1.6h6.6c0.8,0,1.5,0.5,1.9,1.2l25.9,63l25.3-63
			c0.3-0.8,1-1.3,1.9-1.3h6.6c1,0,1.8,0.7,2,1.6l16.7,91.5c0.1,0.6-0.1,1.2-0.4,1.6c-0.4,0.5-0.9,0.7-1.5,0.7h-15.3
			c-1,0-1.8-0.7-2-1.7l-7.4-51.4l-22,54.2c-0.3,0.8-1,1.2-1.9,1.2C-164.4,5148.9-170.1,5148.9-170.1,5148.9z"/>
		<polygon fill="#424A60" points="-170.1,5146.9 -194.3,5085.5 -203.6,5144.6 -218.3,5144.6 -200.6,5053.1 -194.1,5053.1 
			-166.3,5120.6 -139.1,5053.1 -132.5,5053.1 -115.8,5144.6 -131.1,5144.6 -139.6,5085.9 -164.4,5146.9 		"/>
		<path fill="#424A60" d="M-168.7,5146.9c-0.8,0-1.5-0.5-1.8-1.3l-23.8-60.1l-9,57.4c-0.2,1-1,1.7-2,1.7c0,0-10.5,0-10.5,0
			c-0.6,0-1.2-0.3-1.5-0.7c-0.4-0.5-0.5-1.1-0.4-1.7l16.9-87.5c0.2-0.9,1-1.6,2-1.6h3.6c0.8,0,1.5,0.5,1.9,1.2l27.2,66.3l26.7-66.3
			c0.3-0.8,1-1.3,1.9-1.3h3.6c1,0,1.8,0.7,2,1.6l16,87.5c0.1,0.6-0.1,1.2-0.4,1.6c-0.4,0.5-0.9,0.7-1.5,0.7h-11.2
			c-1,0-1.8-0.7-2-1.7l-8.3-57l-24.3,59.8c-0.3,0.8-1,1.2-1.9,1.2C-165.8,5146.9-168.7,5146.9-168.7,5146.9z"/>
		<path fill="#424A60" d="M-118.2,5142.6h-11.2l-9.3-64.3l-27.1,66.6l-2.9,0l-26.5-66.9l-10.1,64.6l-10.5,0l16.9-87.5h3.6l29.1,70.8
			l28.5-70.8h3.6L-118.2,5142.6z"/>
		<path fill="#424A60" d="M-53,5148.8c-7.4,0-14.2-1.7-20.1-5c-6.1-3.4-10.3-7.6-12.4-12.4c-1.9-4.3-3.1-7.5-3.6-9.8
			c-0.6-2.4-0.9-4.6-0.9-6.6v-59.5c0-1.1,0.9-2,2-2h14.2c1.1,0,2,0.9,2,2v59.2c0.5,3.4,1.5,6.4,2.9,9.1c1.4,2.5,3.3,4.3,5.8,5.5
			c3.6,1.5,7.4,2.4,11.2,2.4c2.9,0,5.7-0.5,8.1-1.4c2.3-0.9,4.3-2.2,5.8-4c1.8-2,3.2-4,4.1-6c0.8-1.7,1.3-3.5,1.3-5.3v-59.5
			c0-1.1,0.9-2,2-2h14.5c0.5,0,1,0.2,1.4,0.6s0.6,0.9,0.6,1.4l-0.2,60c0,5.8-1.6,11.4-4.8,16.6c-3.2,5.2-7.4,9.3-12.6,12l-0.2,0.1
			C-38.6,5147.2-45.7,5148.8-53,5148.8z"/>
		<path fill="#424A60" d="M-53,5146.8c-7.1,0-13.5-1.6-19.1-4.7c-5.7-3.2-9.6-7-11.6-11.5c-1.8-4.2-3-7.3-3.5-9.5
			c-0.5-2.2-0.8-4.3-0.8-6.1v-59.5h14.2v59.4c0.5,3.7,1.6,7,3.2,9.9c1.6,2.8,3.8,4.9,6.7,6.4c3.9,1.7,8,2.6,12.1,2.6
			c3.2,0,6.2-0.5,8.8-1.5c2.6-1,4.8-2.5,6.6-4.6c1.9-2.2,3.4-4.3,4.4-6.4c1-2,1.5-4.1,1.5-6.2v-59.5h14.5l-0.2,60
			c0,5.4-1.5,10.6-4.6,15.6c-3,4.9-7,8.7-11.8,11.3l-0.1,0.1C-39.2,5145.3-46,5146.8-53,5146.8z"/>
		<path fill="#424A60" d="M-53,5146.8c-7.1,0-13.5-1.6-19.1-4.7c-5.7-3.2-9.6-7-11.6-11.5c-1.8-4.2-3-7.3-3.5-9.5
			c-0.5-2.2-0.8-4.3-0.8-6.1v-57.5c0-1.1,0.9-2,2-2h10.2c1.1,0,2,0.9,2,2v57.4c0.5,3.7,1.6,7,3.2,9.9c1.6,2.8,3.8,4.9,6.7,6.4
			c3.9,1.7,8,2.6,12.1,2.6c3.2,0,6.2-0.5,8.8-1.5c2.6-1,4.8-2.5,6.6-4.6c1.9-2.2,3.4-4.3,4.4-6.4c1-2,1.5-4.1,1.5-6.2v-57.5
			c0-1.1,0.9-2,2-2h10.5c0.5,0,1,0.2,1.4,0.6s0.6,0.9,0.6,1.4l-0.2,58c0,5.4-1.5,10.6-4.6,15.6c-3,4.9-7,8.7-11.8,11.3
			c0,0-0.1,0-0.1,0.1C-39.2,5145.3-46,5146.8-53,5146.8z"/>
		<path fill="#424A60" d="M-17.9,5057.5l-0.2,58c0,5.1-1.4,9.9-4.3,14.5c-2.8,4.6-6.5,8.1-11,10.5c-6.3,2.8-12.8,4.3-19.6,4.3
			c-6.7,0-12.8-1.5-18.2-4.5c-5.4-3-8.9-6.5-10.7-10.5c-1.8-4-2.9-7.1-3.4-9.1c-0.5-2.1-0.7-3.9-0.7-5.6v-57.5h10.2v57.5
			c0.5,4,1.7,7.6,3.5,10.8c1.8,3.2,4.3,5.6,7.6,7.2c4.3,1.8,8.6,2.8,13,2.8c3.4,0,6.6-0.6,9.5-1.7c2.9-1.1,5.4-2.8,7.4-5.1
			c2-2.3,3.6-4.6,4.7-6.8c1.1-2.3,1.7-4.6,1.7-7.1v-0.9v-56.6H-17.9z"/>
		<path fill="#424A60" d="M24.1,5146.6c-1.1,0-2-0.9-2-2v-89.1c0-1.1,0.9-2,2-2h14.6c1.1,0,2,0.9,2,2v73.9h29.4c1.1,0,2,0.9,2,2
			v13.2c0,1.1-0.9,2-2,2H24.1z"/>
		<polygon fill="#424A60" points="24.1,5144.6 24.1,5055.5 38.7,5055.5 38.7,5131.4 70.1,5131.4 70.1,5144.6 		"/>
		<path fill="#424A60" d="M26.1,5144.6c-1.1,0-2-0.9-2-2v-85.1c0-1.1,0.9-2,2-2h10.6c1.1,0,2,0.9,2,2v73.9h29.4c1.1,0,2,0.9,2,2v9.2
			c0,1.1-0.9,2-2,2H26.1z"/>
		<path fill="#424A60" d="M68.1,5142.6h-42v-85.1h10.6v75.9h31.4V5142.6z"/>
		<path fill="#424A60" d="M111.6,5146.6c-1.1,0-2-0.9-2-2v-74.1H87.1c-1.1,0-2-0.9-2-2v-13c0-1.1,0.9-2,2-2h63.6c1.1,0,2,0.9,2,2v13
			c0,1.1-0.9,2-2,2h-22.5v74.1c0,1.1-0.9,2-2,2H111.6z"/>
		<polygon fill="#424A60" points="111.6,5144.6 111.6,5068.5 87.1,5068.5 87.1,5055.5 150.7,5055.5 150.7,5068.5 126.2,5068.5 
			126.2,5144.6 		"/>
		<path fill="#424A60" d="M113.6,5144.6c-1.1,0-2-0.9-2-2v-74.1H89.1c-1.1,0-2-0.9-2-2v-9c0-1.1,0.9-2,2-2h59.6c1.1,0,2,0.9,2,2v9
			c0,1.1-0.9,2-2,2h-22.5v74.1c0,1.1-0.9,2-2,2H113.6z"/>
		<path fill="#424A60" d="M148.7,5066.5h-24.5v76.1h-10.6v-76.1H89.1v-9h59.6V5066.5z"/>
		<path fill="#424A60" d="M184.6,5146.6c-1.1,0-2-0.9-2-2v-89.1c0-1.1,0.9-2,2-2h14c1.1,0,2,0.9,2,2v89.1c0,1.1-0.9,2-2,2H184.6z"/>
		<rect x="184.6" y="5055.5" fill="#424A60" width="14" height="89.1"/>
		<path fill="#424A60" d="M186.6,5144.6c-1.1,0-2-0.9-2-2v-85.1c0-1.1,0.9-2,2-2h10c1.1,0,2,0.9,2,2v85.1c0,1.1-0.9,2-2,2H186.6z"/>
		<path fill="#424A60" d="M196.6,5142.6h-10v-85.1h10V5142.6z"/>
		<path fill="#424A60" d="M309.8,5148.4c-0.6,0-1.1-0.2-1.5-0.7l-55.7-61.3v58.1c0,1.1-0.9,2-2,2H237c-1.1,0-2-0.9-2-2v-91.2
			c0-0.5,0.2-1,0.6-1.4c0.4-0.4,0.9-0.6,1.4-0.6c0,0,5.3,0,5.3,0c0.6,0,1.1,0.2,1.5,0.7l55.2,61.3v-57.9c0-1.1,0.9-2,2-2h13.8
			c1.1,0,2,0.9,2,2v90.9c0,1.1-0.9,2-2,2H309.8z"/>
		<polygon fill="#424A60" points="309.8,5146.4 250.6,5081.3 250.6,5144.6 237,5144.6 237,5053.4 242.3,5053.5 301,5118.6 
			301,5055.5 314.7,5055.5 314.7,5146.4 		"/>
		<path fill="#424A60" d="M310.7,5146.4c-0.6,0-1.1-0.2-1.5-0.7l-58.6-64.5v61.3c0,1.1-0.9,2-2,2H239c-1.1,0-2-0.9-2-2v-87.2
			c0-0.5,0.2-1,0.6-1.4c0.4-0.4,0.9-0.6,1.4-0.6c0,0,2.4,0,2.4,0c0.6,0,1.1,0.2,1.5,0.7l58.1,64.5v-61.1c0-1.1,0.9-2,2-2h9.8
			c1.1,0,2,0.9,2,2v86.9c0,1.1-0.9,2-2,2H310.7z"/>
		<path fill="#424A60" d="M312.7,5144.4h-2.1l-62.1-68.3v66.5H239v-87.2l2.4,0l61.5,68.4v-66.3h9.8V5144.4z"/>
		<path fill="#424A60" d="M348.1,5146.6c-1.1,0-2-0.9-2-2v-89.1c0-1.1,0.9-2,2-2h50.2c1.1,0,2,0.9,2,2v13.2c0,1.1-0.9,2-2,2h-34
			v17.2h34c1.1,0,2,0.9,2,2v12.7c0,1.1-0.9,2-2,2h-34v24.8h34c1.1,0,2,0.9,2,2v13.2c0,1.1-0.9,2-2,2H348.1z"/>
		<polygon fill="#424A60" points="348.1,5144.6 348.1,5055.5 398.3,5055.5 398.3,5068.7 362.3,5068.7 362.3,5089.9 398.3,5089.9 
			398.3,5102.6 362.3,5102.6 362.3,5131.4 398.3,5131.4 398.3,5144.6 		"/>
		<path fill="#424A60" d="M350.1,5144.6c-1.1,0-2-0.9-2-2v-85.1c0-1.1,0.9-2,2-2h46.2c1.1,0,2,0.9,2,2v9.2c0,1.1-0.9,2-2,2h-34v21.2
			h34c1.1,0,2,0.9,2,2v8.7c0,1.1-0.9,2-2,2h-34v28.8h34c1.1,0,2,0.9,2,2v9.2c0,1.1-0.9,2-2,2H350.1z"/>
		<path fill="#424A60" d="M396.3,5142.6h-46.2v-85.1h46.2v9.2h-36v25.2h36v8.7h-36v32.8h36V5142.6z"/>
		<path fill="#424A60" d="M480.3,5146.6c-0.7,0-1.4-0.4-1.7-1l-18.4-31.7l-17.4,31.6c-0.4,0.6-1,1-1.8,1c0,0-16.5,0-16.5,0
			c-0.7,0-1.4-0.4-1.7-1c-0.4-0.6-0.3-1.4,0-2l27.2-45.6l-26-41.4c-0.4-0.6-0.4-1.4-0.1-2c0.4-0.6,1-1,1.8-1l17.5,0
			c0.7,0,1.4,0.4,1.7,1l15.7,27.1l15.6-27.1c0.4-0.6,1-1,1.7-1c0,0,16.3,0,16.3,0c0.7,0,1.4,0.4,1.7,1c0.4,0.6,0.3,1.4,0,2l-25,41.3
			l28.3,45.7c0.4,0.6,0.4,1.4,0,2c-0.4,0.6-1,1-1.7,1C497.8,5146.6,480.3,5146.6,480.3,5146.6z"/>
		<polygon fill="#424A60" points="460.2,5109.9 441.1,5144.6 424.6,5144.6 452.5,5097.9 425.8,5055.5 443.3,5055.5 460.8,5085.6 
			478.1,5055.5 494.4,5055.5 468.8,5097.9 497.7,5144.6 480.3,5144.6 		"/>
		<path fill="#424A60" d="M481.5,5144.6c-0.7,0-1.4-0.4-1.7-1l-19.5-33.8l-18.5,33.7c-0.4,0.6-1,1-1.8,1c0,0-11.8,0-11.8,0
			c-0.7,0-1.4-0.4-1.7-1c-0.4-0.6-0.3-1.4,0-2l26.1-43.7l-24.8-39.3c-0.4-0.6-0.4-1.4-0.1-2c0.4-0.6,1-1,1.8-1l12.8,0
			c0.7,0,1.4,0.4,1.7,1l16.9,29.1l16.7-29.1c0.4-0.6,1-1,1.7-1c0,0,11.6,0,11.6,0c0.7,0,1.4,0.4,1.7,1c0.4,0.6,0.3,1.4,0,2
			l-23.7,39.3l27.1,43.7c0.4,0.6,0.4,1.4,0,2c-0.4,0.6-1,1-1.7,1C494.2,5144.6,481.5,5144.6,481.5,5144.6z"/>
		<path fill="#424A60" d="M494.2,5142.6l-12.7,0l-21.3-36.8l-20.2,36.8l-11.8,0l26.7-44.7l-25.4-40.4l12.8,0l18.6,32.1l18.5-32.1
			l11.6,0l-24.4,40.4L494.2,5142.6z"/>
		<path fill="#424A60" d="M561.3,5148.9c-13.7,0-25.7-4.7-35.6-13.9c-10-9.3-15-20.9-15-34.4c0-13.6,4.9-25.4,14.5-35
			c9.6-9.6,21.4-14.5,35-14.5c13.7,0,25.7,4.7,35.6,13.9c10,9.3,15,20.9,15,34.4c0,13.6-4.9,25.4-14.5,35
			C586.6,5144,574.9,5148.9,561.3,5148.9z M560.1,5068.3c-8.7,0-15.8,3.1-21.8,9.4c-6,6.3-9,13.9-9,22.7c0,8.7,3,15.8,9.3,21.8
			c6.2,6,13.9,9,22.7,9c8.7,0,15.8-3.1,21.8-9.4c6-6.3,9-13.9,9-22.6c0-8.7-3.1-15.9-9.3-21.9
			C576.5,5071.3,568.9,5068.3,560.1,5068.3z"/>
		<path fill="#424A60" d="M561.3,5146.9c-13.2,0-24.7-4.5-34.2-13.4c-9.5-8.9-14.4-20-14.4-33c0-13.1,4.7-24.4,13.9-33.6
			c9.2-9.2,20.5-13.9,33.6-13.9c13.2,0,24.7,4.5,34.2,13.4c9.5,8.9,14.4,20,14.4,33c0,13.1-4.7,24.4-13.9,33.6
			C585.6,5142.2,574.3,5146.9,561.3,5146.9z M560.1,5066.3c-9.3,0-16.9,3.3-23.3,10c-6.3,6.6-9.6,14.7-9.6,24.1
			c0,9.3,3.2,16.9,9.9,23.3c6.6,6.3,14.7,9.5,24.1,9.5c9.3,0,16.9-3.3,23.3-10c6.3-6.6,9.6-14.7,9.6-24c0-9.3-3.3-16.9-10-23.3
			C577.5,5069.5,569.4,5066.3,560.1,5066.3z"/>
		<path fill="#424A60" d="M561.3,5146.9c-13.2,0-24.7-4.5-34.2-13.4c-9.5-8.9-14.4-20-14.4-33c0-13.1,4.7-24.4,13.9-33.6
			c9.2-9.2,20.5-13.9,33.6-13.9c13.2,0,24.7,4.5,34.2,13.4c9.5,8.9,14.4,20,14.4,33c0,13.1-4.7,24.4-13.9,33.6
			C585.6,5142.2,574.3,5146.9,561.3,5146.9z M560.1,5066.3c-9.3,0-16.9,3.3-23.3,10c-6.3,6.6-9.6,14.7-9.6,24.1
			c0,9.3,3.2,16.9,9.9,23.3c6.6,6.3,14.7,9.5,24.1,9.5c9.3,0,16.9-3.3,23.3-10c6.3-6.6,9.6-14.7,9.6-24c0-9.3-3.3-16.9-10-23.3
			C577.5,5069.5,569.4,5066.3,560.1,5066.3z"/>
		<path fill="#424A60" d="M606.7,5099.4c0,12.6-4.4,23.3-13.3,32.2c-8.9,8.9-19.6,13.3-32.1,13.3c-12.7,0-23.7-4.3-32.8-12.8
			c-9.2-8.6-13.7-19.1-13.7-31.5c0-12.6,4.4-23.3,13.3-32.2c8.9-8.9,19.6-13.3,32.1-13.3c12.7,0,23.7,4.3,32.8,12.8
			C602.1,5076.5,606.7,5087,606.7,5099.4z M596.1,5099.2c0-9.8-3.5-18-10.6-24.8c-7.1-6.8-15.5-10.1-25.4-10.1
			c-9.7,0-18,3.5-24.7,10.6c-6.7,7.1-10.1,15.6-10.1,25.5c0,9.8,3.5,18,10.5,24.7c7,6.7,15.5,10.1,25.5,10.1c9.7,0,18-3.5,24.7-10.6
			C592.7,5117.5,596.1,5109,596.1,5099.2z"/>
	</g>
	<g>
		<g>
			<path fill="#8091AD" d="M-322.8,5125.5l-19-63.8c4.5-5.1,7-11.7,7-18.5c0-15.5-12.6-28.1-28.1-28.1c-12.4,0-23.3,8.2-26.9,20
				l-48,13.2c-5.3-4.9-12.2-7.7-19.4-7.7c-15.7,0-28.5,12.8-28.5,28.5c0,9.7,5,18.8,13.2,24.1l-0.5,39.2
				c-9.1,5.3-14.7,14.9-14.7,25.4c0,16.2,13.2,29.4,29.4,29.4c10.6,0,20.2-5.6,25.5-14.7l76.5-1.1c5.6,9.8,15.8,15.8,27.1,15.8
				c17.2,0,31.2-14,31.2-31.2C-298.2,5141.2-308.5,5128.6-322.8,5125.5z M-351.6,5134.1c-2.2,2.2-4,4.6-5.4,7.3l-76.5,1.1
				c-2.4-4-5.8-7.3-9.7-9.7l0.5-39.2c6.1-3.7,10.7-9.6,12.7-16.4l48-13.2c3.3,3,7.2,5.1,11.4,6.3L-351.6,5134.1z"/>
			<path fill="#424A60" d="M-467.6,5167l1.3-104.8l109.4-30l39.5,132.6L-467.6,5167z M-448.4,5076l-0.9,72.7l107.9-1.5l-27.7-93
				L-448.4,5076z"/>
			<circle fill="#FFC145" cx="-458.5" cy="5157.8" r="23.4"/>
			<circle fill="#5CCC5C" cx="-457.4" cy="5069.1" r="22.5"/>
			<circle fill="#1FAFFF" cx="-329.4" cy="5156" r="25.2"/>
			<circle fill="#FF6666" cx="-363" cy="5043.2" r="22.1"/>
		</g>
	</g>
</g>
<polygon fill="#424A60" points="1318.2,5146.9 1293.9,5085.5 1284.6,5144.6 1270,5144.6 1287.6,5053.1 1294.2,5053.1 1321.9,5120.6 
	1349.1,5053.1 1355.7,5053.1 1372.4,5144.6 1357.1,5144.6 1348.6,5085.9 1323.8,5146.9 "/>
<path fill="#424A60" d="M1319.5,5146.9c-0.8,0-1.5-0.5-1.8-1.3l-23.8-60.1l-9,57.4c-0.2,1-1,1.7-2,1.7c0,0-10.5,0-10.5,0
	c-0.6,0-1.2-0.3-1.5-0.7c-0.4-0.5-0.5-1.1-0.4-1.7l16.9-87.5c0.2-0.9,1-1.6,2-1.6h3.6c0.8,0,1.5,0.5,1.9,1.2l27.2,66.3l26.7-66.3
	c0.3-0.8,1-1.3,1.9-1.3h3.6c1,0,1.8,0.7,2,1.6l16,87.5c0.1,0.6-0.1,1.2-0.4,1.6c-0.4,0.5-0.9,0.7-1.5,0.7h-11.2c-1,0-1.8-0.7-2-1.7
	l-8.3-57l-24.3,59.8c-0.3,0.8-1,1.2-1.9,1.2C1322.5,5146.9,1319.5,5146.9,1319.5,5146.9z"/>
<polygon fill="#424A60" points="1318.2,5146.9 1293.9,5085.5 1284.6,5144.6 1270,5144.6 1287.6,5053.1 1294.2,5053.1 1321.9,5120.6 
	1349.1,5053.1 1355.7,5053.1 1372.4,5144.6 1357.1,5144.6 1348.6,5085.9 1323.8,5146.9 "/>
<path fill="#424A60" d="M1370,5142.6h-11.2l-9.3-64.3l-27.1,66.6l-2.9,0l-26.5-66.9l-10.1,64.6l-10.5,0l16.9-87.5h3.6l29.1,70.8
	l28.5-70.8h3.6L1370,5142.6z"/>
<path fill="#424A60" d="M1435.2,5146.8c-7.1,0-13.5-1.6-19.1-4.7c-5.7-3.2-9.6-7-11.6-11.5c-1.8-4.2-3-7.3-3.5-9.5
	c-0.5-2.2-0.8-4.3-0.8-6.1v-59.5h14.2v59.4c0.5,3.7,1.6,7,3.2,9.9c1.6,2.8,3.8,4.9,6.7,6.4c3.9,1.7,8,2.6,12.1,2.6
	c3.2,0,6.2-0.5,8.8-1.5c2.6-1,4.8-2.5,6.6-4.6c1.9-2.2,3.4-4.3,4.4-6.4c1-2,1.5-4.1,1.5-6.2v-59.5h14.5l-0.2,60
	c0,5.4-1.5,10.6-4.6,15.6c-3,4.9-7,8.7-11.8,11.3l-0.1,0.1C1449.1,5145.3,1442.2,5146.8,1435.2,5146.8z"/>
<path fill="#424A60" d="M1435.2,5146.8c-7.1,0-13.5-1.6-19.1-4.7c-5.7-3.2-9.6-7-11.6-11.5c-1.8-4.2-3-7.3-3.5-9.5
	c-0.5-2.2-0.8-4.3-0.8-6.1v-57.5c0-1.1,0.9-2,2-2h10.2c1.1,0,2,0.9,2,2v57.4c0.5,3.7,1.6,7,3.2,9.9c1.6,2.8,3.8,4.9,6.7,6.4
	c3.9,1.7,8,2.6,12.1,2.6c3.2,0,6.2-0.5,8.8-1.5c2.6-1,4.8-2.5,6.6-4.6c1.9-2.2,3.4-4.3,4.4-6.4c1-2,1.5-4.1,1.5-6.2v-57.5
	c0-1.1,0.9-2,2-2h10.5c0.5,0,1,0.2,1.4,0.6s0.6,0.9,0.6,1.4l-0.2,58c0,5.4-1.5,10.6-4.6,15.6c-3,4.9-7,8.7-11.8,11.3
	c0,0-0.1,0-0.1,0.1C1449.1,5145.3,1442.2,5146.8,1435.2,5146.8z"/>
<path fill="#424A60" d="M1435.2,5146.8c-7.1,0-13.5-1.6-19.1-4.7c-5.7-3.2-9.6-7-11.6-11.5c-1.8-4.2-3-7.3-3.5-9.5
	c-0.5-2.2-0.8-4.3-0.8-6.1v-59.5h14.2v59.4c0.5,3.7,1.6,7,3.2,9.9c1.6,2.8,3.8,4.9,6.7,6.4c3.9,1.7,8,2.6,12.1,2.6
	c3.2,0,6.2-0.5,8.8-1.5c2.6-1,4.8-2.5,6.6-4.6c1.9-2.2,3.4-4.3,4.4-6.4c1-2,1.5-4.1,1.5-6.2v-59.5h14.5l-0.2,60
	c0,5.4-1.5,10.6-4.5,15.6c-3,4.9-7,8.7-11.8,11.3l-0.1,0.1C1449.1,5145.3,1442.2,5146.8,1435.2,5146.8z"/>
<path fill="#424A60" d="M1470.3,5057.5l-0.2,58c0,5.1-1.4,9.9-4.3,14.5c-2.8,4.6-6.5,8.1-11,10.5c-6.3,2.8-12.8,4.3-19.6,4.3
	c-6.7,0-12.8-1.5-18.2-4.5c-5.4-3-8.9-6.5-10.7-10.5c-1.8-4-2.9-7.1-3.4-9.1c-0.5-2.1-0.7-3.9-0.7-5.6v-57.5h10.2v57.5
	c0.5,4,1.7,7.6,3.5,10.8c1.8,3.2,4.3,5.6,7.6,7.2c4.3,1.8,8.6,2.8,13,2.8c3.4,0,6.6-0.6,9.5-1.7c2.9-1.1,5.4-2.8,7.4-5.1
	c2-2.3,3.6-4.6,4.7-6.8c1.1-2.3,1.7-4.6,1.7-7.1v-0.9v-56.6H1470.3z"/>
<polygon fill="#424A60" points="1512.3,5144.6 1512.3,5055.5 1526.9,5055.5 1526.9,5131.4 1558.3,5131.4 1558.3,5144.6 "/>
<path fill="#424A60" d="M1514.3,5144.6c-1.1,0-2-0.9-2-2v-85.1c0-1.1,0.9-2,2-2h10.6c1.1,0,2,0.9,2,2v73.9h29.4c1.1,0,2,0.9,2,2v9.2
	c0,1.1-0.9,2-2,2H1514.3z"/>
<polygon fill="#424A60" points="1512.3,5144.6 1512.3,5055.5 1526.9,5055.5 1526.9,5131.4 1558.3,5131.4 1558.3,5144.6 "/>
<path fill="#424A60" d="M1556.3,5142.6h-42v-85.1h10.6v75.9h31.4V5142.6z"/>
<polygon fill="#424A60" points="1599.8,5144.6 1599.8,5068.5 1575.3,5068.5 1575.3,5055.5 1638.9,5055.5 1638.9,5068.5 
	1614.4,5068.5 1614.4,5144.6 "/>
<path fill="#424A60" d="M1601.8,5144.6c-1.1,0-2-0.9-2-2v-74.1h-22.5c-1.1,0-2-0.9-2-2v-9c0-1.1,0.9-2,2-2h59.6c1.1,0,2,0.9,2,2v9
	c0,1.1-0.9,2-2,2h-22.5v74.1c0,1.1-0.9,2-2,2H1601.8z"/>
<polygon fill="#424A60" points="1599.8,5144.6 1599.8,5068.5 1575.3,5068.5 1575.3,5055.5 1638.9,5055.5 1638.9,5068.5 
	1614.4,5068.5 1614.4,5144.6 "/>
<path fill="#424A60" d="M1636.9,5066.5h-24.5v76.1h-10.6v-76.1h-24.5v-9h59.6V5066.5z"/>
<rect x="1672.8" y="5055.5" fill="#424A60" width="14" height="89.1"/>
<path fill="#424A60" d="M1674.8,5144.6c-1.1,0-2-0.9-2-2v-85.1c0-1.1,0.9-2,2-2h10c1.1,0,2,0.9,2,2v85.1c0,1.1-0.9,2-2,2H1674.8z"/>
<rect x="1672.8" y="5055.5" fill="#424A60" width="14" height="89.1"/>
<path fill="#424A60" d="M1684.8,5142.6h-10v-85.1h10V5142.6z"/>
<polygon fill="#424A60" points="1798,5146.4 1738.8,5081.3 1738.8,5144.6 1725.3,5144.6 1725.3,5053.4 1730.6,5053.5 1789.2,5118.6 
	1789.2,5055.5 1803,5055.5 1803,5146.4 "/>
<path fill="#424A60" d="M1801,5144.4h-2.1l-62.1-68.3v66.5h-9.5v-87.2l2.4,0l61.5,68.4v-66.3h9.8V5144.4z"/>
<polygon fill="#424A60" points="1836.3,5144.6 1836.3,5055.5 1886.5,5055.5 1886.5,5068.7 1850.5,5068.7 1850.5,5089.9 
	1886.5,5089.9 1886.5,5102.6 1850.5,5102.6 1850.5,5131.4 1886.5,5131.4 1886.5,5144.6 "/>
<path fill="#424A60" d="M1838.3,5144.6c-1.1,0-2-0.9-2-2v-85.1c0-1.1,0.9-2,2-2h46.2c1.1,0,2,0.9,2,2v9.2c0,1.1-0.9,2-2,2h-34v21.2
	h34c1.1,0,2,0.9,2,2v8.7c0,1.1-0.9,2-2,2h-34v28.8h34c1.1,0,2,0.9,2,2v9.2c0,1.1-0.9,2-2,2H1838.3z"/>
<polygon fill="#424A60" points="1836.3,5144.6 1836.3,5055.5 1886.5,5055.5 1886.5,5068.7 1850.5,5068.7 1850.5,5089.9 
	1886.5,5089.9 1886.5,5102.6 1850.5,5102.6 1850.5,5131.4 1886.5,5131.4 1886.5,5144.6 "/>
<path fill="#424A60" d="M1884.5,5142.6h-46.2v-85.1h46.2v9.2h-36v25.2h36v8.7h-36v32.8h36V5142.6z"/>
<polygon fill="#424A60" points="1948.4,5109.9 1929.3,5144.6 1912.9,5144.6 1940.7,5097.9 1914,5055.5 1931.6,5055.5 1949,5085.6 
	1966.3,5055.5 1982.6,5055.5 1957,5097.9 1986,5144.6 1968.5,5144.6 "/>
<path fill="#424A60" d="M1969.7,5144.6c-0.7,0-1.4-0.4-1.7-1l-19.5-33.8l-18.5,33.7c-0.4,0.6-1,1-1.8,1c0,0-11.8,0-11.8,0
	c-0.7,0-1.4-0.4-1.7-1c-0.4-0.6-0.3-1.4,0-2l26.1-43.7l-24.8-39.3c-0.4-0.6-0.4-1.4-0.1-2c0.4-0.6,1-1,1.8-1l12.8,0
	c0.7,0,1.4,0.4,1.7,1l16.9,29.1l16.7-29.1c0.4-0.6,1-1,1.7-1c0,0,11.6,0,11.6,0c0.7,0,1.4,0.4,1.7,1c0.4,0.6,0.3,1.4,0,2l-23.7,39.3
	l27.1,43.7c0.4,0.6,0.4,1.4,0,2c-0.4,0.6-1,1-1.7,1C1982.4,5144.6,1969.7,5144.6,1969.7,5144.6z"/>
<polygon fill="#424A60" points="1948.4,5109.9 1929.3,5144.6 1912.9,5144.6 1940.7,5097.9 1914,5055.5 1931.6,5055.5 1949,5085.6 
	1966.3,5055.5 1982.6,5055.5 1957,5097.9 1986,5144.6 1968.5,5144.6 "/>
<path fill="#424A60" d="M1982.4,5142.6l-12.7,0l-21.3-36.8l-20.2,36.8l-11.8,0l26.7-44.7l-25.4-40.4l12.8,0l18.6,32.1l18.5-32.1
	l11.6,0l-24.4,40.4L1982.4,5142.6z"/>
<path fill="#424A60" d="M2049.5,5146.9c-13.2,0-24.7-4.5-34.2-13.4c-9.5-8.9-14.4-20-14.4-33c0-13.1,4.7-24.4,13.9-33.6
	c9.2-9.2,20.5-13.9,33.6-13.9c13.2,0,24.7,4.5,34.2,13.4c9.5,8.9,14.4,20,14.4,33c0,13.1-4.7,24.4-13.9,33.6
	C2073.8,5142.2,2062.6,5146.9,2049.5,5146.9z M2048.3,5066.3c-9.3,0-16.9,3.3-23.3,10c-6.3,6.6-9.6,14.7-9.6,24.1
	c0,9.3,3.2,16.9,9.9,23.3c6.6,6.3,14.7,9.5,24.1,9.5c9.3,0,16.9-3.3,23.3-10c6.3-6.6,9.6-14.7,9.6-24c0-9.3-3.3-16.9-10-23.3
	C2065.7,5069.5,2057.7,5066.3,2048.3,5066.3z"/>
<path fill="#424A60" d="M2094.9,5099.4c0,12.6-4.4,23.3-13.3,32.2c-8.9,8.9-19.6,13.3-32.1,13.3c-12.7,0-23.7-4.3-32.8-12.8
	c-9.2-8.6-13.7-19.1-13.7-31.5c0-12.6,4.4-23.3,13.3-32.2c8.9-8.9,19.6-13.3,32.1-13.3c12.7,0,23.7,4.3,32.8,12.8
	C2090.3,5076.5,2094.9,5087,2094.9,5099.4z M2084.3,5099.2c0-9.8-3.5-18-10.6-24.8c-7.1-6.8-15.5-10.1-25.4-10.1
	c-9.7,0-18,3.5-24.7,10.6c-6.7,7.1-10.1,15.6-10.1,25.5c0,9.8,3.5,18,10.5,24.7c7,6.7,15.5,10.1,25.5,10.1c9.7,0,18-3.5,24.7-10.6
	C2081,5117.5,2084.3,5109,2084.3,5099.2z"/>
<g>
	<g>
		<path fill="#424A60" d="M1165.4,5125.5l-19-63.8c4.5-5.1,7-11.7,7-18.5c0-15.5-12.6-28.1-28.1-28.1c-12.4,0-23.3,8.2-26.9,20
			l-48,13.2c-5.3-4.9-12.2-7.7-19.4-7.7c-15.7,0-28.5,12.8-28.5,28.5c0,9.7,5,18.8,13.2,24.1l-0.5,39.2
			c-9.1,5.3-14.7,14.9-14.7,25.4c0,16.2,13.2,29.4,29.4,29.4c10.6,0,20.2-5.6,25.5-14.7l76.5-1.1c5.6,9.8,15.8,15.8,27.1,15.8
			c17.2,0,31.2-14,31.2-31.2C1190.1,5141.2,1179.8,5128.6,1165.4,5125.5z M1136.7,5134.1c-2.2,2.2-4,4.6-5.4,7.3l-76.5,1.1
			c-2.4-4-5.8-7.3-9.7-9.7l0.5-39.2c6.1-3.7,10.7-9.6,12.7-16.4l48-13.2c3.3,3,7.2,5.1,11.4,6.3L1136.7,5134.1z"/>
		<path fill="#6D7D99" d="M1020.7,5167l1.3-104.8l109.4-30l39.5,132.6L1020.7,5167z M1039.8,5076l-0.9,72.7l107.9-1.5l-27.7-93
			L1039.8,5076z"/>
		<circle fill="#FFC145" cx="1029.8" cy="5157.8" r="23.4"/>
		<circle fill="#FFD997" cx="1029.8" cy="5157.8" r="23.4"/>
		<circle fill="#FFC145" cx="1029.8" cy="5157.8" r="23.4"/>
		<circle fill="#95F495" cx="1030.9" cy="5069.1" r="22.5"/>
		<circle fill="#5CCC5C" cx="1030.9" cy="5069.1" r="22.5"/>
		<circle fill="#85DFFF" cx="1158.8" cy="5156" r="25.2"/>
		<ellipse fill="#1FAFFF" cx="1158.8" cy="5156" rx="25.2" ry="25.2"/>
		<circle fill="#FFA6A6" cx="1125.2" cy="5043.2" r="22.1"/>
		<circle fill="#FF6666" cx="1125.2" cy="5043.2" r="22.1"/>
	</g>
</g>
<g>
	<g>
		<g>
			<g>
				<path fill="#EDEDED" d="M-324.3,3243.7h-159.2l4.9-109.8l113.2-29.4L-324.3,3243.7z M-461.1,3222.3h108.2l-27.1-92l-77.9,20.2
					L-461.1,3222.3z"/>
			</g>
			<g>
				<circle fill="#FFC145" cx="-469.7" cy="3232.5" r="23.4"/>
			</g>
			<g>
				<circle fill="#5CCC5C" cx="-468.6" cy="3143.8" r="22.5"/>
			</g>
			<g>
				<circle fill="#1FAFFF" cx="-340.7" cy="3230.7" r="25.2"/>
			</g>
			<g>
				<circle fill="#FF6666" cx="-374.3" cy="3117.9" r="22.1"/>
			</g>
		</g>
	</g>
	<g>
		<path fill="#EDEDED" d="M-224.9,3134.9l20.8,60.3h0.3l21-60.3h21.5v81.8h-16.4v-24.4l1.6-36.1l-0.3-0.1l-21.9,60.6h-11l-21.8-60.3
			l-0.3,0.1l1.6,35.9v24.4h-16.4v-81.8H-224.9z"/>
		<path fill="#EDEDED" d="M-66.1,3134.9v54.3c0,9.2-3,16.3-9.1,21.2c-6.1,5-14,7.5-23.8,7.5c-9.8,0-17.7-2.5-23.7-7.5
			c-6-5-9-12.1-9-21.2v-54.3h16.5v54.2c0,5.4,1.4,9.4,4.3,12.1c2.9,2.7,6.9,4,11.9,4c5.1,0,9.2-1.3,12.1-4c2.9-2.7,4.4-6.7,4.4-12.1
			v-54.2H-66.1z"/>
		<path fill="#EDEDED" d="M-20.3,3204.1h36.4v12.6h-52.8v-81.8h16.4V3204.1z"/>
		<path fill="#EDEDED" d="M85.1,3147.6H62v69.1H45.6v-69.1h-23v-12.6h62.6V3147.6z"/>
		<path fill="#EDEDED" d="M126.8,3216.7h-16.4v-81.8h16.4V3216.7z"/>
		<path fill="#EDEDED" d="M224.3,3216.7H208l-33-55.9l-0.3,0.1v55.8h-16.4v-81.8h16.4l33,55.8l0.3-0.1v-55.8h16.3V3216.7z"/>
		<path fill="#EDEDED" d="M305,3180.8h-33.9v23.3h39.6v12.6h-56v-81.8h55.9v12.6h-39.5v20.6H305V3180.8z"/>
		<path fill="#EDEDED" d="M364.7,3163.9l15.3-29h19.1l-24.3,40.6l25.7,41.2h-19.8l-15.8-29.5l-15.8,29.5h-19.2l24.9-41.2l-24.3-40.6
			h19L364.7,3163.9z"/>
		<path fill="#EDEDED" d="M487.8,3183.2c0,10-3.2,18.3-9.5,24.9c-6.3,6.6-14.6,9.8-24.7,9.8c-10.1,0-18.3-3.3-24.5-9.8
			c-6.3-6.6-9.4-14.8-9.4-24.9v-14.7c0-10,3.1-18.3,9.4-24.9c6.3-6.6,14.4-9.9,24.5-9.9c10.1,0,18.4,3.3,24.8,9.9
			c6.4,6.6,9.5,14.9,9.5,24.9V3183.2z M471.4,3168.4c0-6.4-1.6-11.6-4.8-15.7c-3.2-4.1-7.6-6.1-13.1-6.1c-5.6,0-9.9,2-13,6.1
			c-3.1,4.1-4.6,9.3-4.6,15.7v14.9c0,6.5,1.6,11.8,4.7,15.9c3.1,4.1,7.4,6.1,13,6.1c5.6,0,10-2,13.1-6.1c3.1-4.1,4.7-9.4,4.7-15.9
			V3168.4z"/>
	</g>
</g>
<g>
	<g>
		<g>
			<g>
				<path fill="#424A60" d="M-324.3,3627h-159.2l4.9-109.8l113.2-29.4L-324.3,3627z M-461.1,3605.6h108.2l-27.1-92l-77.9,20.2
					L-461.1,3605.6z"/>
			</g>
			<g>
				<circle fill="#FFC145" cx="-469.7" cy="3615.8" r="23.4"/>
			</g>
			<g>
				<circle fill="#5CCC5C" cx="-468.6" cy="3527.1" r="22.5"/>
			</g>
			<g>
				<circle fill="#1FAFFF" cx="-340.7" cy="3614" r="25.2"/>
			</g>
			<g>
				<circle fill="#FF6666" cx="-374.3" cy="3501.2" r="22.1"/>
			</g>
		</g>
	</g>
	<g>
		<path fill="#424A60" d="M-224.9,3518.2l20.8,60.3h0.3l21-60.3h21.5v81.8h-16.4v-24.4l1.6-36.1l-0.3-0.1l-21.9,60.6h-11l-21.8-60.3
			l-0.3,0.1l1.6,35.9v24.4h-16.4v-81.8H-224.9z"/>
		<path fill="#424A60" d="M-66.1,3518.2v54.3c0,9.2-3,16.3-9.1,21.2c-6.1,5-14,7.5-23.8,7.5c-9.8,0-17.7-2.5-23.7-7.5
			c-6-5-9-12.1-9-21.2v-54.3h16.5v54.2c0,5.4,1.4,9.4,4.3,12.1c2.9,2.7,6.9,4,11.9,4c5.1,0,9.2-1.3,12.1-4c2.9-2.7,4.4-6.7,4.4-12.1
			v-54.2H-66.1z"/>
		<path fill="#424A60" d="M-20.3,3587.4h36.4v12.6h-52.8v-81.8h16.4V3587.4z"/>
		<path fill="#424A60" d="M85.1,3530.9H62v69.1H45.6v-69.1h-23v-12.6h62.6V3530.9z"/>
		<path fill="#424A60" d="M126.8,3600h-16.4v-81.8h16.4V3600z"/>
		<path fill="#424A60" d="M224.3,3600H208l-33-55.9l-0.3,0.1v55.8h-16.4v-81.8h16.4l33,55.8l0.3-0.1v-55.8h16.3V3600z"/>
		<path fill="#424A60" d="M305,3564.1h-33.9v23.3h39.6v12.6h-56v-81.8h55.9v12.6h-39.5v20.6H305V3564.1z"/>
		<path fill="#424A60" d="M364.7,3547.2l15.3-29h19.1l-24.3,40.6l25.7,41.2h-19.8l-15.8-29.5l-15.8,29.5h-19.2l24.9-41.2l-24.3-40.6
			h19L364.7,3547.2z"/>
		<path fill="#424A60" d="M487.8,3566.5c0,10-3.2,18.3-9.5,24.9c-6.3,6.6-14.6,9.8-24.7,9.8c-10.1,0-18.3-3.3-24.5-9.8
			c-6.3-6.6-9.4-14.8-9.4-24.9v-14.7c0-10,3.1-18.3,9.4-24.9c6.3-6.6,14.4-9.9,24.5-9.9c10.1,0,18.4,3.3,24.8,9.9
			c6.4,6.6,9.5,14.9,9.5,24.9V3566.5z M471.4,3551.7c0-6.4-1.6-11.6-4.8-15.7c-3.2-4.1-7.6-6.1-13.1-6.1c-5.6,0-9.9,2-13,6.1
			c-3.1,4.1-4.6,9.3-4.6,15.7v14.9c0,6.5,1.6,11.8,4.7,15.9c3.1,4.1,7.4,6.1,13,6.1c5.6,0,10-2,13.1-6.1c3.1-4.1,4.7-9.4,4.7-15.9
			V3551.7z"/>
	</g>
</g>
<g>
	<g>
		<g>
			<g>
				<path fill="#636D82" d="M-324.3,4035.7h-159.2l4.9-109.8l113.2-29.4L-324.3,4035.7z M-461.1,4014.3h108.2l-27.1-92l-77.9,20.2
					L-461.1,4014.3z"/>
			</g>
			<g>
				<circle fill="#FFC145" cx="-469.7" cy="4024.6" r="23.4"/>
			</g>
			<g>
				<circle fill="#5CCC5C" cx="-468.6" cy="3935.8" r="22.5"/>
			</g>
			<g>
				<circle fill="#1FAFFF" cx="-340.7" cy="4022.7" r="25.2"/>
			</g>
			<g>
				<circle fill="#FF6666" cx="-374.3" cy="3909.9" r="22.1"/>
			</g>
		</g>
	</g>
	<g>
		<path fill="#636D82" d="M-224.9,3927l20.8,60.3h0.3l21-60.3h21.5v81.8h-16.4v-24.4l1.6-36.1l-0.3-0.1l-21.9,60.6h-11l-21.8-60.3
			l-0.3,0.1l1.6,35.9v24.4h-16.4V3927H-224.9z"/>
		<path fill="#636D82" d="M-66.1,3927v54.3c0,9.2-3,16.3-9.1,21.2c-6.1,5-14,7.5-23.8,7.5c-9.8,0-17.7-2.5-23.7-7.5
			c-6-5-9-12.1-9-21.2V3927h16.5v54.2c0,5.4,1.4,9.4,4.3,12.1c2.9,2.7,6.9,4,11.9,4c5.1,0,9.2-1.3,12.1-4c2.9-2.7,4.4-6.7,4.4-12.1
			V3927H-66.1z"/>
		<path fill="#636D82" d="M-20.3,3996.1h36.4v12.6h-52.8V3927h16.4V3996.1z"/>
		<path fill="#636D82" d="M85.1,3939.6H62v69.1H45.6v-69.1h-23V3927h62.6V3939.6z"/>
		<path fill="#636D82" d="M126.8,4008.8h-16.4V3927h16.4V4008.8z"/>
		<path fill="#636D82" d="M224.3,4008.8H208l-33-55.9l-0.3,0.1v55.8h-16.4V3927h16.4l33,55.8l0.3-0.1V3927h16.3V4008.8z"/>
		<path fill="#636D82" d="M305,3972.8h-33.9v23.3h39.6v12.6h-56V3927h55.9v12.6h-39.5v20.6H305V3972.8z"/>
		<path fill="#636D82" d="M364.7,3956l15.3-29h19.1l-24.3,40.6l25.7,41.2h-19.8l-15.8-29.5l-15.8,29.5h-19.2l24.9-41.2l-24.3-40.6
			h19L364.7,3956z"/>
		<path fill="#636D82" d="M487.8,3975.2c0,10-3.2,18.3-9.5,24.9c-6.3,6.6-14.6,9.8-24.7,9.8c-10.1,0-18.3-3.3-24.5-9.8
			c-6.3-6.6-9.4-14.8-9.4-24.9v-14.7c0-10,3.1-18.3,9.4-24.9c6.3-6.6,14.4-9.9,24.5-9.9c10.1,0,18.4,3.3,24.8,9.9
			c6.4,6.6,9.5,14.9,9.5,24.9V3975.2z M471.4,3960.4c0-6.4-1.6-11.6-4.8-15.7c-3.2-4.1-7.6-6.1-13.1-6.1c-5.6,0-9.9,2-13,6.1
			c-3.1,4.1-4.6,9.3-4.6,15.7v14.9c0,6.5,1.6,11.8,4.7,15.9c3.1,4.1,7.4,6.1,13,6.1c5.6,0,10-2,13.1-6.1c3.1-4.1,4.7-9.4,4.7-15.9
			V3960.4z"/>
	</g>
</g>
<g>
	<g>
		<g>
			<polygon fill="none" stroke="#636D82" stroke-width="18" stroke-miterlimit="10" points="-340.7,4449.2 -374.3,4336.4 
				-468.6,4362.3 -469.7,4451 			"/>
			<g>
				<circle fill="#FFC145" cx="-469.7" cy="4451" r="23.4"/>
			</g>
			<g>
				<circle fill="#5CCC5C" cx="-468.6" cy="4362.3" r="22.5"/>
			</g>
			<g>
				<circle fill="#1FAFFF" cx="-340.7" cy="4449.2" r="25.2"/>
			</g>
			<g>
				<circle fill="#FF6666" cx="-374.3" cy="4336.4" r="22.1"/>
			</g>
		</g>
	</g>
	<g>
		<path fill="#636D82" d="M-224.9,4353.4l20.8,60.3h0.3l21-60.3h21.5v81.8h-16.4v-24.4l1.6-36.1l-0.3-0.1l-21.9,60.6h-11l-21.8-60.3
			l-0.3,0.1l1.6,35.9v24.4h-16.4v-81.8H-224.9z"/>
		<path fill="#636D82" d="M-66.1,4353.4v54.3c0,9.2-3,16.3-9.1,21.2c-6.1,5-14,7.5-23.8,7.5c-9.8,0-17.7-2.5-23.7-7.5
			s-9-12.1-9-21.2v-54.3h16.5v54.2c0,5.4,1.4,9.4,4.3,12.1c2.9,2.7,6.9,4,11.9,4c5.1,0,9.2-1.3,12.1-4c2.9-2.7,4.4-6.7,4.4-12.1
			v-54.2H-66.1z"/>
		<path fill="#636D82" d="M-20.3,4422.6h36.4v12.6h-52.8v-81.8h16.4V4422.6z"/>
		<path fill="#636D82" d="M85.1,4366.1H62v69.1H45.6v-69.1h-23v-12.6h62.6V4366.1z"/>
		<path fill="#636D82" d="M126.8,4435.2h-16.4v-81.8h16.4V4435.2z"/>
		<path fill="#636D82" d="M224.3,4435.2H208l-33-55.9l-0.3,0.1v55.8h-16.4v-81.8h16.4l33,55.8l0.3-0.1v-55.8h16.3V4435.2z"/>
		<path fill="#636D82" d="M305,4399.3h-33.9v23.3h39.6v12.6h-56v-81.8h55.9v12.6h-39.5v20.6H305V4399.3z"/>
		<path fill="#636D82" d="M364.7,4382.4l15.3-29h19.1l-24.3,40.6l25.7,41.2h-19.8l-15.8-29.5l-15.8,29.5h-19.2l24.9-41.2l-24.3-40.6
			h19L364.7,4382.4z"/>
		<path fill="#636D82" d="M487.8,4401.7c0,10-3.2,18.3-9.5,24.9c-6.3,6.6-14.6,9.8-24.7,9.8c-10.1,0-18.3-3.3-24.5-9.8
			c-6.3-6.6-9.4-14.8-9.4-24.9V4387c0-10,3.1-18.3,9.4-24.9c6.3-6.6,14.4-9.9,24.5-9.9c10.1,0,18.4,3.3,24.8,9.9
			c6.4,6.6,9.5,14.9,9.5,24.9V4401.7z M471.4,4386.9c0-6.4-1.6-11.6-4.8-15.7c-3.2-4.1-7.6-6.1-13.1-6.1c-5.6,0-9.9,2-13,6.1
			c-3.1,4.1-4.6,9.3-4.6,15.7v14.9c0,6.5,1.6,11.8,4.7,15.9c3.1,4.1,7.4,6.1,13,6.1c5.6,0,10-2,13.1-6.1c3.1-4.1,4.7-9.4,4.7-15.9
			V4386.9z"/>
	</g>
</g>
<g>
	<g>
		<g>
			<g>
				<path fill="#EDEDED" d="M1153.8,3243.7H994.6l4.9-109.8l113.2-29.4L1153.8,3243.7z M1016.9,3222.3h108.2l-27.1-92l-77.9,20.2
					L1016.9,3222.3z"/>
			</g>
			<g>
				<circle fill="#FFC145" cx="1008.3" cy="3232.5" r="23.4"/>
			</g>
			<g>
				<circle fill="#5CCC5C" cx="1009.4" cy="3143.8" r="22.5"/>
			</g>
			<g>
				<circle fill="#1FAFFF" cx="1137.4" cy="3230.7" r="25.2"/>
			</g>
			<g>
				<circle fill="#FF6666" cx="1103.8" cy="3117.9" r="22.1"/>
			</g>
		</g>
	</g>
	<g>
		<path fill="#EDEDED" d="M1242.3,3134.2l20.8,60.2h0.3l21-60.2h21.4v81.7h-16.4v-24.3l1.6-36.1l-0.3-0.1l-21.9,60.5h-11l-21.8-60.2
			l-0.3,0.1l1.6,35.8v24.3H1221v-81.7H1242.3z"/>
		<path fill="#EDEDED" d="M1385.8,3134.2v54.2c0,9.2-3,16.2-9.1,21.2c-6.1,5-14,7.5-23.8,7.5c-9.8,0-17.6-2.5-23.6-7.5
			c-6-5-9-12-9-21.2v-54.2h16.4v54.1c0,5.4,1.4,9.4,4.3,12.1c2.9,2.7,6.8,4,11.9,4c5.1,0,9.1-1.3,12.1-4c2.9-2.7,4.4-6.7,4.4-12.1
			v-54.1H1385.8z"/>
		<path fill="#EDEDED" d="M1416.5,3203.3h36.4v12.6h-52.7v-81.7h16.4V3203.3z"/>
		<path fill="#EDEDED" d="M1506.8,3146.8h-23.1v69.1h-16.4v-69.1h-23v-12.6h62.5V3146.8z"/>
		<path fill="#EDEDED" d="M1533.3,3215.9h-16.4v-81.7h16.4V3215.9z"/>
		<path fill="#EDEDED" d="M1615.7,3215.9h-16.3l-33-55.8l-0.3,0.1v55.8h-16.4v-81.7h16.4l33,55.8l0.3-0.1v-55.7h16.3V3215.9z"/>
		<path fill="#EDEDED" d="M1681.2,3180h-33.8v23.3h39.5v12.6H1631v-81.7h55.8v12.6h-39.4v20.5h33.8V3180z"/>
		<path fill="#EDEDED" d="M1725.7,3163.2l15.3-28.9h19.1l-24.2,40.5l25.6,41.2h-19.8l-15.8-29.5l-15.8,29.5h-19.1l24.9-41.2
			l-24.2-40.5h19L1725.7,3163.2z"/>
		<path fill="#EDEDED" d="M1833.7,3182.4c0,10-3.2,18.3-9.5,24.9c-6.3,6.5-14.6,9.8-24.7,9.8c-10.1,0-18.2-3.3-24.5-9.8
			c-6.3-6.5-9.4-14.8-9.4-24.9v-14.7c0-10,3.1-18.3,9.4-24.8c6.3-6.6,14.4-9.8,24.5-9.8c10.1,0,18.4,3.3,24.7,9.8
			c6.4,6.6,9.5,14.8,9.5,24.8V3182.4z M1817.3,3167.6c0-6.4-1.6-11.6-4.8-15.7c-3.2-4.1-7.6-6.1-13.1-6.1c-5.6,0-9.9,2-13,6.1
			c-3.1,4.1-4.6,9.3-4.6,15.7v14.8c0,6.5,1.6,11.8,4.7,15.8c3.1,4.1,7.4,6.1,13,6.1c5.6,0,10-2,13.1-6.1c3.1-4.1,4.7-9.4,4.7-15.8
			V3167.6z"/>
	</g>
</g>
<g>
	<g>
		<g>
			<g>
				<path fill="#424A60" d="M1153.8,3627H994.6l4.9-109.8l113.2-29.4L1153.8,3627z M1016.9,3605.6h108.2l-27.1-92l-77.9,20.2
					L1016.9,3605.6z"/>
			</g>
			<g>
				<circle fill="#FFC145" cx="1008.3" cy="3615.8" r="23.4"/>
			</g>
			<g>
				<circle fill="#5CCC5C" cx="1009.4" cy="3527.1" r="22.5"/>
			</g>
			<g>
				<circle fill="#1FAFFF" cx="1137.4" cy="3614" r="25.2"/>
			</g>
			<g>
				<circle fill="#FF6666" cx="1103.8" cy="3501.2" r="22.1"/>
			</g>
		</g>
	</g>
	<g>
		<path fill="#424A60" d="M1242.3,3517.5l20.8,60.2h0.3l21-60.2h21.4v81.7h-16.4v-24.3l1.6-36.1l-0.3-0.1l-21.9,60.5h-11l-21.8-60.2
			l-0.3,0.1l1.6,35.8v24.3H1221v-81.7H1242.3z"/>
		<path fill="#424A60" d="M1385.8,3517.5v54.2c0,9.2-3,16.2-9.1,21.2c-6.1,5-14,7.5-23.8,7.5c-9.8,0-17.6-2.5-23.6-7.5
			c-6-5-9-12-9-21.2v-54.2h16.4v54.1c0,5.4,1.4,9.4,4.3,12.1c2.9,2.7,6.8,4,11.9,4c5.1,0,9.1-1.3,12.1-4c2.9-2.7,4.4-6.7,4.4-12.1
			v-54.1H1385.8z"/>
		<path fill="#424A60" d="M1416.5,3586.6h36.4v12.6h-52.7v-81.7h16.4V3586.6z"/>
		<path fill="#424A60" d="M1506.8,3530.1h-23.1v69.1h-16.4v-69.1h-23v-12.6h62.5V3530.1z"/>
		<path fill="#424A60" d="M1533.3,3599.2h-16.4v-81.7h16.4V3599.2z"/>
		<path fill="#424A60" d="M1615.7,3599.2h-16.3l-33-55.8l-0.3,0.1v55.8h-16.4v-81.7h16.4l33,55.8l0.3-0.1v-55.7h16.3V3599.2z"/>
		<path fill="#424A60" d="M1681.2,3563.3h-33.8v23.3h39.5v12.6H1631v-81.7h55.8v12.6h-39.4v20.5h33.8V3563.3z"/>
		<path fill="#424A60" d="M1725.7,3546.5l15.3-28.9h19.1l-24.2,40.5l25.6,41.2h-19.8l-15.8-29.5l-15.8,29.5h-19.1l24.9-41.2
			l-24.2-40.5h19L1725.7,3546.5z"/>
		<path fill="#424A60" d="M1833.7,3565.7c0,10-3.2,18.3-9.5,24.9c-6.3,6.5-14.6,9.8-24.7,9.8c-10.1,0-18.2-3.3-24.5-9.8
			c-6.3-6.5-9.4-14.8-9.4-24.9V3551c0-10,3.1-18.3,9.4-24.8c6.3-6.6,14.4-9.8,24.5-9.8c10.1,0,18.4,3.3,24.7,9.8
			c6.4,6.6,9.5,14.8,9.5,24.8V3565.7z M1817.3,3550.9c0-6.4-1.6-11.6-4.8-15.7c-3.2-4.1-7.6-6.1-13.1-6.1c-5.6,0-9.9,2-13,6.1
			c-3.1,4.1-4.6,9.3-4.6,15.7v14.8c0,6.5,1.6,11.8,4.7,15.8c3.1,4.1,7.4,6.1,13,6.1c5.6,0,10-2,13.1-6.1c3.1-4.1,4.7-9.4,4.7-15.8
			V3550.9z"/>
	</g>
</g>
<g>
	<g>
		<g>
			<g>
				<path fill="#424A60" d="M-324.3,4836.5h-159.2l4.9-109.8l113.2-29.4L-324.3,4836.5z M-461.1,4815.1h108.2l-27.1-92l-77.9,20.2
					L-461.1,4815.1z"/>
			</g>
			<g>
				<circle fill="#424A60" cx="-469.7" cy="4825.3" r="23.4"/>
				<path fill="#FFDB9C" d="M-469.7,4842.7c-9.6,0-17.4-7.8-17.4-17.4s7.8-17.4,17.4-17.4s17.4,7.8,17.4,17.4
					S-460.1,4842.7-469.7,4842.7z"/>
				<path fill="#B57400" d="M-469.7,4842.7c-9.6,0-17.4-7.5-17.4-16.8s7.8-16.8,17.4-16.8s17.4,7.5,17.4,16.8
					S-460.1,4842.7-469.7,4842.7z"/>
				<path fill="#FFC145" d="M-469.7,4841.8c-9.6,0-17.4-7.3-17.4-16.3s7.8-16.3,17.4-16.3s17.4,7.3,17.4,16.3
					S-460.1,4841.8-469.7,4841.8z"/>
			</g>
			<g>
				<circle fill="#424A60" cx="-468.6" cy="4736.5" r="22.5"/>
				<path fill="#A9FFA9" d="M-468.6,4753.1c-9.1,0-16.5-7.4-16.5-16.5c0-9.1,7.4-16.5,16.5-16.5c9.1,0,16.5,7.4,16.5,16.5
					C-452.1,4745.7-459.5,4753.1-468.6,4753.1z"/>
				<path fill="#419641" d="M-468.6,4753.1c-9.1,0-16.5-7.2-16.5-15.9c0-8.8,7.4-15.9,16.5-15.9c9.1,0,16.5,7.2,16.5,15.9
					C-452.1,4745.9-459.5,4753.1-468.6,4753.1z"/>
				<path fill="#5CCC5C" d="M-468.6,4751.6c-9.1,0-16.5-6.8-16.5-15.2c0-8.4,7.4-15.2,16.5-15.2c9.1,0,16.5,6.8,16.5,15.2
					C-452.1,4744.8-459.5,4751.6-468.6,4751.6z"/>
			</g>
			<g>
				<circle fill="#424A60" cx="-340.7" cy="4823.5" r="25.2"/>
				<path fill="#7BD7FF" d="M-340.7,4842.7c-10.6,0-19.2-8.6-19.2-19.2s8.6-19.2,19.2-19.2s19.2,8.6,19.2,19.2
					S-330.1,4842.7-340.7,4842.7z"/>
				<path fill="#0485B2" d="M-340.7,4842.7c-10.6,0-19.2-8.3-19.2-18.5s8.6-18.5,19.2-18.5s19.2,8.3,19.2,18.5
					S-330.1,4842.7-340.7,4842.7z"/>
				<path fill="#1FAFFF" d="M-340.7,4841.3c-10.6,0-19.2-8-19.2-17.8s8.6-17.8,19.2-17.8s19.2,8,19.2,17.8
					S-330.1,4841.3-340.7,4841.3z"/>
			</g>
			<g>
				<circle fill="#424A60" cx="-374.3" cy="4710.7" r="22.1"/>
				<path fill="#BF4545" d="M-374.3,4726.8c-8.9,0-16.1-7.2-16.1-16.1s7.2-16.1,16.1-16.1s16.1,7.2,16.1,16.1
					S-365.4,4726.8-374.3,4726.8z"/>
				<path fill="#FF9F9F" d="M-374.3,4725.9c-8.9,0-16.1-7-16.1-15.7s7.2-15.7,16.1-15.7s16.1,7,16.1,15.7
					S-365.4,4725.9-374.3,4725.9z"/>
				<path fill="#FF6666" d="M-374.3,4725.9c-8.9,0-16.1-6.8-16.1-15.1c0-8.3,7.2-15.1,16.1-15.1s16.1,6.8,16.1,15.1
					C-358.1,4719.1-365.4,4725.9-374.3,4725.9z"/>
			</g>
		</g>
	</g>
	<g>
		<path fill="#424A60" d="M-224.9,4727.7l20.8,60.3h0.3l21-60.3h21.5v81.8h-16.4v-24.4l1.6-36.1l-0.3-0.1l-21.9,60.6h-11l-21.8-60.3
			l-0.3,0.1l1.6,35.9v24.4h-16.4v-81.8H-224.9z"/>
		<path fill="#424A60" d="M-66.1,4727.7v54.3c0,9.2-3,16.3-9.1,21.2c-6.1,5-14,7.5-23.8,7.5c-9.8,0-17.7-2.5-23.7-7.5
			c-6-5-9-12.1-9-21.2v-54.3h16.5v54.2c0,5.4,1.4,9.4,4.3,12.1c2.9,2.7,6.9,4,11.9,4c5.1,0,9.2-1.3,12.1-4c2.9-2.7,4.4-6.7,4.4-12.1
			v-54.2H-66.1z"/>
		<path fill="#424A60" d="M-20.3,4796.9h36.4v12.6h-52.8v-81.8h16.4V4796.9z"/>
		<path fill="#424A60" d="M85.1,4740.4H62v69.1H45.6v-69.1h-23v-12.6h62.6V4740.4z"/>
		<path fill="#424A60" d="M126.8,4809.5h-16.4v-81.8h16.4V4809.5z"/>
		<path fill="#424A60" d="M224.3,4809.5H208l-33-55.9l-0.3,0.1v55.8h-16.4v-81.8h16.4l33,55.8l0.3-0.1v-55.8h16.3V4809.5z"/>
		<path fill="#424A60" d="M305,4773.6h-33.9v23.3h39.6v12.6h-56v-81.8h55.9v12.6h-39.5v20.6H305V4773.6z"/>
		<path fill="#424A60" d="M364.7,4756.7l15.3-29h19.1l-24.3,40.6l25.7,41.2h-19.8l-15.8-29.5l-15.8,29.5h-19.2l24.9-41.2l-24.3-40.6
			h19L364.7,4756.7z"/>
		<path fill="#424A60" d="M487.8,4776c0,10-3.2,18.3-9.5,24.9c-6.3,6.6-14.6,9.8-24.7,9.8c-10.1,0-18.3-3.3-24.5-9.8
			c-6.3-6.6-9.4-14.8-9.4-24.9v-14.7c0-10,3.1-18.3,9.4-24.9c6.3-6.6,14.4-9.9,24.5-9.9c10.1,0,18.4,3.3,24.8,9.9
			c6.4,6.6,9.5,14.9,9.5,24.9V4776z M471.4,4761.2c0-6.4-1.6-11.6-4.8-15.7c-3.2-4.1-7.6-6.1-13.1-6.1c-5.6,0-9.9,2-13,6.1
			c-3.1,4.1-4.6,9.3-4.6,15.7v14.9c0,6.5,1.6,11.8,4.7,15.9c3.1,4.1,7.4,6.1,13,6.1c5.6,0,10-2,13.1-6.1c3.1-4.1,4.7-9.4,4.7-15.9
			V4761.2z"/>
	</g>
</g>
<g>
	<g>
		<path fill="#424A60" d="M1242.3,4727l20.8,60.2h0.3l21-60.2h21.4v81.7h-16.4v-24.3l1.6-36.1l-0.3-0.1l-21.9,60.5h-11l-21.8-60.2
			l-0.3,0.1l1.6,35.8v24.3H1221V4727H1242.3z"/>
		<path fill="#424A60" d="M1385.8,4727v54.2c0,9.2-3,16.2-9.1,21.2c-6.1,5-14,7.5-23.8,7.5c-9.8,0-17.6-2.5-23.6-7.5
			c-6-5-9-12-9-21.2V4727h16.4v54.1c0,5.4,1.4,9.4,4.3,12.1c2.9,2.7,6.8,4,11.9,4c5.1,0,9.1-1.3,12.1-4c2.9-2.7,4.4-6.7,4.4-12.1
			V4727H1385.8z"/>
		<path fill="#424A60" d="M1416.5,4796.1h36.4v12.6h-52.7V4727h16.4V4796.1z"/>
		<path fill="#424A60" d="M1506.8,4739.6h-23.1v69.1h-16.4v-69.1h-23V4727h62.5V4739.6z"/>
		<path fill="#424A60" d="M1533.3,4808.7h-16.4V4727h16.4V4808.7z"/>
		<path fill="#424A60" d="M1615.7,4808.7h-16.3l-33-55.8l-0.3,0.1v55.8h-16.4V4727h16.4l33,55.8l0.3-0.1V4727h16.3V4808.7z"/>
		<path fill="#424A60" d="M1681.2,4772.8h-33.8v23.3h39.5v12.6H1631V4727h55.8v12.6h-39.4v20.5h33.8V4772.8z"/>
		<path fill="#424A60" d="M1725.7,4755.9l15.3-28.9h19.1l-24.2,40.5l25.6,41.2h-19.8l-15.8-29.5l-15.8,29.5h-19.1l24.9-41.2
			l-24.2-40.5h19L1725.7,4755.9z"/>
		<path fill="#424A60" d="M1833.7,4775.2c0,10-3.2,18.3-9.5,24.9c-6.3,6.5-14.6,9.8-24.7,9.8c-10.1,0-18.2-3.3-24.5-9.8
			c-6.3-6.5-9.4-14.8-9.4-24.9v-14.7c0-10,3.1-18.3,9.4-24.8c6.3-6.6,14.4-9.8,24.5-9.8c10.1,0,18.4,3.3,24.7,9.8
			c6.4,6.6,9.5,14.8,9.5,24.8V4775.2z M1817.3,4760.4c0-6.4-1.6-11.6-4.8-15.7c-3.2-4.1-7.6-6.1-13.1-6.1c-5.6,0-9.9,2-13,6.1
			c-3.1,4.1-4.6,9.3-4.6,15.7v14.8c0,6.5,1.6,11.8,4.7,15.8c3.1,4.1,7.4,6.1,13,6.1c5.6,0,10-2,13.1-6.1c3.1-4.1,4.7-9.4,4.7-15.8
			V4760.4z"/>
	</g>
	<g>
		<g>
			<g>
				<path fill="#424A60" d="M1154.2,4836.5H994.9l4.9-109.8l113.2-29.4L1154.2,4836.5z M1017.3,4815.1h108.2l-27.1-92l-77.9,20.2
					L1017.3,4815.1z"/>
			</g>
			<g>
				<circle fill="#424A60" cx="1008.7" cy="4825.3" r="23.4"/>
				<path fill="#FFDB9C" d="M1008.7,4842.7c-9.6,0-17.4-7.8-17.4-17.4s7.8-17.4,17.4-17.4s17.4,7.8,17.4,17.4
					S1018.3,4842.7,1008.7,4842.7z"/>
				<path fill="#B57400" d="M1008.7,4842.7c-9.6,0-17.4-7.5-17.4-16.8s7.8-16.8,17.4-16.8s17.4,7.5,17.4,16.8
					S1018.3,4842.7,1008.7,4842.7z"/>
				<path fill="#FFC145" d="M1008.7,4841.8c-9.6,0-17.4-7.3-17.4-16.3s7.8-16.3,17.4-16.3s17.4,7.3,17.4,16.3
					S1018.3,4841.8,1008.7,4841.8z"/>
			</g>
			<g>
				<circle fill="#424A60" cx="1009.8" cy="4736.5" r="22.5"/>
				<path fill="#A9FFA9" d="M1009.8,4753.1c-9.1,0-16.5-7.4-16.5-16.5c0-9.1,7.4-16.5,16.5-16.5c9.1,0,16.5,7.4,16.5,16.5
					C1026.3,4745.7,1018.9,4753.1,1009.8,4753.1z"/>
				<path fill="#419641" d="M1009.8,4753.1c-9.1,0-16.5-7.2-16.5-15.9c0-8.8,7.4-15.9,16.5-15.9c9.1,0,16.5,7.2,16.5,15.9
					C1026.3,4745.9,1018.9,4753.1,1009.8,4753.1z"/>
				<path fill="#5CCC5C" d="M1009.8,4751.6c-9.1,0-16.5-6.8-16.5-15.2c0-8.4,7.4-15.2,16.5-15.2c9.1,0,16.5,6.8,16.5,15.2
					C1026.3,4744.8,1018.9,4751.6,1009.8,4751.6z"/>
			</g>
			<g>
				<circle fill="#424A60" cx="1137.8" cy="4823.5" r="25.2"/>
				<path fill="#7BD7FF" d="M1137.8,4842.7c-10.6,0-19.2-8.6-19.2-19.2s8.6-19.2,19.2-19.2s19.2,8.6,19.2,19.2
					S1148.4,4842.7,1137.8,4842.7z"/>
				<path fill="#0485B2" d="M1137.8,4842.7c-10.6,0-19.2-8.3-19.2-18.5s8.6-18.5,19.2-18.5s19.2,8.3,19.2,18.5
					S1148.4,4842.7,1137.8,4842.7z"/>
				<path fill="#1FAFFF" d="M1137.8,4841.3c-10.6,0-19.2-8-19.2-17.8s8.6-17.8,19.2-17.8s19.2,8,19.2,17.8
					S1148.4,4841.3,1137.8,4841.3z"/>
			</g>
			<g>
				<circle fill="#424A60" cx="1104.2" cy="4710.7" r="22.1"/>
				<path fill="#BF4545" d="M1104.2,4726.8c-8.9,0-16.1-7.2-16.1-16.1s7.2-16.1,16.1-16.1s16.1,7.2,16.1,16.1
					S1113.1,4726.8,1104.2,4726.8z"/>
				<path fill="#FF9F9F" d="M1104.2,4725.9c-8.9,0-16.1-7-16.1-15.7s7.2-15.7,16.1-15.7s16.1,7,16.1,15.7
					S1113.1,4725.9,1104.2,4725.9z"/>
				<path fill="#FF6666" d="M1104.2,4725.9c-8.9,0-16.1-6.8-16.1-15.1c0-8.3,7.2-15.1,16.1-15.1s16.1,6.8,16.1,15.1
					C1120.3,4719.1,1113.1,4725.9,1104.2,4725.9z"/>
			</g>
		</g>
	</g>
</g>
<g>
	<g>
		<g>
			<g>
				<path fill="#636D82" d="M1153.8,4035.7H994.6l4.9-109.8l113.2-29.4L1153.8,4035.7z M1016.9,4014.3h108.2l-27.1-92l-77.9,20.2
					L1016.9,4014.3z"/>
			</g>
			<g>
				<circle fill="#FFC145" cx="1008.3" cy="4024.6" r="23.4"/>
			</g>
			<g>
				<circle fill="#5CCC5C" cx="1009.4" cy="3935.8" r="22.5"/>
			</g>
			<g>
				<circle fill="#1FAFFF" cx="1137.4" cy="4022.7" r="25.2"/>
			</g>
			<g>
				<circle fill="#FF6666" cx="1103.8" cy="3909.9" r="22.1"/>
			</g>
		</g>
	</g>
	<g>
		<path fill="#636D82" d="M1242.3,3926.3l20.8,60.2h0.3l21-60.2h21.4v81.7h-16.4v-24.3l1.6-36.1l-0.3-0.1l-21.9,60.5h-11l-21.8-60.2
			l-0.3,0.1l1.6,35.8v24.3H1221v-81.7H1242.3z"/>
		<path fill="#636D82" d="M1385.8,3926.3v54.2c0,9.2-3,16.2-9.1,21.2c-6.1,5-14,7.5-23.8,7.5c-9.8,0-17.6-2.5-23.6-7.5
			c-6-5-9-12-9-21.2v-54.2h16.4v54.1c0,5.4,1.4,9.4,4.3,12.1c2.9,2.7,6.8,4,11.9,4c5.1,0,9.1-1.3,12.1-4c2.9-2.7,4.4-6.7,4.4-12.1
			v-54.1H1385.8z"/>
		<path fill="#636D82" d="M1416.5,3995.3h36.4v12.6h-52.7v-81.7h16.4V3995.3z"/>
		<path fill="#636D82" d="M1506.8,3938.9h-23.1v69.1h-16.4v-69.1h-23v-12.6h62.5V3938.9z"/>
		<path fill="#636D82" d="M1533.3,4007.9h-16.4v-81.7h16.4V4007.9z"/>
		<path fill="#636D82" d="M1615.7,4007.9h-16.3l-33-55.8l-0.3,0.1v55.8h-16.4v-81.7h16.4l33,55.8l0.3-0.1v-55.7h16.3V4007.9z"/>
		<path fill="#636D82" d="M1681.2,3972h-33.8v23.3h39.5v12.6H1631v-81.7h55.8v12.6h-39.4v20.5h33.8V3972z"/>
		<path fill="#636D82" d="M1725.7,3955.2l15.3-28.9h19.1l-24.2,40.5l25.6,41.2h-19.8l-15.8-29.5l-15.8,29.5h-19.1l24.9-41.2
			l-24.2-40.5h19L1725.7,3955.2z"/>
		<path fill="#636D82" d="M1833.7,3974.5c0,10-3.2,18.3-9.5,24.9c-6.3,6.5-14.6,9.8-24.7,9.8c-10.1,0-18.2-3.3-24.5-9.8
			c-6.3-6.5-9.4-14.8-9.4-24.9v-14.7c0-10,3.1-18.3,9.4-24.8c6.3-6.6,14.4-9.8,24.5-9.8c10.1,0,18.4,3.3,24.7,9.8
			c6.4,6.6,9.5,14.8,9.5,24.8V3974.5z M1817.3,3959.7c0-6.4-1.6-11.6-4.8-15.7c-3.2-4.1-7.6-6.1-13.1-6.1c-5.6,0-9.9,2-13,6.1
			c-3.1,4.1-4.6,9.3-4.6,15.7v14.8c0,6.5,1.6,11.8,4.7,15.8c3.1,4.1,7.4,6.1,13,6.1c5.6,0,10-2,13.1-6.1c3.1-4.1,4.7-9.4,4.7-15.8
			V3959.7z"/>
	</g>
</g>
<g>
	<g>
		<path fill="#636D82" d="M1242.2,4362.3l20.8,60.2h0.3l21-60.2h21.4v81.7h-16.4v-24.3l1.6-36.1l-0.3-0.1l-21.9,60.5h-11l-21.8-60.2
			l-0.3,0.1l1.6,35.8v24.3h-16.4v-81.7H1242.2z"/>
		<path fill="#636D82" d="M1385.6,4362.3v54.2c0,9.2-3,16.2-9.1,21.2c-6.1,5-14,7.5-23.8,7.5c-9.8,0-17.6-2.5-23.6-7.5
			c-6-5-9-12-9-21.2v-54.2h16.4v54.1c0,5.4,1.4,9.4,4.3,12.1c2.9,2.7,6.8,4,11.9,4c5.1,0,9.1-1.3,12.1-4c2.9-2.7,4.4-6.7,4.4-12.1
			v-54.1H1385.6z"/>
		<path fill="#636D82" d="M1416.3,4431.3h36.4v12.6H1400v-81.7h16.4V4431.3z"/>
		<path fill="#636D82" d="M1506.6,4374.9h-23.1v69.1h-16.4v-69.1h-23v-12.6h62.5V4374.9z"/>
		<path fill="#636D82" d="M1533.1,4443.9h-16.4v-81.7h16.4V4443.9z"/>
		<path fill="#636D82" d="M1615.5,4443.9h-16.3l-33-55.8l-0.3,0.1v55.8h-16.4v-81.7h16.4l33,55.8l0.3-0.1v-55.7h16.3V4443.9z"/>
		<path fill="#636D82" d="M1681,4408h-33.8v23.3h39.5v12.6h-55.9v-81.7h55.8v12.6h-39.4v20.5h33.8V4408z"/>
		<path fill="#636D82" d="M1725.5,4391.2l15.3-28.9h19.1l-24.2,40.5l25.6,41.2h-19.8l-15.8-29.5l-15.8,29.5h-19.1l24.9-41.2
			l-24.2-40.5h19L1725.5,4391.2z"/>
		<path fill="#636D82" d="M1833.5,4410.5c0,10-3.2,18.3-9.5,24.9c-6.3,6.5-14.6,9.8-24.7,9.8c-10.1,0-18.2-3.3-24.5-9.8
			c-6.3-6.5-9.4-14.8-9.4-24.9v-14.7c0-10,3.1-18.3,9.4-24.8c6.3-6.6,14.4-9.8,24.5-9.8c10.1,0,18.4,3.3,24.7,9.8
			c6.4,6.6,9.5,14.8,9.5,24.8V4410.5z M1817.1,4395.7c0-6.4-1.6-11.6-4.8-15.7c-3.2-4.1-7.6-6.1-13.1-6.1c-5.6,0-9.9,2-13,6.1
			c-3.1,4.1-4.6,9.3-4.6,15.7v14.8c0,6.5,1.6,11.8,4.7,15.8c3.1,4.1,7.4,6.1,13,6.1c5.6,0,10-2,13.1-6.1c3.1-4.1,4.7-9.4,4.7-15.8
			V4395.7z"/>
	</g>
	<g>
		<g>
			<polygon fill="none" stroke="#636D82" stroke-width="18" stroke-miterlimit="10" points="1137.6,4458.7 1104,4345.9 
				1009.6,4371.8 1008.5,4460.6 			"/>
			<g>
				<circle fill="#FFC145" cx="1008.5" cy="4460.6" r="23.4"/>
			</g>
			<g>
				<circle fill="#5CCC5C" cx="1009.6" cy="4371.8" r="22.5"/>
			</g>
			<g>
				<circle fill="#1FAFFF" cx="1137.6" cy="4458.7" r="25.2"/>
			</g>
			<g>
				<circle fill="#FF6666" cx="1104" cy="4345.9" r="22.1"/>
			</g>
		</g>
	</g>
</g>
<text transform="matrix(1 0 0 1 -172.8686 2867.27)" fill="#FF6666" font-family="'Roboto-Bold'" font-size="115.041" letter-spacing="15">1</text>
<text transform="matrix(1 0 0 1 -697.9181 3217.9001)" fill="#FF6666" font-family="'Roboto-Bold'" font-size="115.041" letter-spacing="15">2</text>
<text transform="matrix(1 0 0 1 721.7532 3217.9001)" fill="#FF6666" font-family="'Roboto-Bold'" font-size="115.041" letter-spacing="15">3</text>
<text transform="matrix(1 0 0 1 -697.918 3613.9814)" fill="#FF6666" font-family="'Roboto-Bold'" font-size="115.041" letter-spacing="15">4</text>
<text transform="matrix(1 0 0 1 -697.9181 4022.7358)" fill="#FF6666" font-family="'Roboto-Bold'" font-size="115.041" letter-spacing="15">6</text>
<text transform="matrix(1 0 0 1 -697.9181 4437.1738)" fill="#FF6666" font-family="'Roboto-Bold'" font-size="115.041" letter-spacing="15">8</text>
<text transform="matrix(1 0 0 1 721.7534 3613.9814)" fill="#FF6666" font-family="'Roboto-Bold'" font-size="115.041" letter-spacing="15">5</text>
<text transform="matrix(1 0 0 1 721.7532 4022.7358)" fill="#FF6666" font-family="'Roboto-Bold'" font-size="115.041" letter-spacing="15">7</text>
<text transform="matrix(1 0 0 1 721.7532 4437.1738)" fill="#FF6666" font-family="'Roboto-Bold'" font-size="115.041" letter-spacing="15">9</text>
<text transform="matrix(1 0 0 1 -755.9181 4817.3877)" fill="#FF6666" font-family="'Roboto-Bold'" font-size="115.041" letter-spacing="15">10</text>
<text transform="matrix(1 0 0 1 677.7532 4817.3877)" fill="#FF6666" font-family="'Roboto-Bold'" font-size="115.041" letter-spacing="15">11</text>
<text transform="matrix(1 0 0 1 -755.9181 5136.25)" fill="#FF6666" font-family="'Roboto-Bold'" font-size="115.041" letter-spacing="15">12</text>
<text transform="matrix(1 0 0 1 756.2331 5136.25)" fill="#FF6666" font-family="'Roboto-Bold'" font-size="115.041" letter-spacing="15">13</text>
<line fill="#FF6666" stroke="#FF6666" stroke-width="2" stroke-miterlimit="10" x1="-593.6" y1="5203.5" x2="-593.6" y2="3058.3"/>
<line fill="#FF6666" stroke="#FF6666" stroke-width="2" stroke-miterlimit="10" x1="831.5" y1="4921.5" x2="831.5" y2="3058.3"/>
<g>
	<g>
		<g>
			<polygon fill="none" stroke="#424A60" stroke-width="18" stroke-miterlimit="10" points="319.5,170.6 285.8,57.8 191.5,83.7 
				190.4,172.4 			"/>
			<g>
				<circle fill="#FFC145" cx="190.4" cy="172.4" r="23.4"/>
			</g>
			<g>
				<circle fill="#5CCC5C" cx="191.5" cy="83.7" r="22.5"/>
			</g>
			<g>
				<circle fill="#1FAFFF" cx="319.5" cy="170.6" r="25.2"/>
			</g>
			<g>
				<circle fill="#FF6666" cx="285.8" cy="57.8" r="22.1"/>
			</g>
		</g>
	</g>
	<path fill="#424A60" d="M458.6,162.7c-0.8,0-1.5-0.5-1.8-1.3L433,101.4l-9,57.4c-0.2,1-1,1.7-2,1.7c0,0-10.5,0-10.5,0
		c-0.6,0-1.2-0.3-1.5-0.7s-0.5-1.1-0.4-1.7l16.9-87.5c0.2-0.9,1-1.6,2-1.6h3.6c0.8,0,1.5,0.5,1.9,1.2l27.2,66.3l26.7-66.3
		c0.3-0.8,1-1.3,1.9-1.3h3.6c1,0,1.8,0.7,2,1.6l16,87.5c0.1,0.6-0.1,1.2-0.4,1.6s-0.9,0.7-1.5,0.7h-11.2c-1,0-1.8-0.7-2-1.7l-8.3-57
		l-24.3,59.8c-0.3,0.8-1,1.2-1.9,1.2C461.5,162.8,458.6,162.7,458.6,162.7z"/>
	<path fill="#424A60" d="M509.1,158.4h-11.2l-9.3-64.3l-27.1,66.6l-2.9,0l-26.5-66.9L422,158.4l-10.5,0l16.9-87.5h3.6l29.1,70.8
		l28.5-70.8h3.6L509.1,158.4z"/>
	<path fill="#424A60" d="M574.3,162.6c-7.1,0-13.5-1.6-19.1-4.7c-5.7-3.2-9.6-7-11.6-11.5c-1.8-4.2-3-7.3-3.5-9.5
		c-0.5-2.2-0.8-4.3-0.8-6.1V73.3c0-1.1,0.9-2,2-2h10.2c1.1,0,2,0.9,2,2v57.4c0.5,3.7,1.6,7,3.2,9.9c1.6,2.8,3.8,4.9,6.7,6.4
		c3.9,1.7,8,2.6,12.1,2.6c3.2,0,6.2-0.5,8.8-1.5c2.6-1,4.8-2.5,6.6-4.6c1.9-2.2,3.4-4.3,4.4-6.4c1-2,1.5-4.1,1.5-6.2V73.3
		c0-1.1,0.9-2,2-2h10.5c0.5,0,1,0.2,1.4,0.6c0.4,0.4,0.6,0.9,0.6,1.4l-0.2,58c0,5.4-1.5,10.6-4.5,15.6c-3,4.9-7,8.7-11.8,11.3
		c0,0-0.1,0-0.1,0.1C588.1,161.1,581.3,162.6,574.3,162.6z"/>
	<path fill="#424A60" d="M609.4,73.3l-0.2,58c0,5.1-1.4,9.9-4.3,14.5c-2.8,4.6-6.5,8.1-11,10.5c-6.3,2.8-12.8,4.3-19.6,4.3
		c-6.7,0-12.8-1.5-18.2-4.5c-5.4-3-8.9-6.5-10.7-10.5c-1.8-4-2.9-7.1-3.4-9.1c-0.5-2.1-0.7-3.9-0.7-5.6V73.3h10.2v57.5
		c0.5,4,1.7,7.6,3.5,10.8c1.8,3.2,4.3,5.6,7.6,7.2c4.3,1.8,8.6,2.8,13,2.8c3.4,0,6.6-0.6,9.5-1.7c2.9-1.1,5.4-2.8,7.4-5.1
		c2-2.3,3.6-4.6,4.7-6.8c1.1-2.3,1.7-4.6,1.7-7.1v-0.9V73.3H609.4z"/>
	<path fill="#424A60" d="M653.4,160.4c-1.1,0-2-0.9-2-2V73.3c0-1.1,0.9-2,2-2H664c1.1,0,2,0.9,2,2v73.9h29.4c1.1,0,2,0.9,2,2v9.2
		c0,1.1-0.9,2-2,2H653.4z"/>
	<path fill="#424A60" d="M695.4,158.4h-42V73.3H664v75.9h31.4V158.4z"/>
	<path fill="#424A60" d="M740.9,160.4c-1.1,0-2-0.9-2-2V84.3h-22.5c-1.1,0-2-0.9-2-2v-9c0-1.1,0.9-2,2-2H776c1.1,0,2,0.9,2,2v9
		c0,1.1-0.9,2-2,2h-22.5v74.1c0,1.1-0.9,2-2,2H740.9z"/>
	<path fill="#424A60" d="M776,82.3h-24.5v76.1h-10.6V82.3h-24.5v-9H776V82.3z"/>
	<path fill="#424A60" d="M813.9,160.4c-1.1,0-2-0.9-2-2V73.3c0-1.1,0.9-2,2-2h10c1.1,0,2,0.9,2,2v85.1c0,1.1-0.9,2-2,2H813.9z"/>
	<path fill="#424A60" d="M823.9,158.4h-10V73.3h10V158.4z"/>
	<path fill="#424A60" d="M938,162.3c-0.6,0-1.1-0.2-1.5-0.7l-58.6-64.5v61.3c0,1.1-0.9,2-2,2h-9.5c-1.1,0-2-0.9-2-2V71.3
		c0-0.5,0.2-1,0.6-1.4c0.4-0.4,0.9-0.6,1.4-0.6c0,0,2.4,0,2.4,0c0.6,0,1.1,0.2,1.5,0.7l58.1,64.5V73.3c0-1.1,0.9-2,2-2h9.8
		c1.1,0,2,0.9,2,2v86.9c0,1.1-0.9,2-2,2H938z"/>
	<path fill="#424A60" d="M940.1,160.3H938L875.9,92v66.5h-9.5V71.3l2.4,0l61.5,68.4V73.3h9.8V160.3z"/>
	<path fill="#424A60" d="M977.4,160.4c-1.1,0-2-0.9-2-2V73.3c0-1.1,0.9-2,2-2h46.2c1.1,0,2,0.9,2,2v9.2c0,1.1-0.9,2-2,2h-34v21.2h34
		c1.1,0,2,0.9,2,2v8.7c0,1.1-0.9,2-2,2h-34v28.8h34c1.1,0,2,0.9,2,2v9.2c0,1.1-0.9,2-2,2H977.4z"/>
	<path fill="#424A60" d="M1023.6,158.4h-46.2V73.3h46.2v9.2h-36v25.2h36v8.7h-36v32.8h36V158.4z"/>
	<path fill="#424A60" d="M1108.8,160.5c-0.7,0-1.4-0.4-1.7-1l-19.5-33.8l-18.5,33.7c-0.4,0.6-1,1-1.8,1c0,0-11.8,0-11.8,0
		c-0.7,0-1.4-0.4-1.7-1c-0.4-0.6-0.3-1.4,0-2l26.1-43.7L1055,74.4c-0.4-0.6-0.4-1.4-0.1-2c0.4-0.6,1-1,1.8-1l12.8,0
		c0.7,0,1.4,0.4,1.7,1l16.9,29.1l16.7-29.1c0.4-0.6,1-1,1.7-1c0,0,11.6,0,11.6,0c0.7,0,1.4,0.4,1.7,1c0.4,0.6,0.3,1.4,0,2
		l-23.7,39.3l27.1,43.7c0.4,0.6,0.4,1.4,0,2c-0.4,0.6-1,1-1.7,1C1121.5,160.4,1108.8,160.5,1108.8,160.5z"/>
	<path fill="#424A60" d="M1121.5,158.4l-12.7,0l-21.3-36.8l-20.2,36.8l-11.8,0l26.7-44.7l-25.4-40.4l12.8,0l18.6,32.1l18.5-32.1
		l11.6,0l-24.4,40.4L1121.5,158.4z"/>
	<path fill="#424A60" d="M1188.6,162.7c-13.2,0-24.7-4.5-34.2-13.4c-9.5-8.9-14.4-20-14.4-33c0-13.1,4.7-24.4,13.9-33.6
		c9.2-9.2,20.5-13.9,33.6-13.9c13.2,0,24.7,4.5,34.2,13.4c9.5,8.9,14.4,20,14.4,33c0,13.1-4.7,24.4-13.9,33.6
		C1212.9,158.1,1201.6,162.7,1188.6,162.7z M1187.4,82.1c-9.3,0-16.9,3.3-23.3,10c-6.3,6.6-9.6,14.7-9.6,24.1
		c0,9.3,3.2,16.9,9.9,23.3c6.6,6.3,14.7,9.5,24.1,9.5c9.3,0,16.9-3.3,23.3-10c6.3-6.6,9.6-14.7,9.6-24c0-9.3-3.3-16.9-10-23.3
		C1204.8,85.3,1196.7,82.1,1187.4,82.1z"/>
	<path fill="#424A60" d="M1234,115.2c0,12.6-4.4,23.3-13.3,32.2c-8.9,8.9-19.6,13.3-32.1,13.3c-12.7,0-23.7-4.3-32.8-12.8
		c-9.2-8.6-13.7-19.1-13.7-31.5c0-12.6,4.4-23.3,13.3-32.2c8.9-8.9,19.6-13.3,32.1-13.3c12.7,0,23.7,4.3,32.8,12.8
		C1229.4,92.3,1234,102.8,1234,115.2z M1223.4,115c0-9.8-3.5-18-10.6-24.8c-7.1-6.8-15.5-10.1-25.4-10.1c-9.7,0-18,3.5-24.7,10.6
		c-6.7,7.1-10.1,15.6-10.1,25.5c0,9.8,3.5,18,10.5,24.7c7,6.7,15.5,10.1,25.5,10.1c9.7,0,18-3.5,24.7-10.6
		C1220,133.3,1223.4,124.8,1223.4,115z"/>
</g>
</svg>
